<svg width="120" height="120" viewBox="0 0 120 120" fill="none" xmlns="http://www.w3.org/2000/svg">
<path d="M60 0C68.0056 0 75.6451 1.56766 82.6279 4.41309L82.0996 13.7002L66 26.9004C63.9001 28.5004 62.5996 31.0003 62.5996 33.7002V36.5C62.5996 41.1999 66.3998 44.9998 71.0996 45V52.7998C71.0996 55.9998 72.8998 59.0004 75.7998 60.4004L87.0996 66.0996C89.4996 67.2996 92.3002 67.2996 94.7002 66.0996L101.7 62.5996L105.1 66V72.2002C105.1 72.6 105 72.9999 104.9 73.2998L101.1 82.9004C100.7 84.0001 99.6998 84.7002 98.5 84.7002H94.5C91.3 84.7002 88.3004 86.5004 86.9004 89.4004L85.5996 92C83.3997 96.3 83.6002 101.5 86.2002 105.7L90.0342 111.951C81.2011 117.069 70.9431 120 60 120C51.2361 120 42.9115 118.12 35.4062 114.743L37.2998 113.5C37.7998 113.2 38.3004 113 38.9004 113H46.2002C48.4001 113 50.6002 112.1 52.2002 110.5L60.2002 102.5C61.8001 100.9 62.7002 98.7999 62.7002 96.5V83.4004C62.7002 81.8004 62.3 80.3 61.5 79L55.4004 68.9004C53.8004 66.4004 51.0996 64.7998 48.0996 64.7998H40.2002C37.3002 64.7998 34.6996 66.1997 33.0996 68.5996L29.9004 73.2998H22.9004C19.8004 73.2998 17.2002 75.9 17.2002 79V84.4004C17.2001 85.4001 16.7001 86.2998 15.9004 86.7998L8.82129 91.332C3.22634 82.2126 0 71.4831 0 60C0 58.7914 0.0369546 57.5913 0.107422 56.4004H2.2998C3.3998 56.4004 4.40039 57 4.90039 58L8.2002 64.5996C9.20016 66.4995 11.0999 67.7001 13.2998 67.7002H16.2998C17.9997 67.7002 19.6998 66.8002 20.7998 65.4004C21.7997 63.9005 22.2 62.1003 21.7002 60.4004L18.0996 47.7998H23.7002C25.6001 47.7998 27.5 47.2 29 46L38.4004 38.5C41.4002 36.1 42.4003 31.9999 40.9004 28.5L36 17.2002C35.4001 15.9003 35.8999 14.4003 37.0996 13.7002L44.2002 9.40039C46.7002 7.80039 48.2998 5 48.2998 2V1.14062C52.0841 0.392612 55.9962 0 60 0ZM47.9004 70.5996C48.9002 70.5997 49.7999 71.0005 50.2998 71.9004L56.4004 82C56.7003 82.4999 56.7998 83.0001 56.7998 83.5V96.5996C56.7998 97.3995 56.4999 98.0996 56 98.5996L48 106.6C47.5 107.1 46.7 107.4 46 107.4L38.7002 107.6C37.0002 107.6 35.4 108.1 34 109L29.7178 111.808C22.8411 107.779 16.8379 102.422 12.0615 96.0869L18.7998 91.7002C21.1998 90.1002 22.7002 87.4 22.7002 84.5V79.0996H29.7002C31.6001 79.0995 33.3004 78.1995 34.4004 76.5996L37.5996 71.9004C38.1996 71.1004 39 70.5996 40 70.5996H47.9004ZM88 6.91992C107.031 16.9798 120 36.9756 120 60C120 80.1578 110.059 97.9934 94.8125 108.873L91.0996 102.9C89.4996 100.3 89.4002 97.1996 90.7002 94.5996L92 92C92.4999 91.0001 93.4998 90.4006 94.5996 90.4004H98.5996C102.1 90.4004 105.2 88.2996 106.5 85.0996L110.3 75.5C110.7 74.5 110.9 73.3998 110.9 72.2998V66.0996C110.9 64.5998 110.3 63.1995 109.2 62.0996L105.8 58.7002C104 56.9003 101.4 56.4998 99.2002 57.5996L92.2002 61.0996C91.4002 61.4996 90.5002 61.4996 89.7002 61.0996L78.4004 55.4004C77.4004 54.9004 76.7998 53.8998 76.7998 52.7998V45C76.7998 41.9 74.1996 39.2998 71.0996 39.2998C69.5998 39.2996 68.2998 38.0998 68.2998 36.5V33.7002C68.2998 32.8002 68.7004 31.9004 69.4004 31.4004L88 16.0996V6.91992ZM42.5605 2.57422C42.4291 3.40457 41.957 4.17905 41.2002 4.59961L34 8.90039C30.4002 11.1004 28.8997 15.6001 30.5996 19.5L35.5 30.7998C36 31.8997 35.7 33.2996 34.7002 34.0996L25.5 41.5C25.0001 41.8999 24.3001 42.0996 23.7002 42.0996H18.0996C16.3997 42.0998 14.6995 43.0005 13.5996 44.4004C12.5999 45.9003 12.2003 47.7006 12.7002 49.4004L16.2998 62H13.2998L10 55.4004C8.60005 52.5005 5.60025 50.7003 2.40039 50.7002V50.5996H0.733398C4.33089 27.7368 20.8388 9.16218 42.5605 2.57422Z" fill="white" fill-opacity="0.6"/>
</svg>
