<svg width="174" height="174" viewBox="0 0 174 174" fill="none" xmlns="http://www.w3.org/2000/svg">
<path d="M6.03197 92.7253L0.204712 93.1343C0.306945 95.0767 0.511412 97.1214 0.81811 99.0638L6.54314 98.2459C6.4409 96.4057 6.23644 94.5655 6.03197 92.7253Z" fill="white" fill-opacity="0.9"/>
<path d="M14.8238 49.89L9.71219 47.2319C8.79209 48.9699 7.97423 50.8101 7.15637 52.548L12.4725 54.7972C13.2903 53.1615 14.006 51.4235 14.8238 49.89Z" fill="white"/>
<path d="M7.56548 103.664L1.84045 104.89C2.24938 106.833 2.76055 108.775 3.27171 110.615L8.89451 109.082C8.38334 107.242 7.97441 105.504 7.56548 103.664Z" fill="white" fill-opacity="0.86"/>
<path d="M7.56547 70.6426L1.84044 69.5181C1.43151 71.4605 1.12481 73.4029 0.818115 75.3453L6.54314 76.0609C6.84984 74.323 7.15654 72.4828 7.56547 70.6426Z" fill="white" fill-opacity="0.98"/>
<path d="M20.6512 40.382L15.9484 37.0083C14.8239 38.644 13.6993 40.2798 12.677 42.0177L17.6864 44.9825C18.5043 43.449 19.6288 41.9155 20.6512 40.382Z" fill="white"/>
<path d="M10.5301 60.0108L5.11173 58.0684C4.49834 59.9085 3.88494 61.851 3.37378 63.6912L8.99657 65.2246C9.30327 63.4867 9.91667 61.7487 10.5301 60.0108Z" fill="white"/>
<path d="M6.03173 81.6836L0.204466 81.2747C0.102233 83.1148 0 85.0573 0 86.9997L0 87.2041L5.82726 86.9997C5.92949 85.1595 5.92949 83.4215 6.03173 81.6836Z" fill="white" fill-opacity="0.94"/>
<path d="M10.632 114.296L5.21362 116.239C5.82702 118.079 6.64488 119.919 7.36051 121.759L12.6766 119.408C11.8587 117.772 11.2453 116.034 10.632 114.296Z" fill="white" fill-opacity="0.82"/>
<path d="M27.6026 31.795L23.4111 27.8079C22.0821 29.2391 20.753 30.7726 19.5262 32.3061L24.0245 35.9865C25.149 34.5552 26.2736 33.124 27.6026 31.795Z" fill="white"/>
<path d="M75.7545 6.64544L74.9366 0.92041C72.9942 1.12488 71.0518 1.53381 69.1094 1.94274L70.3362 7.66777C72.0741 7.25884 73.9143 6.95214 75.7545 6.64544Z" fill="white"/>
<path d="M86.7955 5.82724V0C84.853 0 82.8084 0.102214 80.866 0.204447L81.2749 6.03172C83.0129 5.92949 84.853 5.82724 86.7955 5.82724Z" fill="white"/>
<path d="M64.9179 8.89452L63.2822 3.27173C61.442 3.78289 59.4996 4.39631 57.6594 5.11193L59.6018 10.5303C61.3398 10.0191 63.0778 9.40569 64.9179 8.89452Z" fill="white"/>
<path d="M35.6793 24.2287L31.999 19.7305C30.4655 20.9573 28.932 22.2863 27.5007 23.6153L31.4878 27.8068C32.8168 26.58 34.2481 25.3533 35.6793 24.2287Z" fill="white"/>
<path d="M54.4898 12.6767L52.1385 7.3606C50.4005 8.17846 48.5603 8.99632 46.8224 9.91641L49.4804 15.028C51.1162 14.2102 52.7519 13.3923 54.4898 12.6767Z" fill="white"/>
<path d="M44.6757 17.7883L41.6087 12.8811C39.973 13.9034 38.235 15.028 36.7015 16.1525L40.0752 20.8552C41.6087 19.7307 43.1422 18.7084 44.6757 17.7883Z" fill="white"/>
<path d="M119.408 161.426L121.759 166.742C123.599 165.924 125.337 165.106 127.075 164.186L124.417 159.074C122.782 159.892 121.044 160.71 119.408 161.426Z" fill="white" fill-opacity="0.32"/>
<path d="M146.295 142.308L150.486 146.295C151.815 144.864 153.144 143.33 154.371 141.797L149.873 138.116C148.851 139.65 147.522 140.979 146.295 142.308Z" fill="white" fill-opacity="0.2"/>
<path d="M138.219 149.873L141.899 154.372C143.432 153.145 144.966 151.816 146.397 150.487L142.41 146.295C141.081 147.522 139.65 148.749 138.219 149.873Z" fill="white" fill-opacity="0.24"/>
<path d="M153.349 133.72L158.052 137.094C159.176 135.458 160.301 133.822 161.323 132.084L156.314 129.12C155.394 130.755 154.371 132.289 153.349 133.72Z" fill="white" fill-opacity="0.16"/>
<path d="M129.222 156.314L132.187 161.323C133.823 160.301 135.561 159.176 137.196 158.052L133.823 153.349C132.289 154.371 130.756 155.292 129.222 156.314Z" fill="white" fill-opacity="0.28"/>
<path d="M108.98 165.105L110.514 170.728C112.354 170.217 114.296 169.604 116.136 168.888L114.194 163.47C112.558 164.083 110.718 164.594 108.98 165.105Z" fill="white" fill-opacity="0.36"/>
<path d="M166.435 103.562L172.16 104.686C172.569 102.744 172.876 100.801 173.182 98.8589L167.457 98.041C167.151 99.8812 166.844 101.721 166.435 103.562Z" fill="white" fill-opacity="0.04"/>
<path d="M163.47 114.194L168.888 116.136C169.502 114.296 170.115 112.354 170.729 110.513L165.106 108.98C164.697 110.616 164.083 112.456 163.47 114.194Z" fill="white" fill-opacity="0.08"/>
<path d="M159.074 124.315L164.185 126.973C165.106 125.235 165.923 123.395 166.741 121.657L161.425 119.305C160.71 121.043 159.892 122.679 159.074 124.315Z" fill="white" fill-opacity="0.12"/>
<path d="M15.0284 124.417L9.91675 127.076C10.8368 128.813 11.7569 130.551 12.8815 132.187L17.8909 129.222C16.7663 127.689 15.8462 126.053 15.0284 124.417Z" fill="white" fill-opacity="0.78"/>
<path d="M32.3055 154.474C33.839 155.7 35.3725 156.927 37.0082 158.052L40.3819 153.349C38.8484 152.327 37.4172 151.202 35.9859 149.975L32.3055 154.474Z" fill="white" fill-opacity="0.66"/>
<path d="M52.4453 166.741C54.2855 167.559 56.1257 168.275 57.9659 168.888L59.9083 163.47C58.1703 162.857 56.4324 162.141 54.7967 161.425L52.4453 166.741Z" fill="white" fill-opacity="0.58"/>
<path d="M41.9152 161.323C43.6531 162.346 45.3911 163.266 47.129 164.186L49.7871 159.074C48.1514 158.256 46.5156 157.336 44.9821 156.314L41.9152 161.323Z" fill="white" fill-opacity="0.62"/>
<path d="M23.5135 146.397C24.8426 147.829 26.2738 149.26 27.7051 150.589L31.6922 146.397C30.3631 145.17 29.0341 143.841 27.8073 142.512L23.5135 146.397Z" fill="white" fill-opacity="0.7"/>
<path d="M20.8553 133.925L16.1526 137.298C17.2771 138.934 18.5039 140.468 19.7307 142.001L24.229 138.321C23.0022 136.89 21.8776 135.356 20.8553 133.925Z" fill="white" fill-opacity="0.74"/>
<path d="M98.1434 167.355L98.9613 173.08C100.904 172.875 102.846 172.466 104.789 172.058L103.664 166.333C101.824 166.741 99.9836 167.15 98.1434 167.355Z" fill="white" fill-opacity="0.42"/>
<path d="M75.243 173.08C77.1855 173.284 79.1279 173.591 81.1725 173.693L81.5815 167.866C79.7413 167.764 77.9011 167.559 76.0609 167.355L75.243 173.08Z" fill="white" fill-opacity="0.5"/>
<path d="M87.1024 168.173V174C89.0448 174 91.0895 173.898 93.0319 173.796L92.623 167.968C90.7828 168.07 88.9426 168.173 87.1024 168.173Z" fill="white" fill-opacity="0.46"/>
<path d="M63.691 170.729C65.6335 171.24 67.5759 171.751 69.4161 172.16L70.5406 166.435C68.7004 166.026 66.9625 165.617 65.2245 165.106L63.691 170.729Z" fill="white" fill-opacity="0.54"/>
<path d="M164.595 57.8636C166.844 60.1127 166.844 63.7931 164.595 66.0422C162.346 68.2913 158.665 68.2913 156.416 66.0422L152.327 61.9529L146.193 72.1761L143.841 69.8248C142.717 68.7002 142.103 67.2689 142.103 65.7355V51.7296L127.791 37.3148L117.568 63.8953L115.114 61.4417C112.763 59.0904 111.536 55.8189 111.74 52.5475L113.478 22.9L103.255 12.6767C101.006 10.4276 101.006 6.74724 103.255 4.49812C105.504 2.249 109.185 2.249 111.434 4.49812L121.657 14.7214L151.304 12.9834C154.576 12.7789 157.847 14.0058 160.199 16.3571L162.652 18.8107L135.97 29.0339L150.282 43.3465H164.288C165.821 43.3465 167.253 43.9599 168.377 45.0845L170.729 47.4358L160.505 53.5698L164.595 57.8636Z" fill="white"/>
</svg>
