<svg width="170" height="53" viewBox="0 0 170 53" fill="none" xmlns="http://www.w3.org/2000/svg">
<path d="M155.327 40.839V39.012L158.54 38.592V21.078L155.495 20.322V18.369L161.753 17.466H162.005L162.908 18.18V38.613L166.079 39.012V40.839H155.327ZM160.451 13.959C159.597 13.959 158.939 13.7 158.477 13.182C158.029 12.65 157.805 12.006 157.805 11.25C157.805 10.424 158.057 9.70297 158.561 9.08697C159.065 8.45697 159.8 8.14197 160.766 8.14197H160.808C161.662 8.14197 162.313 8.40097 162.761 8.91897C163.223 9.42297 163.454 10.06 163.454 10.83C163.454 11.656 163.202 12.384 162.698 13.014C162.194 13.644 161.459 13.959 160.493 13.959H160.451Z" fill="white"/>
<path d="M141.456 40.86V39.012L144.858 38.592V20.511H141.162L141.141 18.789L144.858 17.991V15.849C144.858 14.449 145.124 13.154 145.656 11.964C146.188 10.76 146.902 9.71 147.798 8.814C148.708 7.918 149.737 7.225 150.885 6.735C152.033 6.245 153.216 6 154.434 6C155.078 6 155.582 6.042 155.946 6.126C156.31 6.196 156.604 6.273 156.828 6.357L156.807 10.221C156.555 10.011 156.086 9.822 155.4 9.654C154.728 9.486 153.93 9.409 153.006 9.423C152.124 9.409 151.403 9.542 150.843 9.822C150.283 10.102 149.87 10.571 149.604 11.229C149.338 11.873 149.205 12.762 149.205 13.896V17.949H154.665V20.511H149.205V38.634L153.594 39.012V40.86H141.456Z" fill="#D6EDFF"/>
<path d="M129.751 40.839V39.012L132.964 38.592V21.078L129.919 20.322V18.369L136.177 17.466H136.429L137.332 18.18V38.613L140.503 39.012V40.839H129.751ZM134.875 13.959C134.021 13.959 133.363 13.7 132.901 13.182C132.453 12.65 132.229 12.006 132.229 11.25C132.229 10.424 132.481 9.70297 132.985 9.08697C133.489 8.45697 134.224 8.14197 135.19 8.14197H135.232C136.086 8.14197 136.737 8.40097 137.185 8.91897C137.647 9.42297 137.878 10.06 137.878 10.83C137.878 11.656 137.626 12.384 137.122 13.014C136.618 13.644 135.883 13.959 134.917 13.959H134.875Z" fill="#D6EDFF"/>
<path d="M121.882 41.259C120.426 41.259 119.299 40.923 118.501 40.251C117.703 39.565 117.304 38.333 117.304 36.555V20.49H114.343V18.768C114.609 18.684 114.903 18.6 115.225 18.516C115.561 18.432 115.876 18.348 116.17 18.264C116.464 18.166 116.681 18.068 116.821 17.97C116.989 17.858 117.136 17.732 117.262 17.592C117.388 17.438 117.5 17.263 117.598 17.067C117.71 16.871 117.815 16.64 117.913 16.374C118.039 16.038 118.186 15.576 118.354 14.988C118.536 14.4 118.704 13.812 118.858 13.224C119.026 12.622 119.152 12.146 119.236 11.796H121.609L121.672 17.949H128.161V20.49H121.672V33.846C121.672 35.218 121.728 36.219 121.84 36.849C121.966 37.479 122.19 37.885 122.512 38.067C122.848 38.235 123.338 38.319 123.982 38.319C124.71 38.319 125.494 38.221 126.334 38.025C127.188 37.815 127.832 37.605 128.266 37.395L128.875 39.117C128.455 39.439 127.874 39.768 127.132 40.104C126.39 40.426 125.557 40.699 124.633 40.923C123.723 41.147 122.806 41.259 121.882 41.259Z" fill="white"/>
<path d="M105.812 41.301C103.53 41.301 101.619 40.797 100.079 39.789C98.5531 38.767 97.3981 37.374 96.6141 35.61C95.8441 33.846 95.4591 31.851 95.4591 29.625C95.4451 27.917 95.6901 26.321 96.1941 24.837C96.7121 23.339 97.4611 22.03 98.4411 20.91C99.4211 19.776 100.632 18.894 102.074 18.264C103.516 17.62 105.168 17.298 107.03 17.298C107.968 17.298 108.836 17.382 109.634 17.55C110.432 17.718 111.132 17.9 111.734 18.096C112.336 18.292 112.826 18.453 113.204 18.579L112.994 24.879H110.369L109.445 20.637C109.403 20.413 109.228 20.203 108.92 20.007C108.612 19.811 108.227 19.657 107.765 19.545C107.317 19.419 106.827 19.356 106.295 19.356C105.105 19.356 104.048 19.699 103.124 20.385C102.2 21.071 101.472 22.093 100.94 23.451C100.422 24.795 100.156 26.461 100.142 28.449C100.128 30.143 100.282 31.627 100.604 32.901C100.94 34.161 101.409 35.211 102.011 36.051C102.613 36.891 103.327 37.521 104.153 37.941C104.979 38.361 105.882 38.571 106.862 38.571C107.688 38.571 108.472 38.48 109.214 38.298C109.956 38.116 110.628 37.885 111.23 37.605C111.846 37.325 112.357 37.045 112.763 36.765L113.498 38.319C113.036 38.781 112.406 39.243 111.608 39.705C110.81 40.167 109.907 40.545 108.899 40.839C107.905 41.147 106.876 41.301 105.812 41.301Z" fill="white"/>
<path d="M84.8576 41.301C82.5616 41.301 80.6506 40.804 79.1246 39.81C77.5986 38.802 76.4506 37.402 75.6806 35.61C74.9246 33.818 74.5466 31.746 74.5466 29.394C74.5466 27.546 74.8126 25.88 75.3446 24.396C75.8906 22.912 76.6466 21.645 77.6126 20.595C78.5926 19.531 79.7336 18.719 81.0356 18.159C82.3376 17.599 83.7516 17.319 85.2776 17.319C87.8676 17.319 89.8766 18.026 91.3046 19.44C92.7466 20.854 93.5096 22.891 93.5936 25.551C93.5936 26.405 93.5726 27.14 93.5306 27.756C93.4886 28.358 93.4186 28.883 93.3206 29.331H79.1666C79.1806 30.675 79.3346 31.914 79.6286 33.048C79.9366 34.168 80.3776 35.141 80.9516 35.967C81.5396 36.793 82.2606 37.437 83.1146 37.899C83.9826 38.361 84.9906 38.592 86.1386 38.592C87.3006 38.592 88.4626 38.389 89.6246 37.983C90.8006 37.563 91.7036 37.101 92.3336 36.597L93.0896 38.256C92.5996 38.774 91.9206 39.264 91.0526 39.726C90.1846 40.188 89.2116 40.566 88.1336 40.86C87.0696 41.154 85.9776 41.301 84.8576 41.301ZM79.1876 27.378L89.0156 27.294C89.0436 27.028 89.0646 26.72 89.0786 26.37C89.1066 26.02 89.1206 25.705 89.1206 25.425C89.1206 23.647 88.7776 22.205 88.0916 21.099C87.4056 19.993 86.2576 19.44 84.6476 19.44C83.8636 19.44 83.1496 19.587 82.5056 19.881C81.8756 20.175 81.3156 20.637 80.8256 21.267C80.3496 21.897 79.9716 22.716 79.6916 23.724C79.4116 24.732 79.2436 25.95 79.1876 27.378Z" fill="white"/>
<path d="M49.1997 50.877V49.05L52.1187 48.546V21.078L49.1577 20.322V18.348L54.9747 17.466H55.2267L56.0457 18.159L56.0247 20.658C56.4447 20.168 56.9907 19.664 57.6627 19.146C58.3487 18.628 59.1537 18.194 60.0777 17.844C61.0017 17.494 62.0237 17.319 63.1437 17.319C64.7677 17.319 66.2587 17.711 67.6167 18.495C68.9747 19.279 70.0667 20.504 70.8927 22.17C71.7187 23.822 72.1317 25.95 72.1317 28.554C72.1317 30.332 71.8587 31.991 71.3127 33.531C70.7667 35.071 69.9757 36.429 68.9397 37.605C67.9177 38.767 66.6857 39.677 65.2437 40.335C63.8157 40.979 62.2127 41.301 60.4347 41.301C59.7067 41.301 58.9507 41.238 58.1667 41.112C57.3967 41 56.7807 40.853 56.3187 40.671L56.4027 44.178V48.546L60.5397 49.05V50.877H49.1997ZM60.4767 39.306C61.8207 39.306 63.0107 38.949 64.0467 38.235C65.0967 37.521 65.9227 36.415 66.5247 34.917C67.1267 33.419 67.4277 31.487 67.4277 29.121C67.4277 27.525 67.2737 26.153 66.9657 25.005C66.6577 23.843 66.2307 22.898 65.6847 22.17C65.1387 21.428 64.5087 20.889 63.7947 20.553C63.0807 20.203 62.3177 20.028 61.5057 20.028C60.7077 20.028 59.9727 20.154 59.3007 20.406C58.6427 20.644 58.0617 20.938 57.5577 21.288C57.0677 21.624 56.6827 21.953 56.4027 22.275V37.941C56.6267 38.263 57.1097 38.571 57.8517 38.865C58.6077 39.159 59.4827 39.306 60.4767 39.306Z" fill="white"/>
<path d="M27.6211 38.571L34.6351 29.52L27.6421 20.238L25.5421 19.713V17.949H35.7691V19.713L32.9131 20.238L36.5671 25.572L37.8061 27.525L38.9191 25.635L42.8041 20.238L39.8641 19.713V17.949H48.1591V19.713L45.8281 20.238L39.1711 28.848L46.4161 38.613L48.6631 39.033V40.839H38.2471V39.033L40.9561 38.571L37.3021 33.069L35.9371 31.011L34.7401 32.985L30.8761 38.571L34.1941 39.033V40.839H25.1431V39.033L27.6211 38.571Z" fill="white"/>
<path d="M8.95898 38.7178L20.6143 38.2559L23.1133 32.6494L25.4648 33.3633L24.1211 40.8389H4V40.2324C4.29855 40.1614 4.55652 40.0707 4.7334 39.9453C5.72099 39.2451 6.33812 38.1342 6.41211 36.9258C6.45256 36.2657 6.55441 35.6014 6.72266 34.9395L6.79883 34.6553C7.23395 33.121 7.98492 31.7622 8.95898 30.626V38.7178ZM23.0918 16.1846H20.8027L19.291 11.9014L8.95898 11.6074V17.5361C7.32276 18.1625 5.78041 19.015 4.38086 20.0684V12.0273L1.04199 11.502V9.63281H22.4834L23.0918 16.1846Z" fill="white"/>
<path d="M19.624 20.8632C21.7896 21.4773 23.7009 22.549 25.2873 23.941L24.9353 25.1821C23.7656 24.4382 22.4703 23.8487 21.0685 23.4511C13.2729 21.2409 5.1612 25.7685 2.95046 33.5638C2.656 34.6023 2.48293 35.6469 2.41957 36.6818L1.00464 36.2806C0.849411 34.5451 1.00224 32.7523 1.50596 30.9759C3.7166 23.1803 11.8282 18.6527 19.624 20.8632Z" fill="white"/>
</svg>
