<svg width="26" height="33" viewBox="0 0 26 33" fill="none" xmlns="http://www.w3.org/2000/svg">
<path d="M8.88257 29.085L20.5378 28.623L23.0369 23.0166L25.3884 23.7305L24.0447 31.2061H3.92358V30.5996C4.22213 30.5285 4.4801 30.4379 4.65698 30.3125C5.64457 29.6122 6.2617 28.5014 6.33569 27.293C6.37614 26.6329 6.47799 25.9686 6.64624 25.3066L6.72241 25.0225C7.15753 23.4882 7.9085 22.1294 8.88257 20.9932V29.085ZM23.0154 6.55176H20.7263L19.2146 2.26855L8.88257 1.97461V7.90332C7.24635 8.52972 5.70399 9.38215 4.30444 10.4355V2.39453L0.965576 1.86914V0H22.407L23.0154 6.55176Z" fill="white"/>
<path d="M19.5476 11.2304C21.7132 11.8445 23.6245 12.9162 25.2109 14.3081L24.8589 15.5492C23.6892 14.8054 22.3939 14.2158 20.9921 13.8183C13.1965 11.6081 5.08478 16.1357 2.87404 23.931C2.57958 24.9695 2.40652 26.0141 2.34315 27.049L0.928226 26.6478C0.772995 24.9123 0.92582 23.1195 1.42955 21.3431C3.64019 13.5475 11.7518 9.01991 19.5476 11.2304Z" fill="white"/>
</svg>
