<svg width="221" height="221" viewBox="0 0 221 221" fill="none" xmlns="http://www.w3.org/2000/svg">
<g opacity="0.15" clip-path="url(#clip0_57_964)">
<path d="M166.126 10.0645C166.765 9.99742 167.49 9.94932 168.005 10.5363C168.175 10.7289 168.238 11.3502 168.214 11.6003C167.96 14.1752 167.689 16.7371 167.604 19.327C167.557 20.7167 167.456 22.0821 167.556 23.4716C167.983 29.3938 168.726 35.2901 169.347 41.1948C169.849 46.017 170.22 50.8522 170.455 55.6948C170.819 63.7346 170.76 71.9554 167.668 79.5187C166.259 82.9617 164.486 86.136 161.325 88.2271C162.736 91.028 164.185 93.81 165.671 96.5726C166.266 97.6938 167.555 99.8338 167.856 100.847C168.203 103.498 165.774 102.428 164.789 100.763C163.214 98.1029 161.758 95.3073 160.551 92.4521C159.958 91.0984 159.377 89.74 158.806 88.3772C156.92 87.7709 156.13 87.356 154.416 86.522C148.867 83.8206 140.775 76.311 139.22 70.3643C136.105 58.4548 142.781 37.2113 148.523 27.0159C151.824 21.1813 156.395 16.1635 161.898 12.3336C163.158 11.4666 164.65 10.4744 166.126 10.0645ZM139.882 56.3357L139.579 56.3955C139.231 57.1539 138.9 61.9834 139.239 62.8398L138.997 63.0066C139.039 68.1362 139.458 71.3332 142.592 75.5759C147.003 81.5446 151.863 84.9446 158.629 87.7992C157.759 86.2162 156.994 82.5526 156.056 81.912C156.218 81.7883 156.267 81.7846 156.456 81.6996L156.464 81.6091L156.717 81.862L156.882 81.7036L157.035 82.2049C158.91 88.3125 161.791 94.3231 164.722 100.006C165.134 100.805 166.326 102.324 167.373 101.965C167.541 101.739 167.664 101.437 167.539 101.158C165.016 95.5372 161.373 90.0578 159.049 84.3383C158.203 82.1948 157.501 79.9968 156.95 77.759C156.668 76.6628 156.257 75.0886 156.109 73.9865L156.09 73.8375C156.137 73.487 156.109 73.1376 156.174 72.6732L156.283 72.9105L156.728 72.9569C156.272 73.6909 156.623 74.8443 156.844 75.7036C157.314 77.5194 157.863 80.1144 158.553 81.8306L158.855 81.8718C158.489 82.8221 160.528 86.7128 161.134 87.7329C162.118 86.9275 163.159 86.0326 163.944 85.003C167.446 80.4075 169.073 74.1068 169.701 68.4275C169.912 66.521 169.873 64.68 170.07 62.7985L169.55 62.8021C170.32 60.9355 169.83 55.3992 169.721 53.0714C169.639 53.0289 169.475 52.8648 169.397 52.7936C170.014 51.7872 169.059 46.3988 169.102 44.6379C169.166 44.074 169.087 44.0927 168.827 43.6314C169.02 42.2882 168.241 37.0892 168.135 35.3382C166.831 36.872 165.529 38.5875 164.28 40.1784L164.014 39.965C164.865 38.8781 167.263 35.6775 168.07 34.9303C167.96 33.9275 167.328 27.1145 167.075 26.7758L166.624 26.7007C167.334 25.7851 166.972 24.012 166.925 22.8171C166.874 21.773 166.879 20.727 166.938 19.6834L166.385 19.7128C167.384 18.5685 166.956 16.7533 167.168 15.2602L166.938 14.9486C167.379 14.5372 167.792 11.5786 167.428 11.0918C166.594 11.3144 164.796 14.4878 164.28 15.3605L163.996 15.1584C165.16 13.2541 165.833 12.1913 167.188 10.4306C165.243 10.9399 163.696 11.7801 162.068 13.0213C161.728 13.2808 161.776 13.3632 161.755 13.7046C161.646 13.989 161.735 13.8814 161.456 14.0108L161.32 13.7063C160.617 13.7777 158.212 15.9762 157.698 16.5476C157.597 18.6248 158.137 24.63 159.096 26.1253C159.33 26.2715 159.249 26.171 159.344 26.4234L159.531 26.5806L159.57 26.8991L159.164 27.1392C159.042 26.975 159.052 26.9452 158.976 26.7489C157.756 24.9287 157.333 19.0742 157.331 16.7362C154.458 19.7174 152.418 21.8141 150.225 25.4009L150.158 25.8874L149.869 25.8762C148.665 28.0198 144.835 35.4028 144.532 37.6268L144.321 37.8792C143.777 39.5119 141.811 44.9191 141.805 46.3635L141.601 46.5897C141.214 48.0018 139.298 55.3217 139.827 56.2369L139.882 56.3357ZM154.786 44.9082C154.607 46.4322 154.246 49.9054 154.375 51.389L154.522 51.4366L154.904 51.1141L155.117 51.3049C154.841 51.5874 154.597 51.8287 154.306 52.0947C154.304 53.9804 154.371 55.568 154.443 57.4429C154.416 57.7999 154.422 57.8158 154.312 58.1521L154.294 58.0312L154.199 58.0619L153.921 57.4615C153.709 57.6727 153.764 57.583 153.677 57.8649C153.654 56.7849 153.796 52.3882 153.594 51.7888C153.704 51.6257 153.809 51.5371 153.962 51.4145L153.89 51.1718C153.948 48.9288 154.176 46.6933 154.568 44.4843L154.786 44.9082Z" fill="black"/>
<path d="M150.607 68.5027C151.059 68.6666 151.994 69.7624 152.298 70.1796C151.781 70.0886 150.831 68.9962 150.607 68.5027Z" fill="black" fill-opacity="0.0392157"/>
<path d="M153.282 50.237L153.398 50.1726L153.538 50.2331L153.655 50.9432C153.326 50.6177 153.429 50.7278 153.282 50.237Z" fill="black" fill-opacity="0.054902"/>
<path d="M168.827 43.6313C169.087 44.0927 169.166 44.074 169.102 44.6378L168.983 44.2886L168.828 44.2531C168.563 44.5478 168.147 45.3256 167.881 45.7328C167.208 46.7631 166.51 47.7771 165.788 48.774C163.187 52.3862 158.002 59.0418 154.847 61.99C154.976 64.2341 155.215 66.4706 155.559 68.692C155.697 69.6056 156.147 71.8688 156.174 72.6732C156.109 73.1375 156.137 73.487 156.09 73.8375C155.216 69.8759 154.719 66.0966 154.423 62.0618C154.33 60.8067 154.33 59.56 154.228 58.3392C153.954 59.8737 153.99 61.3699 154.089 62.9217C154.495 69.2597 155.104 75.579 156.882 81.7036L156.717 81.862L156.464 81.609C155.879 80.4448 154.928 75.0363 154.645 73.4799C150.64 70.2686 146.116 64.7043 142.791 60.7062C141.717 59.4145 140.715 57.7824 139.697 56.5397L139.579 56.3955L139.882 56.3357C140.027 56.4285 142.79 60.1691 143.157 60.6369C145.807 63.9562 148.616 67.145 151.575 70.1918C152.083 70.7129 154.103 72.7804 154.615 72.7873C154.633 72.5001 154.617 72.5944 154.576 72.3531C154.01 69.0965 153.856 65.3296 153.648 62.0272C152.881 61.3384 151.541 59.5781 150.866 58.7192C148.782 56.0267 146.717 53.3208 144.668 50.6017C143.847 49.5101 142.501 47.5318 141.601 46.5897L141.805 46.3635C142.271 46.7343 144.072 49.2578 144.572 49.9263C145.886 51.6822 147.212 53.4288 148.55 55.1659C149.548 56.4719 150.558 57.7674 151.584 59.052C152.164 59.7802 153.213 60.9965 153.622 61.7653C153.604 60.4594 153.644 59.17 153.677 57.8649C153.764 57.5829 153.709 57.6727 153.921 57.4614L154.199 58.0619L154.294 58.0312L154.312 58.1521C154.422 57.8158 154.416 57.7998 154.443 57.4429C154.66 57.8994 154.727 60.9625 154.745 61.6021C159.289 57.2206 163.353 51.5571 167.005 46.3919C167.633 45.5032 168.142 44.478 168.827 43.6313Z" fill="black" fill-opacity="0.945098"/>
<path d="M149.869 25.8761L150.158 25.8873L150.225 25.4009C151.151 30.2214 152.84 34.4675 155.695 38.4853C156.455 35.1649 157.807 29.9202 158.976 26.7489C159.052 26.9452 159.042 26.975 159.164 27.1392C159.111 27.561 158.529 29.2527 158.382 29.7214C157.466 32.6619 156.77 35.6272 155.999 38.6044C160.131 34.3685 163.01 31.6807 166.624 26.7007L167.075 26.7758C166.15 27.7794 165.292 29.1781 164.397 30.1933C161.909 33.0139 158.938 36.5393 156.018 38.8724C155.405 40.6294 155.23 43.0907 154.786 44.9081L154.568 44.4843C154.846 42.6219 155.241 40.7168 155.6 38.8637C153.406 36.2451 151.813 32.266 150.714 29.0051C150.433 28.1706 150.245 26.5694 149.869 25.8761Z" fill="black" fill-opacity="0.964706"/>
<path d="M139.239 62.8398C140.019 63.6622 140.723 65.1606 141.408 66.121C145.125 71.3446 149.377 76.3504 154.376 80.3953C154.833 80.7645 155.903 81.5884 156.456 81.6996C156.267 81.7847 156.218 81.7883 156.056 81.912C155.65 81.7785 154.562 80.9645 154.195 80.6657C149.461 76.8123 145.449 72.1524 141.805 67.2806C141.194 66.4647 139.344 63.3725 138.997 63.0067L139.239 62.8398Z" fill="black" fill-opacity="0.913725"/>
<path d="M169.397 52.7935C169.475 52.8647 169.639 53.0288 169.721 53.0712C169.295 53.4483 168.886 54.2479 168.591 54.7585C165.41 60.2867 161.984 65.7016 158.368 70.9559C158.097 71.35 157.039 72.782 156.728 72.9568L156.283 72.9104C158.123 71.5816 165.299 59.5291 167.004 56.8227C167.569 55.9248 168.739 53.6069 169.397 52.7935Z" fill="black" fill-opacity="0.941176"/>
<path d="M158.553 81.8305C161.812 78.7591 165.746 70.6413 167.838 66.5218C168.355 65.504 168.899 64.0541 169.457 62.9785L169.55 62.802L170.07 62.7983C169.701 63.0649 168.009 66.9061 167.641 67.7031C166.394 70.4005 160.898 80.7332 158.855 81.8717L158.553 81.8305Z" fill="black" fill-opacity="0.92549"/>
<path d="M154.568 44.4841L154.786 44.908C154.607 46.432 154.246 49.9052 154.375 51.3889L154.522 51.4365L154.904 51.1139L155.117 51.3047C154.841 51.5872 154.597 51.8285 154.306 52.0945C154.304 53.9802 154.371 55.5678 154.443 57.4427C154.416 57.7997 154.422 57.8157 154.312 58.1519L154.294 58.0311L154.199 58.0617L153.921 57.4613C153.709 57.6726 153.764 57.5828 153.677 57.8648C153.654 56.7847 153.796 52.388 153.594 51.7887C153.704 51.6255 153.809 51.5369 153.962 51.4143L153.89 51.1716C153.948 48.9286 154.176 46.6932 154.568 44.4841Z" fill="black"/>
<path d="M161.456 14.0107C161.735 13.8813 161.646 13.9889 161.755 13.7046C162.063 14.8395 162.337 16.8122 162.521 18.008C164.018 17.4451 165.699 15.5185 166.938 14.9486L167.168 15.2601C163.48 17.7987 161.851 18.7159 160.569 23.262C160.288 24.2608 159.694 25.4569 159.344 26.4233C159.249 26.1709 159.33 26.2715 159.096 26.1253C159.507 25.3337 160.076 23.6826 160.419 22.7959C160.974 21.3501 161.576 19.9228 162.223 18.5162C161.938 17.0157 161.789 15.5083 161.456 14.0107Z" fill="black" fill-opacity="0.976471"/>
<path d="M144.532 37.6267C145.792 39.0416 152.682 51.2855 153.805 51.3551L153.89 51.1717L153.962 51.4144C153.809 51.537 153.704 51.6256 153.594 51.7887C152.479 51.3175 145.664 39.6833 144.321 37.8791L144.532 37.6267Z" fill="black" fill-opacity="0.913725"/>
<path d="M154.904 51.1139C155.067 50.8333 157.341 48.2337 157.753 47.735C159.87 45.1691 161.957 42.5789 164.014 39.9648L164.28 40.1782C161.5 43.6712 158.13 48.0889 155.117 51.3047L154.904 51.1139Z" fill="black" fill-opacity="0.941176"/>
<path d="M159.531 26.5805C161.63 25.7183 164.898 21.5214 166.385 19.7127L166.938 19.6833C165.067 21.7543 162.225 25.8203 159.57 26.8991L159.531 26.5805Z" fill="black" fill-opacity="0.952941"/>
<path d="M164.28 15.3606C163.778 16.2159 163.49 16.7366 162.908 17.5585L162.87 17.4535C163.213 16.4402 163.437 16.0903 163.996 15.1584L164.28 15.3606Z" fill="black" fill-opacity="0.945098"/>
<path d="M47.2784 119.24C47.5199 119.245 47.787 119.283 48.015 119.364C50.2792 120.175 54.454 130.842 55.5868 133.273C60.1797 134.833 64.5707 137.625 68.0547 141.011C73.1687 145.98 75.9978 150.324 75.9472 157.71C75.8602 170.411 71.1471 185.374 64.8386 196.333C63.1849 199.205 60.3767 202.342 58.1325 204.645C56.6737 206.026 48.6647 213.574 46.3041 210.978C45.9253 210.562 46.4048 207.625 46.5044 206.779C47.369 200.175 46.4052 194.29 45.8034 187.729C44.5595 174.162 42.0859 159.45 45.383 146.041C46.4064 141.879 49.2628 135.631 53.0067 133.507C52.6137 132.417 51.8193 131.035 51.2629 129.963C49.7642 127.072 48.1912 124.198 46.7155 121.295C46.4661 120.806 46.267 120.304 46.4603 119.78C46.7578 119.428 46.8354 119.425 47.2784 119.24ZM60.2523 153.124L59.866 153.125C59.7604 152.555 59.6882 151.878 59.6335 151.299C59.3349 148.129 58.7446 145.122 58.0327 142.022C56.5502 135.805 53.6166 129.821 50.8896 124.055C50.2561 122.716 48.9208 119.986 47.5025 119.511C46.0908 119.776 47.4481 121.872 47.785 122.547C49.6029 126.195 51.8768 129.845 53.5135 133.558C53.3723 133.745 53.3486 133.813 53.1703 133.953C52.1422 134.821 51.2728 135.563 50.434 136.658C46.8183 141.372 45.1576 147.974 44.6168 153.831C44.5456 154.602 44.1964 158.354 44.4562 158.829L44.6797 159.074C44.0965 160.575 44.4095 167.102 44.7374 168.642L44.9312 168.802C44.5161 169.884 45.129 176.297 45.4116 177.633L45.6994 177.744C45.1836 178.887 46.0892 184.542 46.2121 186.242C46.2846 186.264 46.5181 186.33 46.576 186.36C46.4903 186.504 46.3316 186.763 46.3482 186.932C46.5756 189.223 46.8068 192.853 47.2486 195.001L47.4195 195.104L47.3675 195.411C47.194 196.103 47.4907 200.569 47.3926 201.997L47.7684 202.135C47.2839 202.772 47.0447 205.688 47.2706 206.375L47.3171 206.657C46.9432 207.454 46.5933 210.063 46.9335 210.904L47.2419 210.902L47.3272 210.986C48.6033 211.193 52.0271 209.162 52.7438 208.215L52.9335 208.062C53.6399 208.004 56.4544 205.601 56.7634 204.754L56.8894 204.576L57.0717 204.615L57.3057 204.61C58.7714 203.292 63.9531 197.625 64.0937 195.901L64.3321 195.614C65.24 195.54 69.7645 185.134 69.8063 183.992L70.1171 183.659C70.5572 182.038 72.7742 176.399 72.4936 175.136L72.7894 175.042C73.2214 173.678 74.8529 166.787 74.6322 165.521L74.593 165.311L74.7844 165.269C75.1129 164.158 75.5743 159.822 75.0339 158.761L75.2719 158.5L75.4016 158.245C75.2845 154.707 75.0542 151.462 73.2105 148.326C70.1824 143.177 65.7076 139.082 60.5595 136.11C58.9572 135.187 57.4495 134.616 55.7969 133.841C56.2473 134.902 56.6544 135.981 57.017 137.075C57.2851 137.877 57.5498 139.21 58.2139 139.687L57.9886 139.916C58.0191 140.198 58.3353 141.557 58.4492 141.83C58.9292 142.98 59.3897 147.926 60.061 148.538L59.7376 148.706C59.9599 149.827 60.1821 151.951 60.2523 153.124ZM59.7997 163.184C60.09 162.755 60.0166 161.659 60.0317 161.055C60.0786 161.887 60.1362 162.717 60.2046 163.547C60.4187 162.622 60.4043 161.889 60.4235 160.945C60.4654 160.878 60.6916 160.646 60.7594 160.574C60.739 163.606 60.6919 166.637 60.6183 169.667C60.9958 170.069 61.2745 170.345 61.5908 170.802L61.2496 170.909C60.9346 170.577 60.9244 170.44 60.5718 170.389C60.4171 170.814 60.5059 171.135 60.4197 171.593C60.1845 171.318 60.1836 171.238 60.0338 170.904C60.0225 170.608 59.9906 170.396 59.9495 170.106L59.745 169.881C60.4115 169.022 59.8395 164.493 59.7997 163.184Z" fill="black"/>
<path d="M53.5135 133.558C55.2441 136.697 55.9641 138.875 57.0072 142.231C58.317 147.233 59.2473 152.325 59.79 157.467C59.8959 158.521 60.0903 160.061 60.0317 161.055C60.0166 161.659 60.09 162.755 59.7997 163.184C59.7234 162.106 59.6659 161.138 59.6438 160.052C55.3784 164.221 51.6608 169.223 48.1758 174.057C47.8891 174.455 45.8801 177.601 45.6994 177.744L45.4116 177.633C46.1455 176.769 47.3638 174.519 48.2044 173.41C51.5255 169.027 55.5799 163.277 59.6144 159.64C59.3891 158.308 59.2742 156.481 59.1063 155.068C58.8483 152.899 58.3661 150.707 58.0989 148.592C54.6649 152.674 51.7344 157.784 48.9108 162.322C48.2809 163.334 45.4055 168.311 44.9312 168.802L44.7374 168.642C44.9848 168.373 47.1445 164.561 47.5365 163.905C49.2777 161.026 51.0567 158.169 52.8732 155.338C54.2904 153.136 56.2292 150.103 58.0119 148.238C57.3566 145.259 56.7701 142.77 55.8323 139.874C52.7944 142.606 48.8507 150.542 46.9911 154.236C46.3232 155.562 45.4545 157.881 44.6797 159.074L44.4562 158.829C44.9024 158.287 45.9355 155.502 46.3613 154.684C48.6394 150.308 52.2151 142.79 55.7162 139.473C55.3098 138.44 53.8523 134.523 53.1702 133.953C53.3486 133.813 53.3723 133.745 53.5135 133.558Z" fill="black" fill-opacity="0.952941"/>
<path d="M60.0338 170.904C60.1835 171.238 60.1845 171.318 60.4196 171.593C60.3388 174.804 59.5339 179.595 58.7756 182.74C61.1875 185.97 63.8212 191.612 64.332 195.614L64.0937 195.901C63.866 195.059 63.7651 194.303 63.5265 193.447C62.6777 190.45 61.4362 187.578 59.8343 184.906C59.5941 184.512 59.0565 183.526 58.6579 183.376C58.6072 183.552 58.6061 183.775 58.5803 183.869C57.6078 187.421 56.6745 191.511 55.3922 194.916C56.5353 196.859 57.128 202.365 57.0717 204.615L56.8894 204.576L56.7634 204.754C56.7598 200.545 56.1708 199.006 55.2691 195.134C54.6182 197.634 53.1928 200.813 52.1301 203.174C52.2872 204.072 52.9031 207.249 52.9335 208.062L52.7438 208.215C52.2687 207.191 52.2749 204.481 51.71 203.873C51.3398 204.517 51.0117 205.401 50.6105 206.127C49.6188 207.923 48.5546 209.363 47.3272 210.986L47.2419 210.902L46.9335 210.904C48.4852 209.363 50.5106 205.561 51.6357 203.541C50.651 204.326 48.336 206.304 47.3171 206.657L47.2706 206.375C47.8546 206.026 48.4276 205.487 48.9749 205.162C53.045 202.742 53.4413 199.161 55.1245 194.861C52.7958 196.278 51.1461 198.104 49.3981 200.169C48.9971 200.643 48.128 201.856 47.7684 202.135L47.3926 201.997C47.8179 201.753 48.7208 200.432 49.108 199.976C50.9492 197.803 52.5693 195.815 55.1632 194.545C56.1259 192.059 57.7897 185.88 58.3427 183.114C55.1078 186.53 51.5737 189.614 48.8176 193.51C48.3707 194.141 47.855 194.811 47.3675 195.411L47.4195 195.104L47.2486 195.001C48.0129 194.212 49.5298 192.018 50.4295 190.959C53.0653 187.858 55.5445 185.343 58.4629 182.539C59.2909 179.634 60.0766 173.875 60.0338 170.904Z" fill="black" fill-opacity="0.956863"/>
<path d="M57.0072 142.231C57.0705 142.183 57.1338 142.135 57.1971 142.087L57.2293 141.923L57.2915 142.119C57.6428 142.345 57.4557 142.287 57.8739 142.298L58.0327 142.022C58.7446 145.122 59.3349 148.129 59.6335 151.299C59.6882 151.878 59.7604 152.555 59.866 153.124C60.0625 155.618 60.3505 158.462 60.4235 160.945C60.4043 161.889 60.4187 162.622 60.2046 163.546C60.1362 162.717 60.0785 161.887 60.0317 161.055C60.0903 160.061 59.8959 158.521 59.79 157.467C59.2473 152.325 58.317 147.233 57.0072 142.231Z" fill="#958D99" fill-opacity="0.0156863"/>
<path d="M59.866 153.125L60.2523 153.124C60.4656 155.223 60.5239 157.648 60.7638 159.655C61.4884 160.223 63.0952 162.394 63.7418 163.223C65.9732 166.1 68.1763 168.999 70.3506 171.919C70.8001 172.523 72.3648 174.688 72.7894 175.042L72.4936 175.136C72.1973 175.056 70.9258 173.228 70.6057 172.8C68.6256 170.138 66.6189 167.495 64.5861 164.873C63.6466 163.673 61.883 161.616 61.0875 160.439L60.9826 160.282L60.8107 160.294L60.7594 160.574C60.6916 160.646 60.4654 160.878 60.4235 160.945C60.3505 158.462 60.0625 155.618 59.866 153.125Z" fill="black" fill-opacity="0.92549"/>
<path d="M58.2139 139.687C62.044 141.346 70.3194 151.101 72.7708 154.643C73.3876 155.533 74.7696 157.917 75.2719 158.5L75.0339 158.761C74.6882 158.396 73.0367 155.578 72.4627 154.776C69.5446 150.697 62.3919 142.186 57.9885 139.916L58.2139 139.687Z" fill="black" fill-opacity="0.917647"/>
<path d="M60.061 148.538C62.1323 149.574 69.9512 158.875 71.6642 161.026C72.4528 162.016 73.9645 164.158 74.7844 165.269L74.593 165.311L74.6322 165.521C74.6041 165.507 69.6541 158.946 69.0584 158.357C66.4651 155.79 62.8168 150.622 59.7375 148.706L60.061 148.538Z" fill="black" fill-opacity="0.921569"/>
<path d="M46.2121 186.242C46.7797 185.901 48.307 183.752 48.8153 183.133C50.5149 181.067 58.3429 170.773 59.745 169.881L59.9495 170.106C57.9882 172.093 46.8962 186.191 46.576 186.36C46.5181 186.33 46.2846 186.264 46.2121 186.242Z" fill="#030406" fill-opacity="0.92549"/>
<path d="M60.4235 160.945C60.4654 160.878 60.6916 160.646 60.7593 160.573C60.739 163.606 60.6919 166.637 60.6183 169.667C60.9958 170.069 61.2745 170.345 61.5908 170.802L61.2496 170.909C60.9346 170.577 60.9243 170.44 60.5718 170.389C60.4171 170.814 60.5059 171.135 60.4196 171.593C60.1845 171.318 60.1835 171.238 60.0338 170.904C60.0225 170.608 59.9906 170.395 59.9495 170.106L59.745 169.881C60.4114 169.022 59.8395 164.493 59.7997 163.184C60.09 162.754 60.0166 161.659 60.0317 161.055C60.0785 161.887 60.1362 162.717 60.2046 163.546C60.4187 162.622 60.4043 161.889 60.4235 160.945Z" fill="black"/>
<path d="M61.5908 170.802C61.9194 171.219 63.0762 172.94 63.2975 173.183C64.2472 174.227 69.6088 183.418 70.1171 183.659L69.8063 183.992C69.3308 183.44 68.0446 181.089 67.5174 180.265C65.5138 177.089 63.4238 173.969 61.2496 170.909L61.5908 170.802Z" fill="black" fill-opacity="0.92549"/>
<path d="M79.6838 77.689C80.3036 77.6545 80.922 77.7238 81.3159 78.2777C87.9153 87.546 97.4769 93.5357 105.981 100.861C113.445 107.289 121.653 113.894 126.743 122.472C129.09 126.429 131.708 132.691 130.503 137.271C131.556 137.72 133.299 138.22 134.426 138.563L140.568 140.421C141.535 140.716 145.325 141.453 144.8 142.806C144.035 144.784 141.099 143.541 139.695 143.074C136.48 142.161 132.097 140.403 128.946 139.16C122.385 142.441 114.639 143.242 107.432 141.988C99.693 140.643 94.0815 133.563 89.8915 127.332C87.1071 123.159 84.6465 118.778 82.5317 114.228C77.5877 103.648 75.1997 94.4572 77.3885 82.6864C77.7209 80.8991 78.1221 78.7326 79.6838 77.689ZM92.351 129.759C93.8965 129.937 95.4359 130.31 97.0424 130.49C102.769 131.135 109.133 131.672 114.884 131.297L114.875 131.041C114.207 130.537 106.488 124.239 106.635 124.276C102.337 123.842 98.0503 123.309 93.7769 122.678C91.7484 122.391 89.1895 122.091 87.2036 121.709C87.5979 123.086 91.3396 128.49 92.351 129.759ZM91.3671 106.088C89.8408 103.871 88.3756 100.982 87.0263 98.6449C86.5108 97.7522 85.8265 96.246 85.2893 95.4436C83.3988 94.5238 81.6103 93.4074 79.9535 92.113C79.414 91.697 77.4675 89.7319 77.166 89.607C77.2157 92.9291 77.283 97.5583 78.3315 100.725C81.7987 103.057 87.1943 105.629 91.3671 106.088ZM124.405 134.819C125.326 135.345 128.777 136.813 129.822 137.044C130.017 136.948 129.962 137.009 130.032 136.914C131.01 130.773 127.403 124.089 123.913 119.204C123.207 118.217 119.295 113.351 118.575 113.162C120.373 118.228 124.693 129.46 124.405 134.819ZM122.891 136.428C118.423 138.074 106.426 137.073 101.649 136.22C100.778 136.065 97.3431 135.215 96.9242 135.206C97.3163 135.749 98.2975 136.583 98.8304 137.05C101.826 139.672 104.197 140.89 108.126 141.532C114.331 142.515 120.686 141.854 126.556 139.615C127.013 139.422 127.77 139.13 128.184 138.902C126.767 138.274 124.101 136.893 122.891 136.428ZM91.3754 105.376L91.4619 105.544L91.6102 105.522C92.0443 104.338 91.4745 95.6167 91.3172 93.7808C91.2221 92.6703 90.8498 90.3729 90.6686 89.2177C89.2272 87.8804 87.6491 86.6315 86.3973 85.1164C86.2448 84.9317 86.2085 84.9045 86.0216 84.7599C86.2422 87.9608 87.1427 92.5452 85.8506 95.6082C87.5576 98.9386 89.4009 102.197 91.3754 105.376ZM104.659 100.624C106.024 105.467 107.582 118.495 107.503 123.265C107.495 123.752 114.726 129.044 116.238 130.062C115.917 126.588 115.184 122.981 114.383 119.585C113.322 115.094 112.395 110.442 110.96 106.07C110.801 105.588 105.073 100.753 104.659 100.624ZM112.892 128.219C111.307 126.984 108.062 124.656 106.742 123.27C106.44 122.945 105.226 122.032 104.765 121.644C105.034 122.142 105.905 122.939 106.337 123.325C108.47 125.226 110.636 127.09 112.835 128.916C113.383 129.291 114.057 129.848 114.582 130.27C120.858 135.301 127.843 138.675 135.436 141.206C138.079 142.086 140.571 143.217 143.395 143.547C143.983 143.327 144.464 143.151 144.52 142.473C144.297 142.097 144.186 142.044 143.754 141.89C138.373 139.966 132.779 138.672 127.444 136.609C122.151 134.561 117.487 131.5 112.892 128.219ZM122.127 136.32L122.332 136.215C122.205 136.003 116.369 132.122 115.562 131.566C110.908 132.128 97.2195 131.331 92.7587 130.059C92.7615 130.158 92.7643 130.256 92.7671 130.355C93.5135 131.395 95.3997 133.744 96.2263 134.494C96.3736 134.625 96.5288 134.75 96.6908 134.863L96.8268 134.881C98.3702 135.101 99.965 135.631 101.557 135.874C107.6 136.792 116.212 137.568 122.127 136.32ZM77.2528 89.1339C79.6204 91.5378 81.7797 93.3229 84.8381 94.8384L85.0325 94.7997C84.188 92.9859 83.3664 91.2493 82.6735 89.3642C82.4912 88.8679 82.041 87.6863 81.7182 87.3336C80.8674 86.4035 78.7667 85.0868 77.7672 84.431C77.4579 86.0126 77.3499 87.5324 77.2528 89.1339ZM82.141 85.6555C82.2804 84.0954 82.5523 82.6822 82.7658 81.14C82.194 80.3919 80.8779 78.2968 80.0917 78.1762C80.2944 79.7428 81.1273 84.9295 81.9283 86.1184C82.1633 85.9153 82.0624 86.0366 82.141 85.6555ZM79.5701 78.4179C78.4351 79.8353 78.2091 82.38 77.7236 84.0848C78.5384 84.4693 79.7503 85.3103 80.473 85.8778C80.7905 86.1246 81.1573 86.4712 81.5341 86.5494L81.688 86.4684C81.6323 86.3234 81.5252 86.1835 81.4936 86.1065C80.5502 83.8047 80.1927 81.2232 79.8308 78.7708C79.8077 78.6143 79.6832 78.5112 79.5701 78.4179ZM106.122 123.884C105.996 123.554 100.272 117.94 99.5385 117.1C95.7011 116.585 91.9661 115.749 88.1881 114.947C86.9213 114.678 83.9316 113.806 82.8619 113.729C84.1427 116.035 85.557 119.357 86.9847 121.44C88.2138 121.507 89.7952 121.76 91.0346 121.961C96.0536 122.774 101.084 123.269 106.122 123.884ZM91.9015 106.265C93.2625 108.362 94.5712 110.349 96.1241 112.323C97.2875 113.801 98.4312 114.931 99.7039 116.285C99.7909 114.822 99.4825 111.781 99.331 110.295C98.9765 106.912 98.603 103.532 98.2106 100.154C98.0211 98.4835 97.714 96.5378 97.6508 94.9034C97.0429 94.3397 91.5938 89.7751 91.0472 89.5933C91.8609 92.7898 92.3547 103.067 91.9015 106.265ZM83.0989 81.5353C82.8102 82.6192 82.3153 85.7781 82.3662 86.8416C82.4907 89.445 84.7629 92.7015 85.6086 95.105C86.6216 94.2066 86.0671 85.8813 85.4918 84.3737C85.3142 83.9082 83.5769 81.9522 83.0989 81.5353ZM78.3799 101.199C78.8626 103.839 81.4919 111.077 82.8271 113.357C88.5923 114.581 93.0108 115.745 99.0248 116.695C98.8601 116.257 97.8749 115.168 97.5244 114.76C95.2941 112.164 93.5629 109.234 91.5756 106.483C87.9143 105.818 84.3753 104.601 81.0799 102.872C80.162 102.391 79.2522 101.61 78.3799 101.199ZM111.6 106.458C111.618 107.214 112.5 110.063 112.708 110.984C113.624 115.034 114.708 119.052 115.496 123.137C115.93 125.387 116.514 127.922 116.568 130.214C117.848 131.384 122.511 133.918 124.143 134.688C123.5 128.107 121.513 122.161 119.317 115.941C119.065 115.228 118.194 112.851 117.777 112.347C116.094 110.31 113.64 108.333 111.678 106.511C111.652 106.493 111.625 106.476 111.6 106.458ZM97.9731 95.1259C98.6501 101.335 99.4847 107.521 99.9851 113.747C100.068 114.782 100.148 115.612 100.024 116.645C101.691 118.325 105.29 121.69 107.162 123.028C106.785 115.221 106.067 107.907 104.246 100.259C103.598 99.6166 98.6115 95.3948 97.9731 95.1259Z" fill="black" fill-opacity="0.984314"/>
<path d="M106.742 123.27C108.062 124.656 111.307 126.984 112.892 128.219L112.835 128.916C110.636 127.09 108.47 125.226 106.337 123.325L106.742 123.27Z" fill="#616063" fill-opacity="0.0313725"/>
<path d="M106.337 123.325C105.905 122.939 105.034 122.142 104.765 121.644C105.226 122.032 106.44 122.945 106.742 123.27L106.337 123.325Z" fill="#434446" fill-opacity="0.298039"/>
<path d="M88.4426 56.1308C85.8996 63.4839 79.6077 71.5314 72.5977 74.9313C62.4867 78.9897 48.3998 74.8588 38.6747 71.6093C29.0421 68.3908 20.4475 63.4699 14.1581 55.5559C13.0746 54.0931 7.19872 47.0566 11.6879 46.7931C11.9399 46.7783 14.2025 47.1292 14.7078 47.1849C21.8159 47.9689 28.3362 47.0724 35.4233 46.2843C42.1508 45.4929 48.9028 44.9267 55.6681 44.5866C62.3755 44.2957 69.1945 44.2558 75.7064 46.096C80.3709 47.4141 85.4549 49.5733 88.2257 53.7321C90.9569 52.425 93.6061 50.942 96.2796 49.524C96.6056 49.3511 97.1363 49.0542 97.461 48.9377L97.7294 49.1712C94.4266 50.9611 91.0919 52.6915 87.727 54.3615C87.7095 54.2074 87.7247 54.094 87.7326 53.9376C83.7207 47.7116 72.3354 45.3641 65.3797 45.1002C64.719 45.0752 63.3371 44.8444 62.814 45.1165L62.5453 45.3711C62.2683 45.2418 61.7461 45.0362 61.4568 45.035C60.2207 45.0299 53.7679 45.0222 53.1039 45.4477L52.8603 45.6509C51.4942 44.9595 45.8094 45.9181 44.0273 46.004C43.8685 46.2085 43.9684 46.1366 43.7303 46.2237C43.2136 46.0634 36.0499 46.7091 35.3494 46.9164L35.1621 47.0847C33.8499 46.8217 28.4954 47.8406 26.3096 47.7351C29.5179 49.8786 35.0436 54.6998 37.6152 57.606L37.2995 57.7107C33.857 54.0756 30.0693 50.7838 25.9897 47.882C23.5327 48.1465 21.7164 48.3109 19.2675 47.8789C21.0294 49.1987 26.2554 53.3144 26.7742 55.3037L26.5476 55.5552C26.4039 53.82 20.5039 49.2249 19.0019 48.0685C17.7535 47.9688 16.5029 47.8965 15.2513 47.8518L15.0049 48.0102C14.419 47.5992 11.5472 47.2249 10.7685 47.581L10.856 47.9486L10.6655 48.1178C10.3756 49.1335 12.7066 53.1197 13.5019 53.4021L13.5176 53.7147C14.1139 54.5914 15.8725 57.0545 16.7789 57.354C16.8155 57.5221 16.8576 57.6002 16.83 57.7497C18.9427 59.9409 22.786 63.5247 25.514 64.8261L25.7791 64.9401C26.7347 66.127 36.3565 70.4698 37.7806 70.4745L37.8789 70.653C39.2972 71.2373 45.1165 73.3371 46.3757 73.2291L46.5361 73.4704C48.121 73.8617 55.0667 75.7946 56.1913 75.1796L56.372 75.382C56.9807 75.8133 61.4048 75.9966 62.4334 75.9585C63.7671 75.0594 65.3783 74.1752 66.728 73.2291C70.6984 70.4462 79.4554 63.0599 81.6736 58.7599L81.602 58.5496C81.8199 58.4359 81.7441 58.5169 81.8465 58.3241L81.484 58.198C84.6134 57.6975 99.1126 51.3062 101.445 49.2571L101.921 48.8454L102.264 48.8096C100.698 51.0962 91.0734 55.1296 88.4426 56.1308ZM82.299 58.4544C78.8024 63.9554 73.2439 68.6935 68.0657 72.6219C66.7767 73.5998 64.6532 74.971 63.2146 75.8565C63.2018 75.9083 63.1889 75.9601 63.1761 76.0119C63.2541 76.0201 63.4039 76.0419 63.4752 76.0365C65.3745 75.8753 67.2327 75.9213 69.1174 75.4909C76.9033 73.7129 85.0519 64.2024 87.5768 56.8586L87.5197 56.6757L87.3602 56.6561C85.609 57.3316 84.0652 57.8511 82.299 58.4544Z" fill="black" fill-opacity="0.980392"/>
<path d="M65.4083 52.3706C65.9272 52.4881 67.1699 53.2887 67.5168 53.6556L67.5337 53.7669C67.1544 53.7744 65.6758 52.7048 65.4083 52.3706Z" fill="black" fill-opacity="0.105882"/>
<path d="M63.5517 51.3447C64.0226 51.3529 65.1115 51.9269 65.336 52.306L65.2193 52.3524C64.8244 52.2209 63.9388 51.5996 63.5517 51.3447Z" fill="black" fill-opacity="0.0941176"/>
<path d="M67.5337 53.7668C67.9612 53.9587 68.28 54.0579 68.6053 54.3944L68.6219 54.5017C68.2159 54.5071 67.8225 54.0652 67.5337 53.7668Z" fill="black" fill-opacity="0.0784314"/>
<path d="M62.5933 50.6072C62.8987 50.6799 63.2814 50.871 63.4827 51.1193L63.3227 51.1958C62.9379 51.07 62.8567 50.9148 62.5933 50.6072Z" fill="black" fill-opacity="0.0588235"/>
<path d="M60.6403 49.481C61.2513 49.5581 61.2337 49.6133 61.5483 50.0165C60.9922 50.0273 61.0289 49.8859 60.6403 49.481Z" fill="black" fill-opacity="0.0392157"/>
<path d="M62.8139 45.1167C63.8076 45.746 66.1418 46.629 67.339 47.2304C71.0545 49.0975 79.5298 53.3016 82.1701 56.3673C83.3549 56.0242 86.8495 54.6281 87.7326 53.9378C87.7247 54.0942 87.7095 54.2076 87.727 54.3617C82.2171 57.4908 74.1393 59.0526 67.9409 59.9671C66.3623 60.1999 64.1365 60.5123 62.5911 60.5302L62.2132 60.2121C65.7451 59.9826 69.5745 59.3395 73.0785 58.7857C72.1549 57.826 69.4545 55.9932 68.3184 55.2365C64.726 52.8684 61.088 50.5702 57.4065 48.3431C56.0746 47.5321 54.0475 46.5044 52.8603 45.6511L53.1039 45.4479C53.7262 45.9667 56.6171 47.4699 57.4838 48.0284C60.6371 50.0603 71.3364 56.2266 73.3075 58.6638C75.9555 58.3022 79.267 57.2527 81.8651 56.5892C78.7632 52.828 67.0431 47.4828 62.5453 45.3714L62.8139 45.1167Z" fill="#030406" fill-opacity="0.941176"/>
<path d="M10.6655 48.1178L10.856 47.9486L10.7685 47.5811C11.8894 48.545 16.1706 51.417 17.449 51.8599L17.5745 51.7758C17.2367 50.781 15.44 49.1628 15.0049 48.0102L15.2513 47.8518C15.6709 48.5477 18.1141 51.924 18.5822 52.2781C19.6086 53.0544 25.4238 55.521 26.5476 55.5552L26.7742 55.3038C27.2848 56.1266 28.8287 56.4009 29.75 56.6712C31.4631 57.1815 33.1875 57.6534 34.9218 58.0865C35.9628 58.3501 37.6693 58.7338 38.6495 59.0926C38.1959 58.6494 37.7035 58.195 37.2995 57.7107L37.6152 57.606C38.0715 58.079 38.5995 58.674 39.0489 59.1204L41.1453 59.5784C40.8434 59.5753 40.5718 59.5746 40.2684 59.5862L40.1602 59.7504C39.7336 59.6566 39.2468 59.5624 38.8337 59.437C36.5337 61.6869 28.9848 64.6882 25.7791 64.9401L25.514 64.8261C26.4434 64.5462 27.5716 64.3858 28.6199 64.0831C32.1451 63.0457 35.485 61.4596 38.5167 59.3833C34.6671 58.567 30.3764 57.2505 26.6304 56.0631C24.1841 57.1183 21.1956 57.5464 18.5539 57.6923C18.0716 57.719 17.1946 57.5787 16.83 57.7498C16.8576 57.6002 16.8155 57.5221 16.7789 57.354C17.0819 57.2773 17.3579 57.3371 17.6674 57.3365C19.7813 57.3317 21.8733 57.1086 23.9337 56.6319C24.4222 56.5189 25.489 56.2673 25.8416 55.9271C25.6249 55.5592 23.7061 55.003 23.152 54.7885C21.5355 54.1626 19.9721 53.4787 18.3927 52.767C17.0347 53.1699 14.7405 53.2511 13.5176 53.7147L13.5019 53.4022C14.3688 53.0145 17.0906 52.7246 18.1178 52.6042C16.4421 51.9197 14.4195 50.6179 12.879 49.6266C12.1847 49.1799 11.3675 48.4378 10.6655 48.1178Z" fill="black" fill-opacity="0.960784"/>
<path d="M81.484 58.198L81.8465 58.3241C81.7441 58.5169 81.8199 58.4359 81.602 58.5496C79.2901 59.5749 75.9138 59.7833 73.442 60.3737C70.5347 64.1778 60.4711 72.8872 56.3721 75.382L56.1913 75.1796C57.557 74.0587 59.5194 72.8306 61.1004 71.5587C64.5212 68.7993 67.7929 65.8599 70.9014 62.7529C71.677 61.9647 72.3764 61.1289 73.1417 60.3232C71.236 60.845 67.5096 60.9737 65.4271 61.1779C64.5948 61.2596 63.4907 61.2161 62.6274 61.3164C62.3487 61.3488 62.1617 61.4097 61.9431 61.587C58.8267 64.1156 55.6074 66.5703 52.4194 68.9801C51.5486 69.6382 47.0337 72.9084 46.5361 73.4704L46.3757 73.2291C46.5158 72.8962 49.1234 71.0814 49.5736 70.7467C53.6527 67.7471 57.6508 64.6389 61.5635 61.4255C60.5529 61.5117 59.5269 61.5391 58.5169 61.445L59.1011 61.2065C67.0452 60.401 73.5292 60.5036 81.484 58.198Z" fill="black" fill-opacity="0.937255"/>
<path d="M40.1602 59.7504L40.2684 59.5861C40.5718 59.5746 40.8435 59.5752 41.1453 59.5784C42.5162 59.7521 44.1561 60.1831 45.4832 60.3137C46.7961 60.4428 50.2967 60.8911 51.5448 60.6938L51.6126 60.5891L51.9895 60.6328C52.8679 60.9106 60.1419 60.4085 61.42 60.2698L61.7261 60.0469L62.2132 60.2119L62.5911 60.5299C61.9326 60.6287 59.0777 60.802 58.8051 61.0291L59.1011 61.2065L58.5169 61.445C56.6587 61.344 53.967 61.4104 52.043 61.4026C51.8577 61.4018 51.6356 61.5668 51.4819 61.6776C51.4534 61.6157 51.3876 61.3472 51.3672 61.2706C50.942 61.2155 50.3294 61.2275 49.8777 61.1938C46.5896 60.9493 43.3954 60.3791 40.1602 59.7504Z" fill="black"/>
<path d="M43.7303 46.2239C43.9684 46.1367 43.8685 46.2086 44.0273 46.0042C44.4095 46.4239 47.3587 48.198 48.0221 48.675C50.3337 50.3377 60.7287 58.1894 61.7261 60.047L61.42 60.2699C60.312 58.2677 50.0523 50.4834 47.6294 48.8167C46.9936 48.3795 43.913 46.43 43.7303 46.2239Z" fill="#030406" fill-opacity="0.917647"/>
<path d="M35.1621 47.0847L35.3494 46.9165C36.6706 48.0663 38.2802 49.2634 39.6749 50.3624C42.3414 52.4532 44.9866 54.5709 47.6101 56.7154C48.7269 57.6372 51.0963 59.5404 51.9895 60.6329L51.6126 60.5892L51.5448 60.6939C50.9893 59.883 48.6216 57.9659 47.7602 57.2572C45.0771 55.0508 42.3682 52.876 39.6341 50.7331C38.9842 50.2228 35.3166 47.4936 35.1621 47.0847Z" fill="black" fill-opacity="0.917647"/>
<path d="M51.3672 61.2708C51.3876 61.3474 51.4534 61.6158 51.4819 61.6777C50.704 62.8609 44.1986 66.556 42.6417 67.7361C41.3942 68.6818 39.1058 69.7054 37.8789 70.6531L37.7806 70.4746C38.0153 70.097 40.8421 68.5261 41.4004 68.1638C42.6349 67.363 50.8142 62.308 51.3672 61.2708Z" fill="black" fill-opacity="0.878431"/>
<path d="M133.286 164.918C133.936 162.709 134.86 161.059 135.955 159.116C138.907 153.88 145.916 146.68 151.825 145.282C163.802 142.448 185.582 149.277 195.694 155.361C201.22 158.655 205.95 163.131 209.541 168.469C210.245 169.51 213.296 173.755 210.442 174.389C209.795 174.534 208.509 174.21 207.779 174.143C203.729 173.773 199.619 173.523 195.561 173.931C186.143 174.846 177.41 176 167.879 176.551C156.961 177.182 143.438 177.185 134.8 169.258C134.264 168.765 133.924 167.977 133.314 167.559L133.099 167.267C134.131 166.843 135.414 166.063 136.575 165.578C139.86 164.207 145.194 162.515 148.678 162.11C148.919 162.243 148.978 162.3 149.244 162.364L148.666 162.514L148.421 162.603C146.597 162.638 141.677 164.131 139.793 164.718C144.261 168.769 150.54 171.744 155.929 174.394C156.847 174.845 159.21 175.975 160.154 176.118C162.386 176.454 166.49 175.743 168.557 175.991C168.769 175.748 168.67 175.831 169 175.715C169.946 175.975 176.266 175.341 177.642 175.237L177.733 174.853C177.94 174.942 178.328 175.099 178.535 175.083C179.817 174.988 185.382 174.539 186.262 174.23L186.296 174.103L186.496 174.101C187.308 174.321 193.684 173.508 195.124 173.408V172.99C196.043 173.481 197.532 173.192 198.611 173.137C199.754 173.085 200.897 173.078 202.04 173.117L202.148 172.784C203.226 173.499 205.041 173.243 206.43 173.404L206.559 173.075C207.09 173.542 210.105 174.004 210.54 173.699L210.538 173.491C209.408 171.885 205.594 170.358 204.02 169.136L204.066 168.968C205.727 169.31 209.737 172.209 211.19 173.286C210.644 170.948 209.738 169.862 208.431 167.821L208.158 167.675L208.15 167.468C207.495 166.605 205.836 164.242 204.954 163.865C204.889 163.743 204.859 163.6 204.818 163.463C203.142 161.563 198.465 157.42 196.186 156.395L195.857 156.227C195.321 155.256 185.148 150.714 183.979 150.754L183.77 150.646L183.769 150.474C182.265 149.98 176.689 147.975 175.37 147.977L175.128 148.018L175.084 147.851C174.081 147.335 166.733 145.694 165.535 145.945C165.426 145.893 165.349 145.817 165.249 145.738C164.404 145.343 160.678 145.307 159.609 145.25C159.414 145.241 158.955 145.428 158.761 145.515L158.501 145.298C157.716 144.853 152.827 145.574 151.802 145.899C143.618 148.494 136.887 157.031 133.941 164.763C135.133 164.17 139.16 162.939 139.629 162.43L139.908 162.501C140.107 162.57 142.539 161.994 142.847 161.884C144.171 161.41 147.625 161.276 148.552 160.515L148.692 160.804C151.28 160.401 153.913 160.262 156.524 160.031C157.561 159.938 158.515 159.967 159.582 159.834C160.036 159.34 160.57 158.946 161.098 158.529L161.385 158.737C160.875 159.157 160.394 159.566 159.849 159.942C163.113 159.581 166.369 159.871 169.634 159.79C169.794 159.786 170.041 159.636 170.176 159.544C170.256 159.698 170.277 159.786 170.393 159.898C174.553 160.149 178.585 160.944 182.675 161.673C182.916 161.716 183.155 161.546 183.346 161.422L183.388 161.728L183.433 161.969L183.282 162.046C183.045 161.891 183.073 161.89 182.791 161.837C182.575 162.011 182.633 161.899 182.574 162.154C180.396 161.532 172.209 160.086 170.169 160.553L169.789 160.66C169.001 160.237 163.469 160.728 162.264 160.838L162.009 160.731L161.941 160.448C161.428 159.997 157.452 160.398 156.502 160.43C143.768 160.868 131.759 165.164 120.782 171.45L120.805 170.993C122.749 170.013 124.341 169.001 126.418 168.03C128.113 167.237 131.93 165.757 133.286 164.918ZM154.033 175.958C155.643 176.046 157.601 176.202 159.189 176.237C153.565 173.434 144.054 169.388 139.565 164.91L139.368 164.881C138.183 165.303 135.052 166.439 134.174 167.201C134.113 167.42 134.065 167.428 134.266 167.701C137.386 171.93 143.717 174.137 148.495 175.162C150.321 175.551 152.171 175.817 154.033 175.958Z" fill="#030406" fill-opacity="0.988235"/>
<path d="M155.76 167.014C156.266 167.118 156.561 167.361 156.901 167.726C156.326 167.684 156.158 167.424 155.76 167.014Z" fill="black" fill-opacity="0.0901961"/>
<path d="M157.731 168.315C158.327 168.415 158.411 168.484 158.783 168.904C158.223 168.837 158.105 168.693 157.731 168.315Z" fill="black" fill-opacity="0.0588235"/>
<path d="M154.757 166.285C155.161 166.422 155.283 166.463 155.535 166.792L155.385 166.861C155.091 166.783 154.958 166.538 154.757 166.285Z" fill="black" fill-opacity="0.0666667"/>
<path d="M153.551 165.508C154.065 165.67 154.268 165.834 154.65 166.204C154.08 166.131 153.937 165.916 153.551 165.508Z" fill="black" fill-opacity="0.0509804"/>
<path d="M120.782 171.45C131.759 165.164 143.768 160.868 156.502 160.43C157.452 160.398 161.428 159.997 161.941 160.448C161.619 160.651 159.459 160.574 158.843 160.658C156.673 160.953 150.625 161.461 148.678 162.11C145.194 162.515 139.86 164.207 136.575 165.578C135.414 166.063 134.131 166.843 133.099 167.267C128.916 169.205 124.851 171.789 120.638 173.691C120.348 173.822 120.093 173.759 119.801 173.68C119.083 172.985 120.279 171.911 120.782 171.45Z" fill="#6F6D6F" fill-opacity="0.01"/>
<path d="M182.574 162.154C182.633 161.899 182.575 162.011 182.791 161.837C183.073 161.89 183.045 161.891 183.282 162.047L183.433 161.969C184.816 162.105 186.275 162.638 187.627 162.944C190.128 163.51 192.637 164.525 195.104 165.126C196.92 164.317 199.136 163.949 201.11 163.669C201.904 163.557 204.251 163.716 204.818 163.463C204.859 163.6 204.889 163.743 204.954 163.865C203.609 163.947 202.393 163.87 201.033 164.012C199.087 164.214 197.197 164.836 195.309 165.126C197.271 166.042 199.369 166.707 201.348 167.6C201.998 167.892 202.744 168.222 203.417 168.425C204.395 168.189 207.613 167.773 208.15 167.468L208.158 167.675L208.431 167.821L208.266 167.862C207.475 168.054 204.243 168.461 204.011 168.782L204.066 168.968L204.02 169.136L203.903 169.285C204.353 170.155 206.372 172.323 206.559 173.075L206.43 173.404C205.99 172.58 203.675 169.378 202.975 168.897C200.689 167.324 197.463 166.55 194.891 165.405C196.026 167.607 198.257 169.57 200.156 171.12C200.741 171.598 201.658 172.281 202.148 172.784L202.04 173.117C201.788 172.819 200.638 171.961 200.268 171.651C198.401 170.079 195.533 167.767 194.67 165.489C191.641 164.242 186.388 163.06 183.118 162.216C185.766 164.97 188.538 167.592 191.419 170.104C192.351 170.917 194.363 172.236 195.124 172.99V173.408C194.903 173.153 193.092 171.806 192.706 171.513C191.455 170.566 190.466 169.708 189.299 168.66C187.608 167.134 185.948 165.575 184.318 163.985C183.753 163.431 183.067 162.502 182.574 162.154Z" fill="black" fill-opacity="0.94902"/>
<path d="M148.678 162.11C150.625 161.461 156.673 160.954 158.843 160.658C159.459 160.574 161.619 160.651 161.941 160.448L162.009 160.731L162.265 160.838C161.516 160.966 160.755 161.003 159.998 160.948C163.517 164.138 166.257 166.599 170.125 169.509C171.502 170.552 172.9 171.566 174.319 172.552C174.926 172.968 177.399 174.479 177.733 174.853L177.642 175.238C177.122 174.683 174.615 173.173 173.806 172.597C170.121 169.965 166.55 167.179 163.101 164.246C162.13 163.41 160.468 161.992 159.724 160.999C156.091 161.297 152.813 161.782 149.244 162.364C148.978 162.3 148.919 162.243 148.678 162.11Z" fill="#030406" fill-opacity="0.945098"/>
<path d="M158.501 145.298L158.761 145.515L158.617 145.63C157.747 146.322 156.006 147.187 154.997 147.922C150.769 150.998 142.459 157.942 139.908 162.501L139.629 162.43C139.772 162.027 140.457 161.086 140.74 160.72C144.411 155.972 149.083 152.045 153.816 148.4C155.258 147.29 157.161 146.364 158.501 145.298Z" fill="black" fill-opacity="0.901961"/>
<path d="M148.421 162.603L148.666 162.514C153.157 166.206 158.46 169.206 163.379 172.297C164.247 172.842 168.613 175.33 169 175.715C168.67 175.831 168.769 175.748 168.557 175.991C168.325 175.454 164.471 173.324 163.65 172.827C159.738 170.507 155.898 168.07 152.132 165.519C151.235 164.906 148.984 163.41 148.421 162.603Z" fill="#030406" fill-opacity="0.92549"/>
<path d="M165.249 145.738C165.349 145.817 165.426 145.893 165.535 145.945C165.49 146.006 162.404 148.28 161.929 148.61C159.829 150.061 149.312 159.294 148.692 160.804L148.552 160.515C148.994 158.806 160.608 149.176 162.584 147.747C163.304 147.226 164.593 146.432 165.249 145.738Z" fill="#030406" fill-opacity="0.913725"/>
<path d="M169.789 160.66L170.169 160.553C171.03 162.499 185.967 172.901 186.496 174.101L186.296 174.103L186.262 174.23C185.222 173.255 182.846 171.503 181.653 170.565C178.877 168.393 176.129 166.185 173.408 163.944C172.62 163.293 170.315 161.44 169.789 160.66Z" fill="black" fill-opacity="0.905882"/>
<path d="M133.099 167.267L133.314 167.559C129.124 169.441 125.032 172.065 120.87 174.04C120.529 174.202 120.158 174.294 119.786 174.201C118.365 173.182 119.913 171.668 120.805 170.993L120.782 171.45C120.279 171.911 119.083 172.985 119.801 173.68C120.093 173.759 120.348 173.822 120.638 173.691C124.851 171.789 128.916 169.205 133.099 167.267Z" fill="#030406" fill-opacity="0.941176"/>
<path d="M175.084 147.851L175.128 148.018L175.37 147.977C174.713 148.641 171.692 150.773 170.796 151.446C167.614 153.818 164.477 156.248 161.385 158.737L161.098 158.529C161.909 157.728 164.573 155.776 165.578 155.013L175.084 147.851Z" fill="black" fill-opacity="0.917647"/>
<path d="M183.769 150.474L183.77 150.646L183.979 150.754C183.572 151.081 182.986 151.388 182.608 151.62C180.971 152.62 170.648 158.92 170.393 159.898C170.277 159.786 170.256 159.698 170.176 159.544C170.648 158.558 180.942 152.368 182.472 151.36C182.845 151.114 183.348 150.851 183.769 150.474Z" fill="black" fill-opacity="0.905882"/>
<path d="M183.346 161.422C183.367 161.385 183.39 161.347 183.412 161.311C185.963 159.271 192.984 156.405 195.857 156.227L196.186 156.395C195.044 156.686 193.732 156.921 192.625 157.255C190.224 157.981 185.16 160.139 183.388 161.728L183.346 161.422Z" fill="black" fill-opacity="0.937255"/>
<path d="M97.461 48.9379C98.7535 48.2005 103.064 45.1256 102.264 48.8098L101.92 48.8456C102.04 48.3945 102.132 48.2284 102.012 47.8C101.186 46.832 98.7609 48.7296 97.7294 49.1714L97.461 48.9379Z" fill="#030406"/>
<path d="M1.77894 0H2.14529C2.42708 1.70359 3.04402 3.99315 3.45981 5.73314C4.12809 8.47713 4.7313 11.2366 5.26889 14.0091C5.60911 15.7329 6.05245 18.0368 6.0562 19.7778C8.47725 21.3434 10.9965 22.9715 13.6202 24.1831C13.0892 17.0475 10.1081 8.65876 7.41061 2.02346C7.22096 1.55696 5.97953 0.42422 5.55555 0H6.41959C8.17956 1.84599 10.2089 3.81654 11.838 5.75051C16.1074 10.8194 21.6466 19.9811 20.0138 26.7618L20.1506 26.8224C21.1169 27.2432 22.7575 27.7058 23.8146 28.0305L30.1254 29.9441C31.2165 30.2738 32.5225 30.5932 33.5415 31.0653C35.3793 31.9166 33.9643 33.0986 32.7396 33.4924C28.7096 32.7377 22.4099 30.1962 18.3919 28.6593C13.1806 31.3815 5.84834 32.5271 0 31.9429V31.2726C3.83898 32.1132 14.0352 30.6047 17.3987 28.4896L17.3517 28.3468C16.9198 28.0387 13.0376 26.2175 12.4363 25.9749C9.10425 26.8541 3.48406 26.9617 0 26.6802V26.319C2.01899 26.3891 10.4553 26.6621 11.8335 25.654C11.5556 25.3811 9.25749 23.9465 8.77241 23.6297C7.5055 22.7967 6.25829 21.9339 5.03181 21.0424C3.73108 21.2739 1.40046 21.2866 0 21.33V20.9153C1.57519 20.9165 3.15006 20.8706 4.72248 20.7771C3.03528 19.5963 1.62093 18.2688 0 17.0919V16.4895L0.933521 17.235C5.76467 21.2995 11.1276 25.0319 16.9123 27.6126C19.8462 28.858 22.8535 29.9467 25.8478 31.0378C26.7941 31.3826 27.8623 31.798 28.8232 32.0663C30.097 32.4217 32.7443 33.5759 33.8595 32.5465C34.035 32.2099 33.9988 32.1802 33.959 31.8068C33.6589 31.5181 33.2628 31.3589 32.8686 31.225C27.7894 29.4996 22.4273 28.1895 17.4223 26.2811C13.5192 24.7678 9.80041 22.8162 6.33753 20.4639C5.32642 19.7854 2.61417 17.7522 1.83253 17.3177C1.21825 16.83 0.607396 16.3379 0 15.8416V15.4082C1.45244 16.385 4.41934 18.5758 5.7978 19.6647C5.71131 19.1728 5.6591 18.6809 5.59524 18.1853C5.01999 13.7223 3.93785 9.31269 2.90959 4.9366C2.52248 3.28911 2.10662 1.65776 1.77894 0ZM13.9156 24.3521C14.7347 24.7642 18.8214 26.6157 19.5113 26.5189C20.5477 20.5286 17.0809 13.956 13.7288 9.1497C12.9954 8.09814 8.97824 3.0591 8.12739 2.67184C8.19217 3.21416 9.5551 6.39877 9.83096 7.26192C11.217 11.5988 14.0927 19.9192 13.9156 24.3521Z" fill="black"/>
<path d="M12.8348 23.1599C13.1143 23.3007 13.1319 23.2801 13.3063 23.5306L13.169 23.6354L13.0534 23.6525C12.8135 23.4222 12.9165 23.5534 12.8348 23.1599Z" fill="#030406" fill-opacity="0.0392157"/>
<path d="M195.341 214.2C195.6 214.115 196.814 214.686 197.127 214.83C196.66 214.925 195.624 214.543 195.341 214.2Z" fill="black" fill-opacity="0.0666667"/>
<path d="M191.35 221C190.529 218.81 189.746 216.908 189.053 214.647C187.108 208.316 186.601 201.63 187.572 195.078C187.844 193.233 188.332 189.724 189.817 188.435C190.195 188.085 191.237 188.121 191.556 188.518C193.793 191.312 196.09 194.034 198.599 196.596C199.906 197.93 201.511 199.214 202.96 200.393L209.43 205.601C211.837 207.538 214.229 209.494 216.604 211.469C218.071 212.696 219.498 213.977 221 215.16V215.926C219.127 214.299 217.158 212.766 215.31 211.094L214.845 211.138C214.412 209.819 209.77 206.974 208.622 205.598L208.189 205.617C207.682 204.597 202.761 201.141 201.457 199.822C202.013 201.825 202.403 206.542 202.451 208.696C202.424 209.13 202.444 209.638 202.231 210.002C202.003 208.741 202.014 206.497 201.896 205.124C201.729 203.19 201.488 201.628 201.166 199.717C199.517 197.959 198.31 197.447 196.433 195.051C196.946 197.472 197.176 201.603 196.848 204.007L196.552 203.436C196.942 201.374 196.548 196.788 195.891 194.704C195.762 194.293 194.027 192.493 193.62 192.056C193.374 191.967 193.485 192.01 193.301 191.678C192.815 191.028 191.359 188.701 190.639 188.807C190.464 188.934 190.452 188.959 190.256 189.046C189.841 189.176 189.795 189.261 189.566 189.707C189.133 190.553 188.274 193.836 188.305 194.609L188.242 194.859C188.094 195.956 187.498 199.118 188.002 199.939L187.677 200.059C187.674 201.959 187.715 210.58 189.347 211.585L188.949 211.716C188.677 212.545 191.558 219.932 191.995 221H191.35Z" fill="black"/>
<path d="M190.256 189.046C190.452 188.959 190.464 188.934 190.639 188.807C190.807 191.425 191.709 194.567 192.465 197.076C192.665 195.908 193.028 192.555 193.301 191.678C193.485 192.01 193.374 191.967 193.62 192.056C193.338 192.808 193.371 193.716 193.208 194.439C192.391 198.081 193.163 199.226 194.658 202.506C195.168 203.624 195.7 204.731 196.254 205.828C196.361 205.045 196.488 204.218 196.552 203.437L196.848 204.007C196.763 204.824 196.711 205.332 196.359 206.104C197.449 208.228 198.586 210.328 199.769 212.401C200.543 213.733 201.493 215.173 202.216 216.495C202.199 215.121 202.215 213.734 202.236 212.361C202.245 211.724 202.177 210.588 202.231 210.002C202.444 209.638 202.424 209.13 202.451 208.696C202.594 210.441 202.667 215.056 202.4 216.763C203.032 217.722 203.829 219.001 204.494 219.906L204.247 220.166C203.544 219.222 202.751 217.98 202.086 216.989C197.224 216.263 193.056 214.276 188.949 211.716L189.347 211.585C190.237 212.183 191.157 212.735 192.104 213.238C193.684 214.073 200.45 216.893 201.754 216.491C201.599 216.071 199.978 213.54 199.621 212.929C198.277 210.63 197.107 208.272 195.813 205.965C191.819 203.876 190.873 203.008 187.677 200.059L188.002 199.939C188.202 200.03 189.111 200.949 189.366 201.206C191.252 203.102 193.46 204.253 195.741 205.625C194.277 203.143 193.488 199.994 192.133 197.727C191.886 197.313 188.923 195.39 188.242 194.859L188.305 194.609C189.359 195.135 191.609 197.022 192.098 197.017C192.115 196.855 191.536 195.331 191.409 194.934C190.797 193.019 190.685 190.946 190.256 189.046Z" fill="black" fill-opacity="0.960784"/>
<path d="M191.441 0H191.996C192.402 0.868505 192.895 2.49311 193.566 2.95668C193.437 3.16363 193.379 3.16675 193.383 3.34428C194.532 4.86844 196.297 9.71373 197.596 10.9705L197.653 11.1403C198.066 12.3789 202.201 18.9738 203.194 19.3503L203.114 19.5887C203.724 20.6485 206.414 24.0893 207.573 24.4361L207.396 24.706L207.431 24.835C213.062 29.8531 213.637 30.2179 221 31.3463V31.9102C218.845 31.684 215.435 31.166 213.444 30.076C204.672 25.2732 198.234 14.0294 193.83 5.39321C193.066 3.89617 191.943 1.48299 191.441 0Z" fill="black"/>
<path d="M216.65 0H216.967C217.355 3.11611 217.659 6.24188 217.881 9.37404C217.949 10.3668 217.921 11.6541 217.953 12.5893C217.971 13.1371 220.49 14.9415 221 15.3321V15.8892L219.833 15.023C219.372 14.452 216.965 12.5546 216.295 11.9652C215.759 11.5102 215.516 11.3273 214.926 10.9466C215.327 11.3737 215.705 11.8009 216.153 12.1783C217.288 13.1913 218.639 14.3341 219.727 15.3721C220.08 15.6769 220.646 16.1949 221 16.4628V16.9576C219.69 16.0716 218.34 14.6843 217.012 13.6383C215.017 13.8434 207.492 12.5247 205.191 12.3064C204.229 12.215 198.55 11.3969 197.653 11.1403L197.596 10.9705C198.074 10.9147 201.689 11.4897 202.496 11.6043C205.666 12.0709 208.842 12.4944 212.023 12.8745C213.455 13.04 215.327 13.2838 216.73 13.3225C216.195 12.7945 215.034 11.7453 214.591 11.2243C214.848 10.5976 214.644 10.8357 215.165 10.441C216.049 11.2415 216.735 11.819 217.671 12.5547C217.537 10.2123 217.45 7.98904 217.232 5.64614C217.06 3.79741 216.754 1.81904 216.65 0Z" fill="black" fill-opacity="0.980392"/>
<path d="M94.5463 0H95.2849C90.5279 6.5784 86.9131 11.2651 84.267 19.1821C83.5447 21.2463 80.2233 33.0837 79.4034 33.8899C79.1774 33.9722 79.0556 34.0477 78.8199 33.9257C78.5526 33.7872 78.3206 33.4584 78.2196 33.1809C77.5938 31.4602 81.8379 21.2127 82.7011 18.912C83.0243 17.8488 84.0679 15.8096 84.5652 14.6823C85.0651 13.8026 85.4982 12.8834 86.0373 11.9516C87.4416 9.5375 88.9741 7.20032 90.6282 4.95005C91.8511 3.27844 93.298 1.68082 94.5463 0Z" fill="#434446" fill-opacity="0.01"/>
<path d="M79.2156 0H79.7899C79.5974 6.25657 79.8942 11.8716 82.7884 17.627C83.2983 16.7802 83.8599 15.4768 84.2895 14.553L84.5652 14.6823C84.0679 15.8096 83.0243 17.8488 82.7011 18.912C81.8379 21.2127 77.5938 31.4602 78.2196 33.1809C78.3206 33.4584 78.5526 33.7872 78.8199 33.9257C79.0556 34.0477 79.1774 33.9722 79.4034 33.8899C80.2233 33.0837 83.5447 21.2463 84.267 19.1821L84.5299 19.4548C91.5522 21.0908 101.18 15.0011 106.162 10.3444C106.775 9.77165 108.072 8.81379 108.415 8.11822L108.432 7.79882C109.904 7.33184 113.911 2.39798 115.425 0.946928C112.548 1.59663 109.623 2.48697 106.669 3.1476L105.905 3.02639C109.058 2.1397 112.348 1.53489 115.49 0.582786C115.726 0.511241 115.997 0.188364 116.154 0H116.923C116.075 1.09319 115.061 2.17224 114.115 3.21885C107.342 10.7065 99.2154 18.4262 88.8625 20.1685C87.6148 20.3785 85.5686 20.3782 84.3684 20.0882C83.8599 21.1846 83.4612 22.7247 83.0992 23.9138L81.1728 30.3023C80.8644 31.3263 80.6087 32.4447 80.1506 33.4105C79.9895 33.7503 79.7715 34.1393 79.4159 34.3053C79.1591 34.4252 78.88 34.4179 78.6246 34.3002C78.2326 34.1197 77.9636 33.773 77.8504 33.3615C77.3311 31.4756 81.4062 20.8005 82.4505 18.6931C82.4773 18.2817 81.9081 17.2316 81.7087 16.7786C79.4297 11.6029 78.8843 5.57214 79.2156 0Z" fill="black"/>
<path d="M95.2849 0H95.7461C94.2148 1.93661 92.9235 3.78918 91.4919 5.79109C93.672 5.40697 95.5742 5.25323 97.8769 4.78166C99.614 4.42307 101.348 4.04942 103.079 3.66074C103.855 3.48547 105.177 3.13938 105.905 3.02639L106.669 3.1476C101.694 4.4195 96.5841 5.51608 91.4832 6.13042C90.765 6.21691 87.3679 12.666 86.8414 13.6589C88.1084 13.4607 89.294 13.4213 90.5476 13.1933C94.0667 12.5534 97.5959 11.5604 100.993 10.4511C102.569 9.93596 104.134 9.38895 105.687 8.81047C106.252 8.59982 107.935 7.91299 108.432 7.79882L108.415 8.11822C102.595 10.183 92.8543 13.9266 86.7642 13.924C85.8896 15.6195 85.1948 17.6436 84.5299 19.4548L84.267 19.1821C86.9131 11.2651 90.5279 6.5784 95.2849 0Z" fill="#030406" fill-opacity="0.960784"/>
<path d="M84.4227 0H84.8064C84.4615 3.06621 84.7835 9.31307 85.5349 12.2943L85.6014 12.1445C86.6409 9.83833 88.8671 7.22713 89.9617 5.06085C90.0645 4.85732 89.9016 0.724284 89.9038 0H90.2448C90.2284 1.70981 90.2798 3.03383 90.3506 4.73378C91.1463 3.73225 93.4971 0.945845 94.0998 0H94.5464C93.2981 1.68082 91.8511 3.27844 90.6282 4.95005C88.9741 7.20032 87.4417 9.5375 86.0373 11.9516C85.4982 12.8834 85.0652 13.8026 84.5652 14.6823L84.2895 14.553C84.6588 13.8467 84.9125 13.3731 85.186 12.6293C84.2087 7.79214 84.3864 4.87919 84.4227 0Z" fill="black" fill-opacity="0.964706"/>
<path d="M204.847 0H205.32C206.409 1.68423 208.624 4.34234 210.165 5.68647L209.976 5.71985C210.143 5.85935 210.282 6.02851 210.348 6.23941L210.527 6.34672L210.466 6.36377L210.561 6.34006L210.565 6.32662C211.135 6.67387 214.291 9.70643 215.165 10.441C214.644 10.8357 214.848 10.5976 214.591 11.2243C212.977 9.7844 211.632 8.10575 210.015 6.67975C209.856 6.53931 209.478 6.51554 209.268 6.49987L209.363 6.16511C209.377 6.08559 209.39 6.00606 209.403 5.92654C207.997 4.21631 205.995 1.75218 204.847 0Z" fill="black" fill-opacity="0.984314"/>
<path d="M203.194 19.3503C204.18 19.2905 207.759 20.0435 209.049 20.188C213.018 20.6192 217.007 20.8441 221 20.8618V21.2925C216.799 21.1807 212.606 20.8978 208.427 20.4446C206.993 20.2786 204.222 19.6657 203.114 19.5887L203.194 19.3503Z" fill="black" fill-opacity="0.972549"/>
<path d="M193.566 2.95679C194.629 3.04192 198.003 3.95484 199.222 4.23287C202.58 4.98829 205.963 5.63276 209.363 6.16522L209.268 6.49997C208.294 6.40579 206.694 6.07374 205.691 5.88668C203.121 5.40061 200.562 4.86387 198.014 4.27681C197.25 4.09526 193.855 3.15624 193.383 3.34438C193.379 3.16686 193.437 3.16374 193.566 2.95679Z" fill="#030406" fill-opacity="0.972549"/>
<path d="M208.189 205.617L208.622 205.598C208.383 206.004 208.905 209.479 208.989 210.179C209.434 213.78 209.828 217.387 210.172 221H209.806C209.579 217.562 209.062 214.081 208.71 210.649C208.558 209.162 208.169 207.07 208.189 205.617Z" fill="black" fill-opacity="0.980392"/>
<path d="M0 215.214C2.15339 217.098 4.28547 218.948 6.28535 221H5.43607C5.05119 220.446 1.93346 217.715 1.1392 216.933C0.945065 216.994 0.916422 216.986 0.748193 217.092C0.583121 216.522 0.423742 216.372 0 215.993V215.214Z" fill="black"/>
<path d="M207.573 24.436C208.41 24.5146 210.132 25.0423 211.193 25.2238C214.437 25.7871 217.712 26.1554 221 26.3268V26.6848C217.591 26.4795 214.196 26.0806 210.833 25.4898C210.045 25.3495 208.031 24.6123 207.431 24.8349L207.396 24.7059L207.573 24.436Z" fill="black" fill-opacity="0.968627"/>
<path d="M214.845 211.138L215.31 211.094C215.156 211.538 215.397 212.011 215.498 212.494C216.072 215.274 216.633 218.182 216.934 221H216.621C216.057 217.435 215.666 214.707 214.845 211.138Z" fill="black" fill-opacity="0.984314"/>
<path d="M79.2198 221C79.5357 218.989 79.7674 216.726 80.465 214.824C82.3098 209.797 87.6187 205.202 91.8619 202.108C95.9062 199.199 100.177 196.619 104.634 194.391C114.885 189.173 125.478 185.699 137.086 187.581C139.066 187.992 142.34 188.279 143.713 189.807C145.041 191.287 141.296 193.426 140.277 194.266C136.447 197.421 133.622 200.678 130.505 204.534L123.686 212.98C122.227 214.767 120.753 216.541 119.262 218.302C118.713 218.953 117.432 220.362 117.015 221H116.217C117.777 219.146 119.507 217.205 120.972 215.295C120.982 215.243 120.976 214.939 120.975 214.876C121.997 214.57 125.514 209.734 126.462 208.608C126.398 208.367 126.409 208.465 126.466 208.206C127.129 207.975 131.759 202.266 132.001 201.539L131.718 201.272C131.948 201.261 132.319 201.222 132.486 201.059C133.969 199.597 135.181 197.981 136.804 196.646L136.735 196.188C137.59 196.051 139.71 194.233 140.097 193.471L140.442 193.347C141.195 192.789 143.336 191.46 143.335 190.578L143.101 190.255C143.041 189.874 142.925 189.757 142.567 189.596C141.702 189.206 138.217 188.109 137.381 188.358C137.281 188.343 137.353 188.36 137.192 188.244C136.821 188.096 134.51 187.847 133.999 187.809C133.315 187.757 132.723 187.646 132.188 188.111L131.967 187.868C131.347 187.249 121.679 188.122 120.721 189.068L120.5 188.878C118.722 189.209 109.005 192.429 108.328 193.429L107.951 193.419C106.678 194.093 100.583 196.811 100.231 197.747L99.8144 197.684C98.4682 198.473 92.196 202.005 91.8301 203.317C91.759 203.313 91.5705 203.312 91.51 203.297C90.8651 203.419 87.3289 206.409 87.1477 206.844C85.6102 210.528 85.1691 217.183 84.8073 221H84.4507C84.8548 215.744 85.2591 212.357 86.5388 207.281C81.7848 212.306 80.7114 214.105 79.8209 221H79.2198Z" fill="black"/>
<path d="M131.967 187.868L132.188 188.111C129.542 190.569 128.26 192.776 126.461 195.819C128.929 194.398 131.818 193.585 134.245 192.234C134.862 191.891 136.848 189.035 137.192 188.244C137.353 188.36 137.281 188.343 137.382 188.358C137.224 189.385 135.174 191.352 135.21 192.128C136.057 191.71 136.737 191.755 137.243 191.51C139.121 190.602 141.253 190.755 143.101 190.255L143.335 190.578C140.935 190.993 137.336 191.557 135.094 192.518C136.206 192.689 139.606 192.961 140.442 193.347L140.097 193.471C139.133 193.368 135.283 192.786 134.726 192.838C132.696 193.027 128.154 195.343 126.267 196.255C129.464 196.651 132.072 196.856 135.285 196.346C135.671 196.284 136.366 196.169 136.735 196.188L136.804 196.646C136.224 196.326 129.066 197.778 126.164 196.326C122.551 198.11 119.039 200.09 115.642 202.259C120.797 202.118 126.633 202.31 131.718 201.272L132.001 201.54C128.9 202.254 118.479 202.979 115.51 202.381C113.237 203.595 110.338 205.751 108.341 207.402C107.268 208.289 106.291 209.375 105.138 210.264C107.386 210.162 109.63 209.996 111.869 209.768C113.559 209.603 125.984 208.077 126.466 208.206C126.409 208.465 126.398 208.367 126.462 208.608C125.696 208.218 108.291 210.895 104.977 210.544C104.692 210.816 103.408 212.13 103.232 212.266C103.086 212.087 102.874 211.988 102.667 211.86L104.592 210.007C104.685 208.784 105.061 206.908 105.293 205.663C105.771 203.065 106.307 200.479 106.901 197.906C107.21 196.611 107.751 194.683 107.951 193.419L108.328 193.429C106.968 199.08 105.916 203.984 104.933 209.73C106.876 208.03 108.908 206.434 111.021 204.95C112.394 203.978 113.975 203.01 115.272 201.993C115.659 197.849 118.121 192.326 120.5 188.878L120.721 189.068C120.4 189.708 119.614 190.836 119.168 191.668C117.419 194.871 116.207 198.339 115.58 201.934C118.041 200.007 123.369 197.48 126.248 195.806C127.011 193.486 130.161 189.547 131.967 187.868Z" fill="#030406" fill-opacity="0.964706"/>
<path d="M100.186 215.299C100.48 215.074 100.777 214.852 101.076 214.635C100.227 215.737 99.3494 216.698 98.4219 217.734C99.8805 217.523 101.331 217.538 102.798 217.447C104.003 217.371 105.208 217.25 106.41 217.141C111.309 216.702 116.174 215.944 120.975 214.876C120.976 214.939 120.982 215.243 120.972 215.295C120.485 215.149 117.311 216.012 116.438 216.156C110.443 217.14 104.381 217.83 98.3289 218.024C97.982 218.035 96.108 220.538 95.7245 221H95.2568C96.6459 219.264 98.6114 216.809 100.186 215.299Z" fill="#030406" fill-opacity="0.976471"/>
<path d="M99.8144 197.684L100.231 197.748C99.9275 201.273 99.0815 205.467 98.6763 209.075C98.499 210.652 97.9634 215.866 97.6462 216.974C98.4437 216.138 99.7346 214.701 100.553 213.972C100.527 214.64 100.264 214.543 100.142 214.876C98.1975 216.9 96.4682 219.037 94.5947 221H94.1745C94.9799 219.805 96.4721 218.514 97.4363 217.097C97.4041 216.46 97.7478 213.686 97.8337 212.952C98.2982 209.196 98.8105 205.446 99.3707 201.702C99.4896 200.89 99.9619 198.258 99.8144 197.684Z" fill="black" fill-opacity="0.976471"/>
<path d="M91.51 203.297C91.5705 203.312 91.759 203.314 91.8301 203.317C91.7709 204.624 91.2563 206.633 91.1197 208.045C90.713 212.254 90.2862 216.776 90.2259 221H89.8755C90.0063 220.239 89.9986 219.048 90.0021 218.244C90.0242 213.143 90.8195 208.316 91.51 203.297Z" fill="black" fill-opacity="0.984314"/>
<path d="M102.667 211.86C102.874 211.989 103.086 212.087 103.232 212.266C102.596 212.971 101.733 213.99 101.076 214.636C100.777 214.852 100.48 215.074 100.186 215.299L100.305 214.951L100.142 214.876C100.264 214.543 100.527 214.64 100.553 213.972C101.139 213.265 101.988 212.504 102.667 211.86Z" fill="#616063"/>
<path d="M100.142 214.876L100.305 214.95L100.186 215.299C98.6114 216.809 96.6459 219.264 95.2568 221H94.5947C96.4682 219.037 98.1975 216.9 100.142 214.876Z" fill="#BEBBBE" fill-opacity="0.0666667"/>
<path d="M193.024 128.818C192.679 128.462 192.278 127.569 192.079 127.119C189.445 121.146 188.636 109.775 191.113 103.937C195.355 93.9403 211.696 85.2394 221 81.1538V81.8183C220.439 82.0491 219.121 82.4979 218.793 82.965L218.452 82.8945C217.117 83.633 211.119 86.2693 210.711 87.2634L210.316 87.1837C209.026 87.9288 202.813 91.5448 202.393 92.5926L202.16 92.81L202.008 92.7997C201.271 92.9439 198.133 95.662 197.55 96.4495C197.391 96.6633 197.323 96.8846 197.25 97.1368L196.931 96.929L196.797 97.029C195.498 98.4315 193.868 100.122 192.909 101.757C188.624 109.063 189.82 120.881 193.27 128.14C193.977 127.005 194.383 125.67 195.057 124.562L195.2 124.911C194.55 126.305 193.818 127.803 193.252 129.219L193.024 128.818Z" fill="black"/>
<path d="M210.316 87.1838L210.711 87.2635C210.642 88.5609 210.374 90.1078 210.185 91.4174L209.222 98.205C208.952 100.229 208.582 104.721 208.19 106.407C209.119 105.482 210.321 104.114 211.222 103.299C211.243 103.663 211.054 103.853 210.845 104.167C206.107 109.054 201.312 114.745 197.704 120.506C196.898 121.812 195.893 123.856 195.2 124.911L195.057 124.562L195.716 123.242C194.536 117.571 194.71 110.674 195.485 104.925C195.686 103.339 195.939 101.759 196.243 100.189C196.371 99.5559 196.934 97.4961 196.797 97.0291L196.931 96.9291L197.25 97.1369C195.671 104.18 194.193 115.759 196.04 122.751C196.891 120.978 197.929 119.513 199.024 117.892C199.49 117.201 200.177 116.294 200.526 115.562C200.378 114.309 200.433 111.713 200.429 110.428C200.413 104.385 201.134 98.7447 202.008 92.7998L202.16 92.8102L202.393 92.5927C202.247 94.155 201.76 96.1643 201.586 97.8932C200.996 103.755 200.555 109.349 200.842 115.232C202.151 113.47 203.635 111.764 205.048 110.084C205.769 109.227 206.722 108.238 207.38 107.354L207.505 107.184C208.364 105.988 209.008 94.6713 209.666 92.6393C209.804 92.212 210.398 87.5148 210.316 87.1838Z" fill="black" fill-opacity="0.972549"/>
<path d="M210.965 104.518C211.023 104.491 211.595 104.085 211.681 104.025C210.937 104.944 209.587 106.372 208.994 107.197C212.929 106.936 217.101 106.786 221 106.151V106.535C216.973 106.929 213.055 107.523 208.989 107.465C208.671 107.461 207.865 108.428 207.635 108.708C205.65 111.156 203.773 113.691 202.013 116.307C202.969 116.13 203.914 116.047 204.873 115.898C210.321 115.052 215.643 113.65 221 112.379V112.724C217.399 113.618 213.785 114.458 210.159 115.247C207.723 115.77 204.37 116.476 201.873 116.605C200.49 118.157 198.363 122.28 197.328 124.18C198.587 123.965 199.762 123.919 201.004 123.695C204.02 123.156 207.101 122.342 210.021 121.424C211.98 120.802 213.924 120.142 215.856 119.443C216.7 119.133 218.028 118.561 218.828 118.321L219.023 118.626C218.372 118.677 215.111 120.067 214.229 120.352C208.999 122.041 202.738 124.261 197.26 124.457C196.403 126.108 195.672 128.193 195.011 129.965L194.718 129.762C194.957 129.239 195.195 128.499 195.4 127.935C196.677 124.422 198.428 121.351 200.363 118.158C200.703 117.783 202.156 115.439 202.63 114.8C204.881 111.771 208.195 107.004 210.965 104.518Z" fill="#030406" fill-opacity="0.964706"/>
<path d="M218.828 118.321C219.735 118.107 220.356 117.381 221 116.741V117.572C218.765 119.69 216.685 121.828 214.201 123.684C209.262 127.377 203.148 130.905 196.812 130.777C196.314 130.768 195.13 130.587 194.779 130.619L194.64 130.132L194.718 129.762L195.011 129.965C196.355 130.235 197.733 130.287 199.094 130.122C205.003 129.454 211.982 125.152 216.307 121.195C217.031 120.532 218.437 119.365 219.023 118.626L218.828 118.321Z" fill="black"/>
<path d="M218.452 82.8945L218.793 82.965C218.486 84.7371 217.878 86.748 217.483 88.5547C216.706 92.1136 216.018 95.6911 215.417 99.2839C216.676 98.1517 219.577 95.6626 221 94.9018V95.2918C219.604 95.9708 216.947 98.6794 215.649 99.7893L221 99.4346V99.781C219.616 99.8825 216.784 100.183 215.508 100.064C214.817 100.602 214.124 101.478 213.733 101.775C213.559 101.588 213.368 101.524 213.129 101.401L215.098 99.5074C215.442 95.8831 216.597 91.4773 217.291 87.8645C217.59 86.3091 218.257 84.462 218.452 82.8945Z" fill="#030406" fill-opacity="0.980392"/>
<path d="M210.845 104.167L210.965 104.518C208.195 107.004 204.881 111.771 202.63 114.8C202.156 115.439 200.703 117.783 200.363 118.158L200.31 117.9L200.15 117.878C199.459 118.747 198.984 120.166 198.152 120.851L198.017 120.825L197.995 120.551C197.781 120.482 197.878 120.487 197.704 120.505C201.312 114.745 206.107 109.054 210.845 104.167Z" fill="#616063" fill-opacity="0.027451"/>
<path d="M193.024 128.818L193.252 129.219C191.967 133.187 190.108 137.031 189.045 141.088C188.773 142.129 188.138 143.929 189.491 144.483C190.469 144.346 190.987 141.804 191.263 140.918L193.457 133.777C193.776 132.745 194.243 131.059 194.64 130.132L194.779 130.619C193.883 133.48 193.007 136.347 192.149 139.218C191.687 140.747 191.302 142.476 190.647 143.929C190.522 144.206 190.337 144.551 190.083 144.73C189.841 144.899 189.602 144.96 189.311 144.892C188.96 144.81 188.712 144.584 188.55 144.271C187.359 141.973 192.127 131.809 192.997 128.911L193.024 128.818Z" fill="black" fill-opacity="0.988235"/>
<path d="M213.129 101.401C213.368 101.524 213.559 101.588 213.733 101.775L211.681 104.025C211.595 104.085 211.023 104.491 210.965 104.518L210.845 104.167C211.054 103.853 211.243 103.663 211.222 103.299C211.704 102.715 212.56 101.944 213.129 101.401Z" fill="#616063"/>
<path d="M209.933 0H210.274C210.256 1.4801 210.519 3.18277 210.58 4.69082C210.606 5.31148 210.547 5.77749 210.565 6.32662L210.561 6.34006L210.466 6.36378L210.527 6.34673L210.348 6.23941C210.282 6.02851 210.143 5.85935 209.976 5.71985L210.165 5.68647C210.371 5.19913 209.978 0.965707 209.933 0Z" fill="black"/>
<path d="M0 81.1341C3.53291 79.7142 7.02512 78.3457 10.8097 77.5618C17.5943 76.1562 24.9776 76.1856 31.629 78.2627C33.2311 78.8552 34.4039 80.0744 32.6831 81.4579C29.513 84.0063 26.2123 86.6857 23.5411 89.7689C21.2225 92.4453 19.0181 95.2665 16.7954 98.0271C13.2344 102.499 9.58046 106.896 5.83598 111.215C4.71236 112.495 1.22472 116.489 0 117.498V116.625C1.44726 115.409 3.19957 113.141 4.66394 111.708L4.57452 111.288C5.61712 110.976 9.63448 105.897 10.4646 104.784C10.5326 104.577 10.511 104.683 10.4099 104.41C11.6041 103.983 14.8088 99.4344 15.9639 98.1089C15.9519 98.0045 15.8563 97.8383 15.8048 97.7302C16.0069 97.6802 16.3005 97.5816 16.4412 97.4274C18.1881 95.5133 19.8943 93.1942 21.5456 91.1977L21.5671 91.026L21.1869 90.7803C22.3347 90.7113 23.3356 89.016 24.1871 88.196C24.8428 87.5646 25.7105 86.7272 26.2959 86.0618L26.1188 85.6696C27.3261 85.585 28.6563 84.0003 29.5912 83.1174L29.5488 82.9415L29.9541 82.8259C30.6326 82.3768 32.8976 80.8715 32.8359 80.0667L32.5929 79.8018L32.6273 79.5434C32.1264 78.8117 27.5789 77.5599 26.8747 77.8675C26.7765 77.843 26.8474 77.8663 26.6922 77.7382C26.455 77.627 24.7945 77.4138 24.4681 77.4026C23.4248 77.3666 22.415 77.0001 21.5925 77.6515L21.4788 77.2435C19.6919 77.0441 11.4581 77.4302 10.2201 78.5735L9.98671 78.379C7.23213 78.7325 2.65854 80.874 0 81.7675V81.1341Z" fill="black"/>
<path d="M21.4788 77.2434L21.5925 77.6514C20.976 78.4887 19.8589 79.3801 19.1652 80.3009C17.9416 81.9249 17.0187 83.5759 15.9889 85.3151C18.4139 83.8716 21.3561 83.0928 23.7382 81.7318C24.3763 81.3673 26.3335 78.5556 26.6922 77.7381C26.8474 77.8662 26.7765 77.8428 26.8747 77.8673C26.7339 78.8034 24.766 81.045 24.1618 81.9866C26.1825 80.7417 30.2269 80.0523 32.5929 79.8016L32.8359 80.0666C30.538 80.4958 26.7099 81.0439 24.6163 82.0343C26.1645 82.2186 28.4869 82.375 29.9541 82.8258L29.5488 82.9414L29.5912 83.1173C29.1357 82.8633 25.043 82.3455 24.4511 82.3321C24.0321 82.3217 23.6139 82.3745 23.2106 82.4889C21.5217 82.952 17.3445 84.9848 15.7753 85.7716C19.9726 86.2506 21.8298 86.3059 26.1188 85.6695L26.2959 86.0617C25.7849 86.0098 24.6022 86.1919 24.0114 86.2514C21.9453 86.4598 17.471 86.8925 15.7158 85.8202C12.0353 87.5742 8.60335 89.575 5.14657 91.7389C9.31 91.7227 17.1462 91.6998 21.1869 90.7802L21.5671 91.0259L21.5456 91.1976C21.4671 91.162 21.3887 91.1263 21.3101 91.0905C16.6175 91.9116 11.7581 92.0932 6.9998 92.0744C6.44635 92.0722 5.93121 92.0434 5.39364 91.9338L5.18132 91.8919C5.13527 91.882 5.08923 91.872 5.04318 91.862C3.1059 92.8848 1.76597 94.098 0 95.1254V94.7594C1.26081 93.9809 3.61501 92.4004 4.75434 91.5129C5.26645 87.2443 7.54316 81.9208 9.98671 78.3788L10.2201 78.5734C9.89769 79.2285 9.03914 80.4631 8.58951 81.323C6.79134 84.7615 5.77315 87.6649 5.06425 91.4604C5.80886 90.8488 7.4298 89.915 8.30071 89.4059C10.7445 87.9772 13.2937 86.6869 15.761 85.2946C16.5342 83.1626 18.4947 80.6546 19.9142 78.9016C20.3899 78.3141 21.0451 77.9086 21.4788 77.2434Z" fill="#030406" fill-opacity="0.956863"/>
<path d="M0 99.4105C3.05493 99.0681 6.11445 98.8105 9.17216 98.4182C10.3653 98.2651 14.9825 97.6246 15.8048 97.7302C15.8563 97.8383 15.9519 98.0045 15.9639 98.109C15.3027 97.7589 4.79112 99.4264 3.01304 99.4368C2.6794 99.4387 0.383299 99.6904 0 99.7608V99.4105Z" fill="#030406" fill-opacity="0.972549"/>
<path d="M0 106.207C1.34357 105.896 3.76368 105.689 5.33171 105.403C6.60826 105.17 9.33683 104.528 10.4099 104.41C10.511 104.683 10.5326 104.577 10.4646 104.784C10.3138 104.723 10.2605 104.694 10.0905 104.736C6.77116 105.56 3.40243 106.118 0 106.504V106.207Z" fill="black" fill-opacity="0.968627"/>
<path d="M0 112.358C1.29917 112.053 3.33006 111.454 4.57452 111.288L4.66394 111.708C4.16348 111.505 0.788442 112.5 0 112.695V112.358Z" fill="black" fill-opacity="0.968627"/>
<path d="M0.748199 217.091C0.916428 216.986 0.945072 216.994 1.1392 216.933C1.06382 217.358 1.87523 220.354 2.03921 221H1.67768C1.47569 219.775 1.00126 218.387 0.748199 217.091Z" fill="black" fill-opacity="0.972549"/>
<path d="M216.295 11.9651C216.965 12.5545 219.372 14.4519 219.833 15.0229L219.727 15.372C218.639 14.334 217.288 13.1912 216.153 12.1782L216.295 11.9651Z" fill="#6F6D6F" fill-opacity="0.0862745"/>
<path d="M0 15.8416C0.607396 16.3378 1.21825 16.8299 1.83253 17.3177C1.53033 17.317 1.23528 17.2702 0.933521 17.2349L0 16.4894V15.8416Z" fill="#28262D" fill-opacity="0.01"/>
<path d="M219.727 15.372L219.833 15.0229L221 15.8891V16.4627C220.646 16.1949 220.08 15.6768 219.727 15.372Z" fill="#958D99" fill-opacity="0.0431373"/>
<path d="M204.494 219.906C204.738 220.253 205.02 220.634 205.228 221H204.797L204.247 220.166L204.494 219.906Z" fill="#010201" fill-opacity="0.956863"/>
<path d="M214.926 10.9465C215.516 11.3272 215.759 11.5101 216.295 11.9651L216.153 12.1782C215.705 11.8009 215.327 11.3736 214.926 10.9465Z" fill="#434446" fill-opacity="0.509804"/>
</g>
<defs>
<clipPath id="clip0_57_964">
<rect width="221" height="221" fill="white"/>
</clipPath>
</defs>
</svg>
