<svg width="157" height="207" viewBox="0 0 157 207" fill="none" xmlns="http://www.w3.org/2000/svg">
<path d="M95.4106 204.737C95.5556 204.724 95.6683 204.842 95.6743 204.982C95.6791 205.123 95.5689 205.241 95.4292 205.247C80.5453 205.802 65.4829 206.082 50.5239 206.082C46.9959 206.082 43.4734 206.066 39.9604 206.036C39.8187 206.034 39.7067 205.919 39.7075 205.778C39.7095 205.639 39.8226 205.527 39.9624 205.526H39.9644C58.3673 205.689 77.0217 205.424 95.4106 204.737ZM49.8384 158.139C49.9784 158.14 50.0914 158.256 50.0894 158.396C50.0423 162.334 50.038 166.285 50.0747 170.241C50.0817 170.24 50.089 170.239 50.0962 170.238C51.4395 170.169 52.7825 170.101 54.1255 170.035C54.0947 168.878 54.1428 167.718 54.2739 166.565C54.2899 166.426 54.4112 166.32 54.5562 166.341C54.695 166.356 54.7958 166.482 54.7798 166.622C54.6522 167.747 54.6047 168.879 54.6343 170.01C56.026 169.942 57.4181 169.875 58.8101 169.81C58.9508 169.802 59.0705 169.913 59.0767 170.053C59.0837 170.194 58.9735 170.313 58.8345 170.32C57.4402 170.386 56.0463 170.451 54.6528 170.52C54.6929 171.371 54.7763 172.222 54.9058 173.066C54.9266 173.205 54.8318 173.335 54.6919 173.356C54.6789 173.358 54.6668 173.359 54.6528 173.359C54.5298 173.359 54.4209 173.269 54.4019 173.142C54.2697 172.281 54.185 171.414 54.144 170.545C52.803 170.611 51.4621 170.679 50.1216 170.748H50.1079C50.0983 170.748 50.0889 170.746 50.0796 170.745C50.1875 181.347 50.5946 191.988 51.2993 202.515C51.3073 202.656 51.2019 202.777 51.062 202.787H51.0444C50.9116 202.787 50.7995 202.683 50.7905 202.55C49.8115 187.913 49.4036 173.056 49.5806 158.39C49.5818 158.249 49.7036 158.134 49.8384 158.139ZM105.282 158.654C105.423 158.641 105.54 158.761 105.544 158.9L106.894 201.614C106.899 201.754 106.788 201.872 106.647 201.876C106.645 201.877 106.642 201.877 106.639 201.877C106.503 201.877 106.389 201.768 106.386 201.63L105.036 158.917C105.031 158.776 105.141 158.659 105.282 158.654ZM59.9058 158.004C60.0377 157.991 60.1615 158.116 60.1626 158.257C60.2276 168.074 60.0923 178.026 59.7593 187.836L59.729 188.718C59.586 192.867 59.4371 197.158 59.8091 201.35C59.8211 201.491 59.7177 201.615 59.5767 201.627C59.5698 201.628 59.5621 201.628 59.5562 201.628C59.4242 201.628 59.3123 201.528 59.3003 201.395C58.9264 197.172 59.0762 192.865 59.2202 188.7L59.2495 187.818C59.5825 178.014 59.7178 168.071 59.6538 158.261C59.6529 158.12 59.7648 158.005 59.9058 158.004ZM96.3384 156.45C96.4773 156.455 96.5884 156.573 96.5835 156.714C96.1135 169.633 96.3721 182.718 97.3521 195.607C97.3638 195.748 97.2585 195.869 97.1177 195.881C97.1108 195.881 97.1049 195.882 97.0981 195.882C96.9673 195.882 96.8545 195.779 96.8452 195.646C95.8622 182.739 95.6027 169.633 96.0747 156.695C96.0797 156.555 96.2095 156.441 96.3384 156.45ZM55.8188 182.743C55.9598 182.747 56.0699 182.865 56.0649 183.005L56.0522 183.396C56.1708 183.379 56.2899 183.447 56.3315 183.565C56.3773 183.697 56.3052 183.843 56.1733 183.889L56.0347 183.936L55.9321 187.171C55.9291 187.308 55.8151 187.418 55.6792 187.418H55.6704C55.5295 187.413 55.4195 187.296 55.4233 187.154L55.52 184.114L52.3989 185.193C52.371 185.202 52.3429 185.207 52.3159 185.207C52.21 185.207 52.1117 185.14 52.0747 185.035C52.0277 184.902 52.0989 184.757 52.2329 184.711L55.5376 183.568L55.5562 182.988C55.5612 182.847 55.6889 182.734 55.8188 182.743ZM101.879 185.349C102.016 185.329 102.146 185.428 102.166 185.566C102.225 186.001 102.181 186.449 102.032 186.861C101.995 186.965 101.895 187.03 101.793 187.03C101.764 187.03 101.734 187.025 101.706 187.014C101.573 186.967 101.505 186.821 101.553 186.689C101.673 186.353 101.711 185.99 101.661 185.638C101.641 185.498 101.74 185.369 101.879 185.349ZM89.2397 181.964C89.3757 181.955 89.5013 182.061 89.5103 182.202L89.7798 186.499C89.7888 186.639 89.6815 186.76 89.5415 186.768C89.5366 186.768 89.5308 186.769 89.5259 186.769C89.392 186.769 89.2801 186.665 89.271 186.53L89.0015 182.234C88.9925 182.094 89.0987 181.972 89.2397 181.964ZM79.9077 183.429C80.0447 183.417 80.1673 183.534 80.1724 183.674C80.1774 183.814 80.0661 183.931 79.9253 183.937L72.5054 184.188H72.4946C72.3579 184.187 72.2459 184.081 72.2407 183.943C72.2347 183.802 72.3469 183.684 72.4868 183.68L79.9077 183.429ZM102.889 179.756C103.026 179.785 103.113 179.92 103.084 180.057C102.844 181.188 102.758 182.348 102.826 183.503C102.835 183.643 102.726 183.764 102.586 183.773H102.571C102.438 183.773 102.325 183.669 102.317 183.534C102.246 182.333 102.336 181.128 102.585 179.951C102.615 179.814 102.751 179.725 102.889 179.756ZM76.6538 179.747C76.7788 179.742 76.9115 179.854 76.9155 179.996C76.9185 180.137 76.8074 180.254 76.6675 180.257C74.1617 180.326 71.6299 180.506 69.1401 180.791C69.1311 180.792 69.1208 180.793 69.1108 180.793C68.983 180.793 68.8731 180.697 68.8579 180.566C68.8419 180.429 68.9417 180.301 69.0825 180.285C71.5855 179.998 74.1338 179.817 76.6538 179.747ZM63.4751 175.975C63.6129 175.951 63.7449 176.048 63.7681 176.186L64.1489 178.531C64.1717 178.67 64.0769 178.801 63.938 178.823C63.925 178.826 63.911 178.827 63.897 178.827C63.7741 178.827 63.6671 178.738 63.646 178.612L63.2642 176.267C63.2433 176.129 63.3372 175.998 63.4751 175.975ZM73.2661 174.409C73.4051 174.389 73.5352 174.487 73.5552 174.627L74.0669 178.273C74.0866 178.412 73.9889 178.541 73.8491 178.56C73.8381 178.562 73.826 178.562 73.813 178.562C73.689 178.562 73.58 178.472 73.562 178.344L73.0503 174.698C73.0303 174.558 73.1281 174.429 73.2661 174.409ZM55.7759 177.143C55.9157 177.114 56.0496 177.203 56.0776 177.341C56.1076 177.478 56.0183 177.613 55.8813 177.642L52.1099 178.439C52.093 178.443 52.074 178.445 52.0562 178.445C51.9392 178.445 51.8332 178.363 51.8071 178.243C51.7782 178.105 51.8666 177.972 52.0044 177.941L55.7759 177.143ZM92.1567 177.639C92.2987 177.641 92.4097 177.757 92.4087 177.897C92.4065 178.037 92.2927 178.148 92.1528 178.148H92.1499L82.9058 178.011C82.7658 178.009 82.6528 177.892 82.6548 177.753C82.6578 177.611 82.7637 177.496 82.9136 177.501L92.1567 177.639ZM97.4907 174.801C98.9107 174.812 100.335 174.972 101.723 175.278C101.861 175.307 101.947 175.443 101.917 175.581C101.89 175.7 101.785 175.781 101.668 175.781C101.65 175.781 101.632 175.78 101.613 175.775C100.261 175.477 98.8738 175.321 97.4888 175.31C97.3478 175.309 97.2348 175.194 97.2358 175.054C97.237 174.913 97.3499 174.801 97.4907 174.801ZM101.263 169.722C101.401 169.698 101.534 169.791 101.556 169.93L102.065 172.927C102.088 173.065 101.995 173.196 101.856 173.221C101.842 173.222 101.827 173.223 101.812 173.223C101.69 173.223 101.584 173.137 101.562 173.012L101.055 170.015C101.031 169.876 101.124 169.744 101.263 169.722ZM87.7095 172.329C89.5744 172.204 91.4656 172.16 93.3306 172.197C93.4716 172.2 93.5826 172.316 93.5796 172.458C93.5756 172.598 93.4608 172.701 93.3188 172.708C91.4708 172.671 89.5937 172.713 87.7427 172.837C87.7378 172.837 87.7319 172.838 87.7261 172.838C87.5941 172.838 87.4812 172.734 87.4722 172.599C87.4644 172.459 87.5698 172.338 87.7095 172.329ZM86.8501 167.122C86.9908 167.134 87.0962 167.255 87.0854 167.395C86.9575 169.07 87.0274 170.759 87.2954 172.417C87.3164 172.556 87.2225 172.687 87.0835 172.709C87.0696 172.711 87.0564 172.712 87.0425 172.712C86.9206 172.712 86.8115 172.623 86.7915 172.498C86.5175 170.801 86.4457 169.071 86.5767 167.356C86.5887 167.217 86.7141 167.112 86.8501 167.122ZM67.3901 171.297C68.652 171.159 69.9338 171.112 71.2017 171.158C71.3426 171.163 71.4527 171.281 71.4468 171.422C71.4428 171.561 71.3269 171.68 71.1841 171.667C69.9421 171.623 68.6838 171.668 67.4458 171.804C67.4358 171.805 67.4275 171.805 67.4175 171.805C67.2897 171.805 67.1786 171.709 67.1646 171.577C67.1496 171.438 67.2511 171.312 67.3901 171.297ZM66.6675 165.554C66.8085 165.54 66.9328 165.641 66.9468 165.781C67.0518 166.832 67.0723 167.898 67.0093 168.952C67.0012 169.088 66.8874 169.191 66.7544 169.191H66.7388C66.5978 169.182 66.4905 169.061 66.4995 168.921C66.5605 167.894 66.542 166.855 66.439 165.832C66.426 165.692 66.5277 165.567 66.6675 165.554ZM97.4849 167.901C99.4549 167.852 101.442 167.987 103.389 168.295C103.528 168.317 103.624 168.448 103.601 168.587C103.582 168.712 103.473 168.802 103.35 168.802C103.337 168.802 103.323 168.8 103.31 168.798C101.393 168.495 99.4376 168.364 97.4966 168.411C97.3588 168.401 97.2399 168.303 97.2358 168.162C97.2318 168.021 97.3449 167.905 97.4849 167.901ZM87.9868 166.323C88.1258 166.323 88.2397 166.434 88.2417 166.574C88.2436 166.715 88.1317 166.83 87.9907 166.832L76.6636 166.989H76.6606C76.5218 166.989 76.4079 166.877 76.4058 166.738C76.4038 166.597 76.5158 166.482 76.6577 166.48L87.9829 166.323H87.9868ZM92.7134 163.086C92.8534 163.096 92.9587 163.218 92.9497 163.358L92.7896 165.699C92.7804 165.833 92.6676 165.936 92.5347 165.936H92.5171C92.3781 165.927 92.2718 165.805 92.2808 165.664L92.4419 163.323C92.4509 163.183 92.5656 163.085 92.7134 163.086ZM56.186 162.567C56.326 162.545 56.4541 162.644 56.4731 162.784C56.493 162.924 56.3961 163.052 56.2573 163.071C54.6913 163.29 53.1289 163.619 51.6099 164.053C51.6049 164.099 51.5908 164.145 51.5649 164.18C51.507 164.261 51.4081 164.306 51.3042 164.306C51.2652 164.306 51.2259 164.301 51.189 164.288C51.056 164.244 50.9722 164.128 50.9751 163.992C50.9761 163.907 51.0144 163.695 51.3374 163.601C52.9202 163.142 54.5522 162.794 56.186 162.567ZM97.9146 161.483L103.147 162.522C103.286 162.55 103.376 162.683 103.348 162.822C103.324 162.943 103.218 163.027 103.098 163.027C103.082 163.027 103.065 163.024 103.049 163.021L97.814 161.983C97.677 161.955 97.5877 161.821 97.6147 161.683C97.6409 161.545 97.7758 161.455 97.9146 161.483ZM84.9937 161.39C85.1347 161.391 85.2476 161.507 85.2476 161.646C85.2473 161.787 85.1335 161.901 84.9927 161.901C76.8657 161.888 68.6396 162.157 60.5356 162.712C60.5307 162.712 60.5249 162.713 60.5181 162.713C60.3871 162.713 60.2742 162.609 60.2642 162.475C60.2564 162.335 60.3618 162.213 60.5015 162.204C68.6164 161.648 76.8497 161.375 84.9937 161.39ZM58.5981 78.3389C58.7399 78.341 58.8519 78.4569 58.8501 78.5967C58.8431 79.1686 58.8358 79.7608 58.9917 80.3008C59.1012 80.6766 59.2967 80.9969 59.5396 81.2227C59.5742 81.0306 59.6107 80.8389 59.6489 80.6475C59.6769 80.5145 59.804 80.4233 59.936 80.4463C60.0708 80.4664 60.1657 80.5869 60.1528 80.7217L60.106 81.2129C60.1 81.2739 60.0727 81.3301 60.0317 81.3711C60.0233 81.4182 60.0165 81.4656 60.0083 81.5127C60.5417 81.6993 61.1696 81.5354 61.8198 81.332L63.0396 80.9512C63.1316 80.9232 63.2323 80.9466 63.3003 81.0166C63.3663 81.0866 63.389 81.1883 63.355 81.2803C63.097 82.0042 62.7217 82.6745 62.2388 83.2715C62.1878 83.3333 62.1144 83.3662 62.0405 83.3662C61.9837 83.3661 61.9282 83.3465 61.8813 83.3086C61.7713 83.2206 61.7543 83.0602 61.8433 82.9512C62.1792 82.5352 62.4582 82.0806 62.6792 81.5977L61.9722 81.8184C61.266 82.0389 60.5783 82.2169 59.9253 82.0225C59.1752 86.7992 59.5339 91.7241 60.9819 96.3467C61.0488 96.5598 61.1194 96.7593 61.1929 96.9453C61.3119 96.9356 61.4316 96.9404 61.5454 96.9658C61.6723 96.9925 61.8004 97.0329 61.9282 97.0742C61.8798 96.9366 61.8587 96.7896 61.8696 96.6484C61.8866 96.4194 61.9878 96.2189 62.1548 96.0859C62.2648 95.997 62.4252 96.015 62.5132 96.126C62.6 96.235 62.5831 96.3964 62.4731 96.4844C62.4172 96.5283 62.3845 96.5967 62.3774 96.6865C62.3664 96.8295 62.424 96.9897 62.5229 97.0967C62.5624 97.1392 62.6076 97.1763 62.6558 97.2109C62.6935 97.2055 62.7306 97.1977 62.7661 97.1846C62.899 97.1368 63.0463 97.205 63.0942 97.3369C63.1056 97.3675 63.1094 97.399 63.1089 97.4297C63.1984 97.4607 63.29 97.4897 63.3813 97.5176C67.0943 98.6606 70.5432 100.426 73.6392 102.764C73.9371 102.989 74.2328 103.22 74.5298 103.451C75.8607 104.491 77.2376 105.565 78.8345 106.079C79.6113 106.328 80.4485 106.444 81.2563 106.556C81.7633 106.627 82.2902 106.699 82.8042 106.806C84.456 107.144 85.6388 107.811 86.3208 108.789C89.9817 108.993 93.3944 111.225 95.0425 114.504C95.0868 114.595 95.0734 114.697 95.0171 114.772C95.0394 114.809 95.0541 114.851 95.0562 114.896C95.0962 115.87 95.1398 116.845 95.1851 117.821C95.1993 117.796 95.2147 117.772 95.2271 117.746C95.409 117.395 95.4281 116.968 95.4312 116.486C95.4612 113.113 95.2707 109.705 94.8657 106.354C94.849 106.216 94.9485 106.088 95.0894 106.071C95.2311 106.057 95.3545 106.154 95.3726 106.294C95.7786 109.666 95.9709 113.097 95.9409 116.491C95.9359 117.039 95.9129 117.529 95.6812 117.979C95.6482 118.044 95.6098 118.107 95.5718 118.172C95.4878 118.312 95.4088 118.447 95.4058 118.57C95.405 118.628 95.4783 118.7 95.5112 118.705C95.6112 118.606 95.757 118.615 95.854 118.717C95.952 118.818 95.9315 118.984 95.8315 119.083C95.7407 119.17 95.6291 119.215 95.5093 119.215C95.4394 119.215 95.3682 119.2 95.2983 119.169C95.2808 119.161 95.2643 119.151 95.2476 119.142C95.7782 130.034 96.6299 141.005 97.7837 151.823L103.789 152.734C103.929 152.755 104.024 152.885 104.004 153.023C103.984 153.15 103.875 153.24 103.751 153.24C103.739 153.24 103.726 153.239 103.714 153.238L97.8394 152.348C97.8446 152.396 97.8497 152.445 97.855 152.494C97.8709 152.634 97.7683 152.759 97.6294 152.774C97.6206 152.775 97.6108 152.775 97.6021 152.775C97.4731 152.775 97.3631 152.68 97.3491 152.549C97.339 152.455 97.3289 152.362 97.3188 152.269L95.9741 152.065C95.6805 152.021 95.4584 151.913 95.3228 151.767L73.4946 152.25C73.4612 152.277 73.4269 152.304 73.3901 152.327C73.3491 152.353 73.3014 152.365 73.2544 152.365C73.1756 152.365 73.0992 152.328 73.0503 152.26L68.6392 152.357C68.6233 152.36 68.6077 152.365 68.5913 152.365C68.5756 152.365 68.5595 152.362 68.5435 152.359L61.6235 152.512C61.6192 152.91 61.6174 153.309 61.6128 153.707C61.6108 153.847 61.4969 153.959 61.3579 153.959H61.355C61.215 153.958 61.1021 153.842 61.103 153.701C61.1075 153.309 61.1095 152.916 61.1138 152.523L60.6411 152.534V156.569C60.6411 156.581 60.6386 156.592 60.6372 156.603C60.7 156.637 60.7492 156.697 60.7651 156.772C60.7938 156.909 60.7057 157.045 60.5688 157.074C57.392 157.75 54.1481 158.314 50.9272 158.752C50.9222 158.775 50.9138 158.796 50.9038 158.815C50.8427 158.929 50.7218 158.978 50.6079 158.978C50.5721 158.978 50.5373 158.972 50.5063 158.964C50.3623 158.921 50.2717 158.794 50.2827 158.645C50.2889 158.569 50.3397 158.316 50.73 158.264C53.8731 157.839 57.0392 157.293 60.144 156.641C60.1374 156.618 60.1333 156.594 60.1333 156.569V152.546L59.7427 152.555H59.7358C59.5978 152.555 59.4849 152.444 59.4819 152.306C59.4791 152.165 59.5911 152.049 59.73 152.045L60.1567 152.035C60.1671 152.013 60.1808 151.993 60.1968 151.975C60.1792 151.98 60.1611 151.984 60.1421 151.985C58.0591 152.128 55.9719 152.446 53.9409 152.931C53.9221 152.935 53.9012 152.936 53.8823 152.937C53.7664 152.937 53.6624 152.859 53.6353 152.741C53.6023 152.604 53.6858 152.467 53.8228 152.434C55.8828 151.943 57.9969 151.622 60.1069 151.477C60.2538 151.472 60.3693 151.574 60.3794 151.714C60.3839 151.785 60.3588 151.85 60.3149 151.899C60.3378 151.893 60.3621 151.888 60.3872 151.888C60.4848 151.888 60.5674 151.944 60.6099 152.024L60.7427 152.021C60.7183 151.982 60.7027 151.937 60.7017 151.889C60.3937 135.817 60.3918 119.519 60.6968 103.448C60.6998 103.307 60.8007 103.197 60.9565 103.197C60.9859 103.198 61.0144 103.203 61.0405 103.213C61.0149 101.362 60.9883 99.5132 60.9575 97.667C60.9391 97.6301 60.9208 97.5927 60.9028 97.5547C60.8668 97.5764 60.8353 97.6009 60.8101 97.6279C60.7511 97.6919 60.7561 97.7422 60.7671 97.7822C60.8079 97.917 60.7298 98.0585 60.5962 98.0986C60.5712 98.1056 60.5469 98.1103 60.5229 98.1104C60.4139 98.1104 60.3108 98.0377 60.2778 97.9287C60.2099 97.6958 60.2651 97.4672 60.436 97.2812C60.5085 97.2038 60.5992 97.138 60.7007 97.085C60.6294 96.9011 60.5612 96.7062 60.4966 96.5C59.009 91.7563 58.6496 86.6969 59.4419 81.7949C59.0108 81.5095 58.6749 81.0345 58.5024 80.4434C58.3234 79.8294 58.3333 79.1988 58.3413 78.5908C58.3434 78.4499 58.4392 78.3249 58.5981 78.3389ZM97.5513 156.298L104.062 157.716C104.2 157.746 104.288 157.881 104.258 158.018C104.231 158.137 104.126 158.219 104.009 158.219C103.991 158.219 103.972 158.217 103.954 158.213L97.4409 156.796C97.305 156.765 97.2167 156.63 97.2466 156.492C97.2766 156.355 97.4123 156.267 97.5513 156.298ZM62.189 156.703C73.2979 156.121 84.5672 156.079 95.6812 156.575C95.8209 156.582 95.9292 156.701 95.9243 156.841C95.9173 156.981 95.8017 157.097 95.6567 157.084C84.5599 156.588 73.3091 156.632 62.2163 157.213H62.2017C62.0677 157.213 61.9557 157.107 61.9478 156.972C61.9409 156.83 62.0491 156.711 62.189 156.703ZM52.9927 152.54C53.1337 152.551 53.239 152.672 53.229 152.812C53.1601 153.793 53.1917 154.783 53.3276 155.757C53.3466 155.896 53.2489 156.024 53.1089 156.044C53.0979 156.045 53.0867 156.046 53.0737 156.046C52.9499 156.046 52.8398 155.953 52.8228 155.826C52.6828 154.818 52.6492 153.792 52.7222 152.776C52.7302 152.637 52.8478 152.526 52.9927 152.54ZM95.895 152.931C96.0279 152.927 96.1565 153.029 96.1655 153.17L96.2974 155.253C96.3054 155.393 96.2 155.514 96.0581 155.522C96.0541 155.522 96.0475 155.523 96.0425 155.523C95.9087 155.523 95.7967 155.419 95.7876 155.284L95.6567 153.202C95.6477 153.061 95.755 152.94 95.895 152.931ZM104.375 153.202C104.514 153.218 104.616 153.344 104.599 153.483L104.39 155.297C104.376 155.428 104.265 155.522 104.139 155.522C104.128 155.522 104.119 155.522 104.108 155.521C103.97 155.505 103.868 155.379 103.886 155.239L104.094 153.426C104.109 153.286 104.237 153.185 104.375 153.202ZM61.4644 97.5439C61.8628 98.3011 62.3435 98.7384 62.9185 98.8701C63.0554 98.9011 63.1408 99.0369 63.1089 99.1748C63.0829 99.2928 62.9768 99.3721 62.8608 99.3721C62.843 99.3721 62.8231 99.3711 62.8042 99.3662C62.2987 99.2504 61.8582 98.9615 61.478 98.4941C61.7674 116.25 61.8185 134.237 61.6294 152.001L66.4858 151.895C66.2953 151.865 66.1275 151.742 66.0552 151.573C66.0132 151.475 65.9983 151.369 66.0093 151.261C65.8664 151.237 65.709 151.24 65.561 151.269C65.468 151.288 65.3729 151.31 65.2769 151.334C64.8479 151.435 64.3605 151.551 63.9175 151.32C63.7936 151.256 63.7441 151.101 63.8091 150.976C63.8742 150.852 64.028 150.804 64.1528 150.868C64.4288 151.011 64.7838 150.927 65.1587 150.837C65.2616 150.813 65.3615 150.789 65.4614 150.769C65.7154 150.72 65.9823 150.726 66.2173 150.782C66.5273 150.408 67.0678 150.247 67.5327 150.389C67.7867 150.466 68.0067 150.635 68.1636 150.85C68.2624 150.712 68.3924 150.603 68.5464 150.539C68.8343 150.419 69.1633 150.432 69.4731 150.579C69.5901 150.635 69.6973 150.708 69.7944 150.792C70.3062 150.394 70.8577 149.991 71.5093 149.81C72.2811 149.597 73.0804 149.774 73.5454 150.264C73.8304 150.562 73.9724 151.016 73.9194 151.448C73.9071 151.548 73.8841 151.642 73.853 151.731L81.8999 151.554C81.8962 151.539 81.8942 151.524 81.8931 151.509C81.8621 151.1 82.0062 150.709 82.3081 150.376C82.7001 149.946 83.3137 149.673 83.9126 149.662C84.2375 149.658 84.8566 149.716 85.2437 150.177C85.3709 150.327 85.4517 150.517 85.48 150.716C85.5482 150.641 85.633 150.562 85.7417 150.483C85.9617 150.325 86.6294 149.844 87.2954 150.059C87.5493 150.141 87.7277 150.343 87.8257 150.567C87.9347 150.495 88.0569 150.438 88.1919 150.405C88.4879 150.331 88.8381 150.432 89.0601 150.657C89.134 150.731 89.1872 150.812 89.2231 150.899C89.8951 150.686 90.5923 150.569 91.3003 150.55C91.5641 150.545 91.8427 150.557 92.0825 150.708C92.2484 150.811 92.3735 150.987 92.4155 151.176C92.4267 151.224 92.4303 151.273 92.4302 151.32L95.2017 151.259C95.2468 151.17 95.3434 151.115 95.4526 151.122C95.5383 151.13 95.61 151.18 95.6499 151.249H95.6626C95.8206 151.248 95.9203 151.358 95.9233 151.499C95.9236 151.51 95.9216 151.521 95.9204 151.532C95.9595 151.543 96.0028 151.553 96.0503 151.561L97.2632 151.744C95.965 139.551 95.0503 127.164 94.5464 114.917C94.5437 114.855 94.5648 114.797 94.6001 114.751C94.5964 114.745 94.5907 114.74 94.5874 114.733C93.0254 111.627 89.6434 109.44 86.1694 109.291C86.0876 109.287 86.0122 109.244 85.9673 109.175C85.3753 108.258 84.2757 107.628 82.7007 107.305C82.2038 107.202 81.6869 107.13 81.187 107.06C80.3571 106.946 79.4991 106.826 78.6792 106.562C76.9962 106.022 75.5813 104.92 74.2153 103.852C73.9215 103.623 73.6274 103.393 73.3325 103.17C70.2836 100.868 66.8877 99.1318 63.2378 98.0078C63.0003 97.9343 62.7455 97.8554 62.5151 97.7266C62.2671 97.7175 62.0268 97.6411 61.8062 97.5703C61.6912 97.5332 61.5766 97.4958 61.4634 97.4697C61.4638 97.4945 61.4639 97.5192 61.4644 97.5439ZM67.3823 150.877C67.1574 150.807 66.8914 150.865 66.7065 151.013C66.8665 151.145 66.9675 151.321 66.9985 151.522C67.0074 151.586 66.9925 151.651 66.9565 151.705C66.8877 151.806 66.7827 151.868 66.6616 151.891L68.0239 151.86C68.0005 151.797 67.9816 151.731 67.9712 151.66C67.9296 151.62 67.9013 151.565 67.895 151.503C67.867 151.222 67.6523 150.959 67.3823 150.877ZM69.2563 151.041C69.0783 150.956 68.8937 150.945 68.7407 151.009C68.548 151.091 68.4644 151.33 68.4692 151.516C68.4711 151.576 68.4882 151.765 68.6294 151.848L69.6108 151.825C69.4942 151.749 69.4207 151.635 69.4097 151.495C69.4013 151.392 69.427 151.285 69.4731 151.186C69.4079 151.128 69.3349 151.078 69.2563 151.041ZM73.1763 150.614C72.8383 150.26 72.2368 150.137 71.646 150.302C71.0882 150.456 70.6038 150.806 70.1177 151.188C70.1623 151.269 70.1988 151.354 70.2251 151.442C70.2648 151.577 70.1879 151.72 70.0542 151.76C70.0262 151.768 69.9978 151.77 69.9702 151.769C69.9568 151.787 69.9416 151.804 69.9243 151.818L73.2778 151.744C73.3693 151.619 73.4028 151.476 73.4146 151.386C73.4495 151.101 73.3572 150.806 73.1763 150.614ZM83.9214 150.172C83.4666 150.181 82.98 150.394 82.6851 150.72C82.5421 150.878 82.376 151.136 82.4009 151.471C82.4028 151.495 82.3989 151.519 82.394 151.542L84.7095 151.491C84.6884 151.391 84.7291 151.283 84.8218 151.223C84.9267 151.158 84.9641 151.045 84.9761 150.963C85.001 150.802 84.953 150.622 84.854 150.505C84.671 150.286 84.3214 150.164 83.9214 150.172ZM85.2896 151.479H85.2925L85.2915 151.477L85.2896 151.479ZM87.1382 150.544C86.8542 150.452 86.4965 150.567 86.0405 150.896C85.8416 151.039 85.7293 151.193 85.7603 151.277C85.7825 151.342 85.7773 151.41 85.7515 151.468L87.1489 151.438C87.1324 151.366 87.1445 151.29 87.1899 151.229C87.2499 151.146 87.32 151.053 87.3999 150.957V150.956C87.3979 150.798 87.2971 150.596 87.1382 150.544ZM88.3149 150.899C88.1551 150.939 88.0142 151.046 87.8813 151.185C87.8561 151.275 87.8131 151.355 87.7573 151.424L88.8081 151.4C88.7582 151.339 88.7396 151.257 88.7593 151.18C88.7721 151.126 88.7526 151.07 88.6987 151.016C88.6007 150.919 88.4358 150.869 88.3149 150.899ZM91.312 151.059C90.6503 151.076 89.9959 151.187 89.3667 151.388L91.9194 151.331C91.9217 151.316 91.9217 151.301 91.9185 151.288C91.9055 151.231 91.863 151.172 91.812 151.14C91.693 151.065 91.5279 151.053 91.312 151.059ZM79.0835 112.572C79.2255 112.57 79.3422 112.679 79.3462 112.82L80.4341 150.968C80.4391 151.108 80.3289 151.225 80.187 151.23H80.1802C80.0433 151.23 79.9305 151.12 79.9263 150.982L78.8364 112.834C78.8314 112.693 78.9417 112.576 79.0835 112.572ZM93.8003 114.65C93.9429 114.645 94.0577 114.755 94.064 114.895C94.514 126.525 95.1655 138.307 96.0005 149.915C96.0115 150.056 95.906 150.178 95.7651 150.188H95.7456C95.6138 150.187 95.5017 150.086 95.4927 149.951C94.6567 138.339 94.0052 126.551 93.5562 114.915C93.5502 114.774 93.6593 114.656 93.8003 114.65ZM64.5991 107.211C64.7459 107.194 64.8652 107.295 64.8823 107.434C66.5123 121.383 66.7588 135.554 65.6138 149.551C65.6028 149.684 65.4919 149.785 65.3599 149.785H65.3384C65.1986 149.772 65.095 149.65 65.106 149.51C66.2469 135.546 66.0015 121.409 64.3755 107.493C64.3585 107.353 64.4601 107.227 64.5991 107.211ZM67.9106 107.489C68.0556 107.485 68.1703 107.593 68.1753 107.733C68.7073 121.46 69.1003 135.392 69.3433 149.144C69.3463 149.285 69.2333 149.401 69.0933 149.403H69.0884C68.9497 149.403 68.8367 149.292 68.8335 149.153C68.5915 135.404 68.1985 121.475 67.6665 107.754C67.6606 107.613 67.7707 107.495 67.9106 107.489ZM92.0063 114.918C92.1483 114.92 92.265 115.024 92.269 115.166L93.2124 149.007C93.2154 149.147 93.1054 149.264 92.9644 149.269H92.9575C92.8207 149.268 92.7066 149.158 92.7026 149.021L91.7593 115.18C91.7564 115.039 91.8657 114.922 92.0063 114.918ZM61.1128 109.111C60.9235 122.187 60.9387 135.377 61.1538 148.439C61.2693 135.374 61.2552 122.205 61.1128 109.111ZM88.7817 115.823C88.9206 115.816 89.044 115.92 89.0542 116.06C89.7522 126.168 90.3085 136.422 90.7085 146.535C90.7134 146.676 90.6041 146.794 90.4644 146.8H90.4536C90.3168 146.8 90.2047 146.692 90.1987 146.555C89.8007 136.446 89.2444 126.199 88.5464 116.097C88.5355 115.955 88.6409 115.834 88.7817 115.823ZM63.4038 115.694C63.5488 115.689 63.6625 115.802 63.6665 115.942C63.9495 126.014 63.8861 136.225 63.4741 146.293C63.4701 146.431 63.3551 146.538 63.2202 146.538C63.2172 146.538 63.2125 146.538 63.2095 146.537C63.0688 146.531 62.9595 146.413 62.9663 146.273C63.3763 136.217 63.4397 126.016 63.1567 115.957C63.1527 115.816 63.2638 115.698 63.4038 115.694ZM74.7583 111.918C74.9021 111.904 75.016 112.023 75.021 112.164L76.1011 143.673C76.1061 143.813 75.9959 143.93 75.855 143.936H75.8472C75.7103 143.936 75.5975 143.828 75.5933 143.69L74.5132 112.181C74.5084 112.041 74.6184 111.923 74.7583 111.918ZM82.9731 115.303C83.1179 115.291 83.2308 115.406 83.2368 115.548L84.2925 143.543C84.2975 143.682 84.1874 143.802 84.0474 143.806H84.0376C83.9007 143.806 83.7877 143.698 83.7827 143.562L82.728 115.566C82.722 115.426 82.8331 115.307 82.9731 115.303ZM71.3823 110.095C71.5201 110.095 71.639 110.202 71.644 110.343L72.5679 143.284C72.5718 143.426 72.4607 143.542 72.3208 143.546H72.313C72.176 143.546 72.0631 143.436 72.0581 143.299L71.1353 110.357C71.1313 110.216 71.2413 110.098 71.3823 110.095ZM84.7407 109.579C84.8717 109.567 84.9965 109.69 84.9985 109.831C85.1465 120.573 85.2604 131.478 85.3364 142.246C85.3374 142.387 85.2225 142.501 85.0835 142.503H85.0815C84.9407 142.503 84.8267 142.389 84.8267 142.25C84.7517 131.484 84.6378 120.578 84.4888 109.838C84.4868 109.698 84.5998 109.582 84.7407 109.579ZM136.647 25.7607C136.789 25.7398 136.915 25.8398 136.933 25.9775C136.953 26.1184 136.856 26.2455 136.717 26.2646L135.52 26.4287C135.577 26.4722 135.618 26.5383 135.622 26.6152C135.63 26.7551 135.522 26.8748 135.383 26.8838L134.768 26.918C133.446 30.4144 131.762 33.7867 129.757 36.9414L129.51 37.3301C128.244 39.3128 126.94 41.3546 126.883 43.5225C128.368 43.0356 129.449 41.5964 130.322 40.2139C132.143 37.3303 133.689 34.2549 134.919 31.0723C134.418 31.0629 133.917 31.0524 133.417 31.0381C133.275 31.034 133.166 30.9171 133.168 30.7754C133.173 30.6354 133.308 30.5353 133.431 30.5283C137.659 30.6503 141.945 30.5925 146.171 30.3516C146.305 30.3436 146.431 30.4509 146.439 30.5928C146.448 30.7328 146.341 30.8533 146.2 30.8613C143.393 31.0203 140.558 31.0996 137.733 31.0996C136.971 31.0996 136.208 31.0926 135.448 31.0811C135.447 31.109 135.443 31.1375 135.432 31.165C134.183 34.41 132.608 37.5463 130.753 40.4863C129.803 41.9924 128.607 43.5631 126.894 44.0518C126.904 44.1983 126.921 44.3455 126.944 44.4932C126.944 44.4964 126.943 44.4997 126.944 44.5029C127.141 44.4555 127.34 44.4114 127.537 44.3623C127.674 44.3303 127.811 44.4119 127.846 44.5479C127.88 44.6839 127.797 44.8234 127.66 44.8574C121.928 46.2854 116.058 47.0049 110.166 47.0049C109.051 47.0049 107.937 46.9767 106.822 46.9248C106.235 47.2785 105.634 47.6065 105.015 47.8984C105.049 48.0209 104.988 48.151 104.867 48.2012C102.614 49.1152 100.284 49.9105 97.9458 50.5635C97.9301 50.5676 97.9136 50.5677 97.8979 50.5693L99.854 90.834C100.006 93.9539 100.163 97.1808 99.438 100.303C99.207 101.299 98.734 101.941 98.1372 102.103L98.1353 102.108C98.0982 102.214 97.9999 102.279 97.894 102.279C97.8661 102.279 97.838 102.274 97.8101 102.265C97.7938 102.259 97.7785 102.252 97.7642 102.243C97.5949 106.293 97.4882 110.398 97.4517 114.453C97.4307 116.748 97.298 118.932 95.894 120.455C95.845 120.51 95.7755 120.538 95.7065 120.538C95.6447 120.538 95.5826 120.515 95.5337 120.471C95.431 120.375 95.4253 120.215 95.519 120.111C96.8 118.722 96.9229 116.639 96.9419 114.449C96.9744 110.935 97.0594 107.383 97.1909 103.861C94.7839 104.2 92.5362 105.461 90.9995 107.348C90.9496 107.41 90.8761 107.442 90.8022 107.442C90.7453 107.442 90.6891 107.423 90.6411 107.385C90.5321 107.296 90.5151 107.136 90.604 107.026C92.2404 105.017 94.6427 103.681 97.2114 103.345C97.2288 102.897 97.2443 102.449 97.2632 102.002C97.1105 101.924 96.9834 101.827 96.8882 101.739C96.4301 101.316 96.2271 100.689 96.3257 100.126C96.1171 100.145 95.9083 100.156 95.6997 100.156C95.4959 100.156 95.2923 100.145 95.0894 100.126C95.0917 100.323 95.0948 100.52 95.0972 100.717C95.0992 100.857 94.986 100.971 94.8462 100.974H94.8442C94.7042 100.974 94.5894 100.863 94.5884 100.723C94.5858 100.502 94.5823 100.281 94.5796 100.06C93.527 99.8806 92.5149 99.4537 91.6626 98.8086C91.551 98.7236 91.528 98.565 91.6128 98.4521C91.6968 98.3411 91.8572 98.3173 91.9702 98.4033C92.7327 98.979 93.6333 99.3669 94.5728 99.541C94.3101 78.0576 93.8227 56.2991 93.1196 34.8486C93.1148 34.7078 93.2249 34.591 93.3667 34.5859C93.4977 34.5709 93.6244 34.691 93.6284 34.832C94.3334 56.3135 94.8211 78.1015 95.0825 99.6133C95.483 99.6538 95.8871 99.6566 96.2876 99.6172C96.3585 99.611 96.4266 99.6356 96.478 99.6797C96.4881 99.6607 96.4983 99.6416 96.5093 99.623C96.7203 99.2661 97.1093 99.0161 97.5503 98.9551C97.9491 98.8972 98.3332 99.0108 98.6001 99.2627C98.8631 99.5107 98.9785 99.9 98.9155 100.29C98.9275 100.247 98.9349 100.213 98.9419 100.188C99.6489 97.1356 99.4952 93.9443 99.3452 90.8594L96.6616 35.6387C96.6538 35.4979 96.763 35.3791 96.9028 35.3721C97.0428 35.3631 97.1634 35.4723 97.1714 35.6143L97.314 38.5664L99.1196 36.7344C99.2196 36.6354 99.38 36.6334 99.48 36.7314C99.5807 36.8304 99.5818 36.9919 99.4829 37.0918L97.4155 39.1904C97.3954 39.2109 97.3717 39.2254 97.3472 39.2373L97.8726 50.0527C99.5439 49.5844 101.208 49.0429 102.843 48.4375C102.82 48.3149 102.893 48.1915 103.014 48.1504C104.063 47.8077 105.059 47.3431 106.019 46.8018C105.981 46.7543 105.958 46.6935 105.961 46.6279C105.969 46.4869 106.093 46.3697 106.23 46.3877C106.383 46.396 106.535 46.4009 106.688 46.4082C108.479 45.3136 110.146 43.9702 111.779 42.6514C112.421 42.1345 113.061 41.6162 113.707 41.1152C116.634 38.8433 119.79 36.8269 123.083 35.126C123.208 35.06 123.363 35.1104 123.427 35.2354C123.492 35.3603 123.442 35.5142 123.318 35.5791C120.051 37.265 116.924 39.2637 114.019 41.5176C113.376 42.0165 112.738 42.5319 112.099 43.0488C110.643 44.2242 109.159 45.4196 107.581 46.4482C113.929 46.6747 120.266 46.0606 126.454 44.6201C126.448 44.6042 126.443 44.5877 126.44 44.5703C126.419 44.4333 126.403 44.2963 126.392 44.1602C126.389 44.1603 126.385 44.1611 126.382 44.1611C126.258 44.1611 126.151 44.0711 126.131 43.9463C126.108 43.8063 126.203 43.6773 126.343 43.6543C126.353 43.6527 126.363 43.6501 126.374 43.6484C126.388 41.2722 127.808 39.0463 129.08 37.0557L129.327 36.668C131.272 33.6051 132.914 30.3389 134.213 26.9502L114.101 28.0977C113.56 28.7829 112.984 29.4436 112.378 30.0654C112.327 30.1164 112.262 30.1416 112.195 30.1416C112.131 30.1416 112.067 30.1181 112.018 30.0703C111.916 29.9723 111.915 29.81 112.013 29.71C112.584 29.1233 113.13 28.5019 113.643 27.8574C113.642 27.7388 113.723 27.6364 113.835 27.6074C113.942 27.4696 114.05 27.333 114.154 27.1934C114.238 27.0804 114.398 27.0566 114.511 27.1396C114.624 27.2237 114.647 27.3851 114.563 27.4971C114.546 27.5196 114.528 27.541 114.511 27.5635L134.43 26.4268C134.477 26.3741 134.544 26.3433 134.615 26.3418C134.611 26.3283 134.607 26.3143 134.605 26.2998C134.586 26.1599 134.683 26.0317 134.823 26.0127L136.647 25.7607ZM69.4165 83.9385C69.5395 83.8705 69.6952 83.9151 69.7642 84.0381C73.8161 91.339 78.8521 98.0476 84.728 103.978C84.828 104.078 84.8269 104.24 84.7271 104.339C84.6782 104.389 84.6132 104.413 84.5493 104.413C84.4833 104.413 84.4167 104.388 84.3667 104.338C78.4578 98.373 73.3928 91.6271 69.3179 84.2852C69.25 84.1623 69.2939 84.0076 69.4165 83.9385ZM97.6196 99.459C97.3358 99.499 97.0777 99.6609 96.9478 99.8828C96.6858 100.324 96.8109 100.974 97.2329 101.364C97.3005 101.426 97.3724 101.476 97.4438 101.518C97.4738 101.507 97.506 101.502 97.5396 101.504C97.6281 101.508 97.7041 101.557 97.7466 101.627C97.7518 101.628 97.757 101.63 97.7622 101.631L97.9048 101.219C97.8349 101.185 97.7802 101.121 97.7642 101.039C97.6662 100.562 97.949 100.056 98.394 99.875C98.367 99.784 98.3205 99.6988 98.2495 99.6318C98.1235 99.514 97.9463 99.4502 97.7505 99.4502C97.7086 99.4502 97.6635 99.453 97.6196 99.459ZM98.7866 100.685C98.7156 100.824 98.6212 100.942 98.5103 101.033L98.397 101.354C98.57 101.167 98.6976 100.913 98.7866 100.685ZM66.9595 66.6221C67.0925 66.5781 67.2377 66.6492 67.2817 66.7822C71.0137 77.907 75.7856 88.7527 81.4624 99.0195C81.5304 99.1425 81.4858 99.2992 81.3618 99.3662C81.3238 99.3892 81.2807 99.3984 81.2397 99.3984C81.1498 99.3984 81.0631 99.3506 81.0171 99.2666C75.3242 88.9717 70.5403 78.0982 66.7983 66.9453C66.7544 66.8114 66.8267 66.6672 66.9595 66.6221ZM87.2778 59.8438C87.4257 59.8537 87.5345 59.9549 87.5356 60.0957C87.6616 72.6207 87.5862 85.3264 87.3062 97.8594C87.3057 97.8812 87.301 97.9019 87.2954 97.9219C87.5047 98.0542 87.7331 98.1501 87.9634 98.1953C88.8354 98.3663 89.853 98.0223 90.688 97.2764C90.794 97.1814 90.9543 97.1909 91.0483 97.2959C91.1412 97.3999 91.1328 97.5613 91.0278 97.6562C90.2409 98.3592 89.2966 98.748 88.4126 98.748C88.2257 98.748 88.0437 98.7303 87.8647 98.6953C86.6138 98.4503 85.6921 97.2376 85.8911 96.0996C85.9163 95.9619 86.0492 95.8696 86.186 95.8926C86.325 95.9186 86.419 96.0515 86.394 96.1895C86.3103 96.6674 86.4912 97.1328 86.8042 97.498C87.0759 85.0852 87.1517 72.5044 87.0249 60.0996C87.0241 59.9598 87.138 59.8458 87.2778 59.8438ZM70.0464 65.5488C70.1624 65.4702 70.321 65.5003 70.3999 65.6162C74.1898 71.2071 78.1636 76.7882 82.2085 82.2041C82.2935 82.3171 82.2697 82.4756 82.1567 82.5596C82.1119 82.5945 82.0582 82.6112 82.0063 82.6113C81.9294 82.6113 81.8513 82.5758 81.8013 82.5088C78.1503 77.621 74.5586 72.5988 71.106 67.5557C72.6596 72.7436 75.2383 77.6312 77.7397 82.3701C80.0237 86.6961 82.3872 91.1711 83.9731 95.8721C84.019 96.007 83.9479 96.1503 83.8149 96.1963C83.787 96.2053 83.7609 96.209 83.7319 96.209C83.626 96.209 83.5267 96.1421 83.4907 96.0361C81.9167 91.3732 79.5625 86.9174 77.2886 82.6074C74.5456 77.4124 71.7094 72.0397 70.2114 66.2617C70.2096 66.2543 70.2097 66.2466 70.2085 66.2393C70.132 66.1267 70.0544 66.0149 69.978 65.9023C69.9 65.7863 69.9304 65.6278 70.0464 65.5488ZM86.3813 25.0811C86.5213 25.0831 86.6343 25.1989 86.6313 25.3398C86.5263 31.9717 87.0158 38.7088 87.4888 45.2227C87.6238 47.0747 87.7584 48.9273 87.8794 50.7773C88.8504 65.5662 89.0082 80.5721 88.3452 95.3779C88.3382 95.5139 88.2234 95.6211 88.0894 95.6211H88.0776C87.9368 95.614 87.8287 95.4952 87.8345 95.3555C88.4975 80.5685 88.3416 65.5806 87.3706 50.8096C87.2486 48.9607 87.1149 47.1106 86.981 45.2607C86.508 38.7338 86.0166 31.986 86.1226 25.3311C86.1246 25.1912 86.2326 25.0703 86.3813 25.0811ZM20.3022 29.2764C20.4322 29.2255 20.5814 29.2919 20.6313 29.4229C21.9843 32.9309 24.334 35.9902 26.605 38.9502C27.9819 40.7411 29.405 42.596 30.6069 44.5439C31.0079 45.1909 31.4398 45.951 31.5298 46.791C31.5324 46.8151 31.5299 46.8385 31.5259 46.8613L41.5815 46.543C43.5525 46.479 45.5911 46.4149 47.5581 46.9189C49.3841 47.387 51.045 48.3235 52.6489 49.2305C53.8688 49.9204 55.1309 50.633 56.4458 51.126C56.4908 51.143 56.5274 51.172 56.5552 51.207C56.643 47.6058 56.7617 44.0104 56.9116 40.4307C56.9168 40.2898 57.0404 40.1766 57.1772 40.1855C57.3171 40.1927 57.4274 40.3113 57.4214 40.4521C56.9389 51.9621 56.7777 63.6322 56.9429 75.1533L57.3042 75.042C57.7212 74.913 58.2442 74.8091 58.5991 75.166C58.9739 75.539 58.816 76.0404 58.688 76.4434C58.642 76.5883 58.5967 76.7285 58.5737 76.8594C59.1277 76.5064 59.7198 76.2312 60.3628 76.3262C60.5307 76.3492 60.6865 76.3983 60.8364 76.4453C60.9014 76.4663 60.9668 76.4849 61.0317 76.5039C61.2717 76.5679 61.5198 76.6017 61.7817 76.6387C61.9067 76.6547 62.0318 76.6734 62.1567 76.6924C63.431 76.904 64.64 77.4885 65.6021 78.3506C64.8616 67.1733 64.609 55.8577 64.8462 44.668C64.8446 44.6672 64.8429 44.6668 64.8413 44.666C64.6354 44.5611 64.47 44.3692 64.3999 44.1514C64.3841 44.101 64.3746 44.0496 64.3696 43.999C63.8379 43.4657 63.202 43.034 62.5093 42.7461C62.3783 42.6911 62.3157 42.543 62.3696 42.4131C62.4236 42.2821 62.5736 42.2224 62.7026 42.2754C63.3996 42.5638 64.0434 42.9854 64.5933 43.5049C64.654 43.4873 64.7211 43.4924 64.7817 43.5234C64.8456 43.5572 64.889 43.6136 64.9077 43.6777C64.954 43.6115 65.0329 43.5697 65.1245 43.5684C65.2645 43.5724 65.3765 43.6881 65.3735 43.8291C65.37 43.9804 65.3671 44.1318 65.3638 44.2832C65.4941 44.294 65.6321 44.2884 65.7603 44.2812C72.0071 43.9163 78.3379 43.5102 84.5767 43.0742C84.7165 43.0692 84.8399 43.1708 84.8491 43.3096C84.8591 43.4506 84.7528 43.573 84.6118 43.583C78.3708 44.018 72.0375 44.425 65.7886 44.79C65.7167 44.7949 65.6383 44.7972 65.5581 44.7988C65.5458 44.8649 65.509 44.9262 65.4487 44.9658C65.4179 44.9859 65.3836 44.9956 65.3491 45.001C65.1196 56.2676 65.3879 67.6587 66.1489 78.9053C66.476 79.287 66.6834 79.6517 66.7886 80.0361C66.9646 80.6701 66.8128 81.3421 66.4058 81.7461C66.3558 81.795 66.292 81.8203 66.2261 81.8203C66.1621 81.8203 66.0944 81.7951 66.0454 81.7441C65.9456 81.6442 65.9466 81.4818 66.0464 81.3838C66.3254 81.1058 66.4253 80.6309 66.2993 80.1709C66.2791 80.0984 66.252 80.0271 66.2222 79.9551C66.2384 80.1861 66.2543 80.4175 66.271 80.6484C66.2817 80.7892 66.1755 80.9109 66.0356 80.9209H66.0161C65.8851 80.9209 65.7722 80.8186 65.7642 80.6846C65.7263 80.1615 65.6905 79.638 65.6548 79.1143C65.6133 79.0692 65.5704 79.0227 65.5249 78.9766C64.5979 78.0437 63.3716 77.4113 62.0737 77.1953C61.9538 77.1763 61.8333 77.1586 61.7134 77.1416C61.4456 77.1056 61.1707 77.0691 60.8979 76.9951C60.827 76.9751 60.757 76.9526 60.686 76.9316C60.549 76.8886 60.4176 76.8481 60.2886 76.8301C59.6837 76.7442 59.0946 77.1085 58.4927 77.5254C58.4287 77.5702 58.3468 77.5826 58.272 77.5586C58.198 77.5356 58.1379 77.4801 58.1099 77.4072C57.9669 77.0313 58.0927 76.638 58.2017 76.2891C58.3336 75.8762 58.3796 75.6654 58.2397 75.5264C58.0747 75.3614 57.7126 75.4483 57.4536 75.5283L56.9497 75.6836C56.9512 75.7809 56.9531 75.8783 56.9546 75.9756C56.9576 76.1166 56.8466 76.2334 56.7046 76.2354H56.7007C56.5609 76.2352 56.448 76.1241 56.4458 75.9844C56.445 75.9363 56.4436 75.8879 56.4429 75.8398L56.4214 75.8477C56.2865 75.8884 56.144 75.8136 56.103 75.6807C56.0612 75.5457 56.1371 75.4033 56.271 75.3613L56.436 75.3096C56.3205 67.4203 56.3572 59.461 56.5464 51.5303C56.4978 51.5854 56.4299 51.6191 56.356 51.6191C56.327 51.6191 56.2981 51.6135 56.2671 51.6025C54.9141 51.0955 53.6349 50.3728 52.3989 49.6738C50.823 48.7829 49.192 47.8631 47.4312 47.4121C45.5352 46.9281 43.5341 46.9908 41.5972 47.0518L31.2368 47.3799C31.0999 47.3888 30.9781 47.2738 30.9751 47.1338C30.973 47.0582 31.0036 46.9896 31.0542 46.9414C31.0378 46.9123 31.027 46.8791 31.0229 46.8438C30.9449 46.1108 30.5613 45.4365 30.1743 44.8105C28.9863 42.8846 27.5696 41.0427 26.2017 39.2607C23.9068 36.2709 21.5348 33.1812 20.1548 29.6064C20.1038 29.4744 20.1702 29.3274 20.3022 29.2764ZM77.2935 46.0244C77.4114 45.9486 77.568 45.9809 77.644 46.0996C79.108 48.3666 81.2933 50.166 83.7983 51.166C83.9882 51.242 84.188 51.3142 84.3579 51.2812C84.4288 51.2673 84.5006 51.219 84.5366 51.1611C84.5566 51.1302 84.565 51.1021 84.5591 51.0781C84.5271 50.9412 84.6107 50.8046 84.7485 50.7705C84.8845 50.7385 85.0222 50.8239 85.0552 50.9609C85.0931 51.1198 85.0611 51.2886 84.9663 51.4365C84.8523 51.6115 84.6616 51.7413 84.4556 51.7812C84.3927 51.7942 84.3299 51.7998 84.2681 51.7998C84.0321 51.7998 83.8069 51.7187 83.6079 51.6387C81.007 50.5987 78.7372 48.7299 77.2173 46.377C77.1403 46.259 77.1755 46.1004 77.2935 46.0244ZM79.3901 44.5195C79.5051 44.4359 79.6637 44.4604 79.7476 44.5732C80.9295 46.1712 82.2429 47.6899 83.6538 49.0908C83.7638 49.1998 83.8742 49.2969 83.9692 49.2959L83.9702 49.2949C83.9033 49.209 83.8957 49.0871 83.9604 48.9922C84.0404 48.8772 84.1989 48.8468 84.3149 48.9277C84.4679 49.0327 84.5291 49.2153 84.4751 49.4033C84.414 49.6242 84.2115 49.7937 83.9956 49.8047C83.9837 49.8057 83.9714 49.8057 83.9604 49.8057C83.6496 49.8055 83.4204 49.5781 83.2954 49.4531C81.8655 48.0342 80.5344 46.4949 79.3374 44.876C79.2536 44.764 79.2782 44.6025 79.3901 44.5195ZM81.7524 44.6387C81.8774 44.5737 82.0312 44.625 82.0962 44.75C82.7601 46.0438 83.5985 47.2388 84.5903 48.3047C85.0321 48.7785 85.3985 48.9761 85.7104 48.9014C85.8464 48.8714 85.985 48.9549 86.0171 49.0928C86.0491 49.2288 85.9627 49.3664 85.8257 49.3994C85.7398 49.4184 85.6566 49.4277 85.5747 49.4277C85.013 49.4277 84.5392 48.9973 84.2192 48.6523C83.1954 47.5535 82.3281 46.3183 81.6421 44.9824C81.5781 44.8575 81.6266 44.7027 81.7524 44.6387ZM117.321 31.6943C117.443 31.6243 117.598 31.6651 117.67 31.7881C117.74 31.91 117.697 32.0648 117.575 32.1357C110.886 35.9787 104.681 40.6469 99.1323 46.0098C98.9355 46.1976 98.7744 46.4405 98.853 46.5576C98.932 46.6746 98.9016 46.8331 98.7856 46.9121C98.7417 46.942 98.6919 46.957 98.6421 46.957C98.5611 46.957 98.4812 46.9167 98.4312 46.8447C98.2063 46.5127 98.3309 46.0736 98.7769 45.6416C104.356 40.2517 110.596 35.5573 117.321 31.6943ZM20.8481 34.4727C20.977 34.417 21.128 34.4739 21.1831 34.6025C23.2231 39.1945 26.3613 43.2968 30.2603 46.4648C30.3691 46.5539 30.3853 46.7143 30.2964 46.8242C30.2455 46.8859 30.1729 46.9169 30.0991 46.917C30.0422 46.917 29.9849 46.8982 29.938 46.8604C25.977 43.6414 22.7902 39.4746 20.7192 34.8096C20.6624 34.6806 20.7192 34.5306 20.8481 34.4727ZM28.6382 33.5703C28.7222 33.4593 28.8837 33.4374 28.9937 33.5234C34.2756 37.5774 39.9248 41.2392 45.7817 44.4092C45.9056 44.4761 45.953 44.6309 45.8862 44.7549C45.8392 44.8399 45.7506 44.8877 45.6606 44.8877C45.6197 44.8877 45.5775 44.8794 45.5396 44.8574C39.6576 41.6764 33.9871 37.9967 28.6831 33.9268C28.5731 33.8418 28.5522 33.6823 28.6382 33.5703ZM37.6196 33.29C37.7136 33.1841 37.874 33.1738 37.979 33.2656C40.4959 35.4705 43.4407 37.1848 46.2905 38.8447L53.814 43.2227C53.936 43.2937 53.9767 43.4503 53.9067 43.5723C53.8597 43.6531 53.7739 43.6992 53.686 43.6992C53.6421 43.6992 53.5991 43.687 53.5581 43.6641L46.0337 39.2852C43.1638 37.6142 40.196 35.8873 37.644 33.6504C37.5381 33.5574 37.5278 33.395 37.6196 33.29ZM33.395 33.6113C33.4869 33.5054 33.6474 33.4932 33.7544 33.585C38.1944 37.426 43.2442 40.3924 48.7622 42.4014C48.8938 42.4505 48.9613 42.5958 48.9136 42.7266C48.8756 42.8304 48.7791 42.8963 48.6753 42.8965C48.6463 42.8965 48.6154 42.8909 48.5874 42.8799C43.0116 40.8489 37.9073 37.8516 33.4204 33.9707C33.3138 33.8777 33.3042 33.7182 33.395 33.6113ZM42.6743 27.8525C42.7713 27.752 42.9318 27.7491 43.0337 27.8457C48.8017 33.3747 55.3468 37.9932 62.4888 41.5762C62.6137 41.6392 62.665 41.793 62.6021 41.9189C62.5571 42.0069 62.4675 42.0576 62.3735 42.0576C62.3358 42.0576 62.297 42.0501 62.2612 42.0312C55.0732 38.4273 48.4861 33.7769 42.6812 28.2139C42.5802 28.1159 42.5763 27.9545 42.6743 27.8525ZM82.6382 29.7627C82.7759 29.7868 82.8699 29.9179 82.8472 30.0557C82.6522 31.1977 82.3447 32.1461 81.9077 32.9561C81.2177 34.232 80.1024 35.3584 78.5015 36.4004C77.6047 36.9842 76.6469 37.4858 75.7212 37.9717C75.2512 38.2177 74.7809 38.4637 74.3169 38.7207C74.2769 38.7427 74.2349 38.7529 74.1929 38.7529C74.1039 38.7529 74.0172 38.706 73.9712 38.6221C73.9022 38.4991 73.947 38.3445 74.0698 38.2754C74.5368 38.0154 75.0109 37.7666 75.4839 37.5186C76.3998 37.0396 77.3472 36.5436 78.2231 35.9727C79.7519 34.9777 80.8095 33.9117 81.4585 32.7139C81.8695 31.9539 82.1592 31.0567 82.3442 29.9717C82.3674 29.8329 82.4963 29.7417 82.6382 29.7627ZM83.3296 35.832C83.4536 35.764 83.6082 35.8077 83.6772 35.9307C83.7452 36.0547 83.6997 36.2093 83.5767 36.2773C81.9818 37.1632 80.293 37.8932 78.5562 38.4521C78.5302 38.4601 78.503 38.4638 78.478 38.4639C78.3701 38.4639 78.2689 38.3941 78.2349 38.2871C78.1909 38.1521 78.2649 38.0088 78.3989 37.9668C80.1058 37.4188 81.7637 36.701 83.3296 35.832ZM52.4907 26.1074C52.5827 26.0024 52.7441 25.9891 52.8501 26.0811C56.4892 29.2089 60.7375 31.7158 65.2456 33.4092C64.3392 32.3275 63.5398 31.156 62.7622 30.0107C62.4243 29.5128 62.0857 29.0153 61.7397 28.5254C61.6587 28.4114 61.6852 28.2519 61.8022 28.1709C61.9172 28.0902 62.0758 28.1176 62.1558 28.2314C62.5047 28.7243 62.8442 29.2238 63.1821 29.7227C64.1226 31.1058 65.0894 32.5288 66.2358 33.7666C66.6049 33.8944 66.9752 34.018 67.3472 34.1348C67.48 34.1779 67.5551 34.3202 67.5132 34.4551C67.4782 34.563 67.378 34.6327 67.269 34.6328C67.2441 34.6328 67.2189 34.6291 67.1919 34.6221C67.1428 34.6067 67.0944 34.5888 67.0454 34.5732C69.0597 36.428 71.4045 37.3587 73.5317 37.127C75.2787 36.936 76.8615 35.9987 78.2075 35.1357C78.3255 35.0577 78.484 35.0929 78.561 35.2119C78.637 35.3309 78.6009 35.4885 78.4829 35.5645C77.0889 36.4604 75.4434 37.4308 73.5864 37.6328C73.3537 37.6578 73.12 37.6709 72.8843 37.6709C70.7183 37.6709 68.4087 36.6188 66.4487 34.7158C66.2777 34.5498 66.1109 34.3796 65.9478 34.2061C61.0588 32.495 56.4378 29.8379 52.5181 26.4668C52.4122 26.3759 52.4 26.2154 52.4907 26.1074ZM110.556 32.0176C110.658 31.9199 110.818 31.9236 110.917 32.0225C111.013 32.1245 111.013 32.2848 110.912 32.3828C109.556 33.7018 108.21 35.0664 106.911 36.4414C106.861 36.4941 106.794 36.5195 106.725 36.5195C106.663 36.5195 106.599 36.498 106.551 36.4512C106.448 36.3542 106.443 36.1928 106.541 36.0908C107.845 34.7118 109.195 33.3416 110.556 32.0176ZM8.41943 29.6494C8.56833 29.6026 8.71978 29.6373 8.82471 29.7402C8.92569 29.8412 8.92657 30.0006 8.82764 30.1006C8.76174 30.1675 8.67128 30.1898 8.58838 30.1699C8.60739 30.2179 8.65332 30.2883 8.67432 30.3213C9.11927 31.0171 9.66827 31.6372 10.3062 32.1611C10.4149 32.251 10.4298 32.4116 10.3413 32.5186C10.2903 32.5815 10.218 32.6132 10.1431 32.6133C10.1019 32.6133 10.0602 32.6031 10.022 32.582C9.98005 32.6124 9.92938 32.6318 9.87354 32.6318H9.86963C7.78569 32.5968 5.67134 32.6109 3.5874 32.6729C3.50038 32.6754 3.41518 32.6888 3.34033 32.707C3.30765 32.7938 3.22908 32.8571 3.13135 32.8691C3.17857 32.9568 3.35091 33.0127 3.5542 33.0234L5.99268 33.1631C6.03149 33.0601 6.13115 32.9892 6.25146 33.0029L9.43799 33.2754C9.43638 33.2747 9.43472 33.2741 9.43311 33.2734C9.30418 33.2195 9.24349 33.0684 9.29932 32.9395C9.35332 32.8095 9.50428 32.7487 9.63428 32.8047C10.7382 33.2736 11.9599 33.4964 13.1558 33.4385C13.5027 33.4235 13.8568 33.3827 14.1997 33.3447L14.6187 33.2998C17.0587 33.0518 19.5062 33.218 21.8892 33.792C22.0259 33.8251 22.1094 33.9628 22.0776 34.0986C22.0496 34.2166 21.9446 34.2949 21.8306 34.2949C21.8097 34.2949 21.7909 34.2931 21.77 34.2871C19.4422 33.7261 17.0542 33.5647 14.6714 33.8057L14.2573 33.8506C13.9064 33.8896 13.5431 33.9312 13.1812 33.9482C12.4557 33.9818 11.724 33.9165 11.0112 33.7656C10.9681 33.8477 10.8834 33.9033 10.7866 33.9033C10.7798 33.9033 10.772 33.9024 10.7651 33.9023L6.58838 33.543C6.54852 33.6327 6.4597 33.6953 6.35693 33.6953C6.35211 33.6953 6.34718 33.6944 6.34326 33.6943L3.52393 33.5312C2.96093 33.4992 2.61229 33.2559 2.59229 32.8809C2.59164 32.8681 2.59311 32.8554 2.59326 32.8428C2.16069 32.7682 1.74793 32.5701 1.4292 32.2725C1.37327 32.2205 1.34423 32.1462 1.34814 32.0713C1.35214 31.9953 1.38966 31.9249 1.45166 31.8809C3.34873 30.485 5.79595 30.5396 8.35693 30.7646C8.31914 30.7086 8.28014 30.6527 8.24365 30.5957C8.19938 30.5254 8.13256 30.4198 8.09717 30.292C5.6028 30.024 3.10816 30.1999 0.677246 30.8125L1.52393 31.2148C1.65078 31.2738 1.70578 31.4268 1.64404 31.5547C1.60104 31.6447 1.50955 31.6992 1.41455 31.6992C1.37771 31.6992 1.341 31.6907 1.30615 31.6748L0.359863 31.2256C0.292716 31.1945 0.0703288 31.0749 0.0131836 30.8584C-0.0158164 30.7514 0.00391797 30.6389 0.065918 30.5479C0.153921 30.423 0.289982 30.3871 0.355957 30.3691C2.92274 29.6968 5.56112 29.5021 8.19873 29.79C8.25763 29.7253 8.33483 29.6759 8.41943 29.6494ZM17.1187 32.2695C17.2565 32.2436 17.3893 32.3329 17.4185 32.4717C17.4444 32.6095 17.356 32.7423 17.2183 32.7705C15.5153 33.1025 13.7755 33.2725 12.0405 33.2725C11.8817 33.2725 11.7219 33.2696 11.561 33.2666C11.421 33.2636 11.309 33.1488 11.311 33.0078C11.3141 32.8669 11.4379 32.7478 11.5708 32.7578C13.4298 32.7908 15.2967 32.6265 17.1187 32.2695ZM78.7378 0C78.8189 0 78.8908 0.0374416 78.938 0.0957031C78.9588 0.0901419 78.9808 0.0869458 79.0034 0.0869141C79.1443 0.0869141 79.2592 0.200895 79.2593 0.341797V1.51367C79.2593 1.65367 79.1444 1.76758 79.0034 1.76758C78.9362 1.76748 78.8758 1.74154 78.8306 1.69922C78.7922 1.71594 78.7491 1.72447 78.7026 1.71875C76.4617 1.50187 74.1177 2.99814 73.3677 5.12207C73.0976 5.88563 73.0086 6.7125 72.9409 7.52441C73.03 7.56137 73.1082 7.65387 73.1099 7.76074C73.1418 10.5093 73.5998 13.2162 74.4673 15.8184C74.4728 15.7037 74.5554 15.6043 74.6733 15.582C74.8083 15.554 74.9462 15.6452 74.9722 15.7832C75.1072 16.4812 75.5575 17.1002 76.1577 17.4756C75.9412 17.191 75.7987 16.8647 75.7524 16.5186C75.7347 16.3798 75.8333 16.2524 75.9722 16.2334C76.1121 16.2145 76.2403 16.3122 76.2593 16.4521C76.3203 16.9191 76.6324 17.3607 77.0913 17.6377C77.5502 17.9136 78.0869 17.9813 78.5288 17.8174C78.6607 17.7684 78.8069 17.8359 78.856 17.9688C78.905 18.0997 78.8376 18.2469 78.7046 18.2959C78.4847 18.3778 78.2539 18.417 78.0161 18.417C77.7135 18.417 77.4046 18.3503 77.1089 18.2197C77.0613 18.2749 76.994 18.3105 76.9185 18.3105C76.9016 18.3105 76.8846 18.3086 76.8667 18.3057C76.2855 18.1856 75.7527 17.8829 75.3335 17.4658C75.336 17.4695 75.3388 17.4729 75.3413 17.4766C75.7823 18.1385 76.1988 18.7622 76.8628 19.0312C77.3089 19.2115 77.8355 19.2004 78.3765 19.0186C78.4151 18.9894 78.4631 18.9717 78.5151 18.9688C78.8387 18.8429 79.1658 18.6577 79.481 18.4131C79.8719 18.1091 80.2279 17.7423 80.5728 17.3838C80.8993 16.9871 81.2002 16.5699 81.4673 16.1338C81.7113 14.9025 82.0699 13.6904 82.4233 12.5068C82.8476 11.0835 83.2793 9.62885 83.4985 8.1582C83.4683 7.1389 83.3514 6.12759 83.0171 5.16211C82.3931 3.35916 81.0049 2.06243 79.48 1.85938C79.3411 1.84138 79.2433 1.71218 79.2622 1.57227C79.2812 1.43327 79.4063 1.33554 79.5483 1.35254C81.2622 1.5827 82.8126 3.01226 83.4995 4.99609C83.5708 5.20245 83.6323 5.41141 83.686 5.62207C83.7297 5.56473 83.7965 5.52502 83.8745 5.52051C84.0114 5.51251 84.1359 5.62182 84.1421 5.76367C84.1834 6.58436 84.1255 7.39735 84.0073 8.20215C84.0281 8.9588 84.0053 9.70538 83.981 10.4131L83.5747 21.9619C83.6909 21.9757 83.8086 21.9791 83.9253 21.9668C84.0641 21.9491 84.1896 22.0536 84.2056 22.1914C84.2203 22.3322 84.1198 22.4576 83.979 22.4717C83.9081 22.4807 83.8361 22.4844 83.7642 22.4844C83.6947 22.4844 83.6252 22.4787 83.5562 22.4717L83.5425 22.8809C83.6605 22.7342 83.8302 22.5891 84.063 22.5625C84.204 22.5435 84.3292 22.6461 84.3462 22.7861C84.3621 22.9271 84.2605 23.0534 84.1216 23.0684C84.0267 23.0806 83.9269 23.1877 83.812 23.4004C83.0871 24.7493 82.757 26.3114 82.437 27.8213C82.066 29.5752 81.683 31.3881 80.6812 32.918C80.6332 32.9929 80.5521 33.0331 80.4692 33.0332C80.4202 33.0332 80.3716 33.0202 80.3286 32.9922C80.2335 32.9295 80.1951 32.8139 80.2251 32.709C78.9862 32.4221 77.6652 32.4766 76.3862 32.5312C76.1132 32.5422 75.8418 32.5525 75.5708 32.5605C73.9348 32.6095 72.0584 32.5324 70.5464 31.5654C69.2634 30.7444 68.4282 29.3936 67.7183 28.0566C67.6513 27.9327 67.6978 27.7789 67.8228 27.7129C67.9457 27.6459 68.0995 27.6944 68.1675 27.8174C68.8454 29.0933 69.6369 30.3778 70.8218 31.1357C71.3807 31.4929 72.0018 31.7165 72.645 31.8555L69.4429 22.9678C69.4179 22.9728 69.3888 22.9757 69.3608 22.9727C69.2222 22.9618 69.1188 22.8404 69.1294 22.7012C63.5109 23.1039 57.8101 23.7178 52.4868 25.7158C52.4568 25.7258 52.427 25.7314 52.397 25.7314C52.2941 25.7314 52.1968 25.6692 52.1577 25.5664C52.1392 25.5165 52.1371 25.464 52.1489 25.416C51.0038 25.7629 49.8287 26.0261 48.6196 25.96C48.3198 25.943 48.021 25.9061 47.7222 25.8691C47.2572 25.8101 46.8136 25.7564 46.3706 25.7764C46.0771 25.7907 45.8044 25.8435 45.563 25.9307C45.6064 25.9589 45.6417 26.0004 45.6616 26.0527C45.7136 26.1836 45.6469 26.3317 45.5151 26.3818C45.2155 26.4965 44.912 26.6043 44.6069 26.708C44.5585 26.7598 44.4925 26.789 44.4233 26.7891C44.4079 26.7891 44.3926 26.786 44.3774 26.7832C43.6656 27.0178 42.9425 27.2245 42.2153 27.3955C42.1955 27.4005 42.1776 27.4033 42.1567 27.4033C42.0418 27.4033 41.9367 27.323 41.9087 27.2061C41.8777 27.0691 41.9621 26.9324 42.0991 26.9004C42.8329 26.7276 43.5619 26.5168 44.2798 26.2783C44.6746 25.6863 45.435 25.3113 46.3472 25.2666C46.834 25.2446 47.3178 25.3053 47.7856 25.3633C48.0726 25.3993 48.36 25.4342 48.647 25.4512C50.233 25.5402 51.73 25.0369 53.314 24.5039C54.2349 24.1939 55.1869 23.8726 56.1528 23.6826C56.2927 23.6556 56.4245 23.7459 56.4517 23.8848C56.4563 23.9081 56.4564 23.9315 56.4546 23.9541C60.7273 22.8834 65.1438 22.4693 69.5015 22.1641L70.5659 9.14355C70.6619 7.9657 70.7623 6.74583 71.1353 5.58398C72.1653 2.36807 75.3619 0.0200299 78.7378 0ZM8.5376 31.291C6.12469 31.071 3.81059 30.9717 2.03564 32.0977C2.28325 32.2526 2.56997 32.3448 2.86279 32.3633C3.10305 32.1981 3.42783 32.1673 3.57275 32.1631C5.53495 32.1049 7.52362 32.0914 9.49072 32.1172C9.20852 31.8453 8.94693 31.5536 8.70557 31.2451C8.65854 31.2778 8.60061 31.2963 8.5376 31.291ZM72.4927 12.9922C72.4806 13.1251 72.3697 13.2246 72.2378 13.2246C72.231 13.2246 72.2242 13.2246 72.2183 13.2236C72.1245 13.2163 72.0464 13.1598 72.0083 13.0811C72.0087 13.1805 72.0098 13.2798 72.0103 13.3789L72.0239 16.8877C72.0246 16.9795 71.974 17.0596 71.8999 17.1045L71.7231 21.833C71.7209 21.9105 71.6826 21.977 71.6265 22.0215C71.7437 22.0138 71.8609 22.0057 71.978 21.998C72.126 21.9951 72.2395 22.0964 72.2505 22.2354C72.2593 22.3761 72.1519 22.4967 72.0132 22.5059C71.2956 22.5528 70.575 22.6006 69.853 22.6504C69.8751 22.6834 69.8945 22.7166 69.9067 22.751L73.2251 31.958C74.0088 32.0678 74.8083 32.0743 75.5562 32.0527C75.824 32.0437 76.0949 32.0325 76.3638 32.0195C77.7298 31.9638 79.14 31.9054 80.4907 32.25C81.2655 30.8904 81.5941 29.3448 81.938 27.7158C82.265 26.171 82.6029 24.5731 83.3628 23.1592C83.37 23.1458 83.3787 23.1303 83.3882 23.1133C83.3575 23.1265 83.3239 23.1348 83.2886 23.1348C83.2856 23.1348 83.2817 23.1348 83.2798 23.1338C83.1389 23.1287 83.0288 23.011 83.0337 22.8701L83.0513 22.3594C82.7226 22.2451 82.4183 22.0563 82.1694 21.8125C82.1675 21.8127 82.1655 21.8143 82.1636 21.8145C82.1548 21.8154 82.146 21.8164 82.1382 21.8164C82.0092 21.8164 81.8973 21.7189 81.8853 21.5879C81.8808 21.5446 81.8768 21.5013 81.8726 21.458C81.7755 21.3129 81.6966 21.156 81.6392 20.9902C81.5942 20.8574 81.6636 20.7131 81.7964 20.667C81.8001 20.6657 81.8044 20.6652 81.8081 20.6641C81.7323 19.5019 81.7381 18.3395 81.8257 17.1826C81.8239 17.1435 81.8215 17.1045 81.8198 17.0654C81.7823 17.3197 81.7506 17.5743 81.7271 17.8291C81.715 17.961 81.603 18.0584 81.4731 18.0586C81.4661 18.0586 81.4577 18.0586 81.4487 18.0576C81.3089 18.0445 81.2073 17.9211 81.2202 17.7812C81.2316 17.6588 81.2437 17.5362 81.2583 17.4141C81.1764 17.4981 81.0946 17.5816 81.0142 17.665C80.9909 17.6891 80.9662 17.7121 80.9429 17.7363C80.418 18.3694 79.8289 18.9495 79.186 19.4521C79.14 19.4891 79.0848 19.5068 79.0288 19.5068C78.9548 19.5068 78.8786 19.4732 78.8286 19.4092C78.8248 19.4043 78.8223 19.3986 78.8188 19.3936C78.8101 19.3973 78.8012 19.4006 78.7925 19.4043C78.8201 20.2417 78.746 21.0797 78.5659 21.8984C78.5408 22.0172 78.4347 22.0977 78.3179 22.0977C78.3009 22.0977 78.2821 22.0967 78.2642 22.0928C78.1262 22.0618 78.0389 21.927 78.0688 21.79C78.2288 21.0616 78.3014 20.3181 78.2876 19.5732C78.0416 19.6355 77.7989 19.6709 77.562 19.6709C77.2501 19.6709 76.9503 19.6158 76.6714 19.5029C75.8634 19.1749 75.3815 18.4557 74.9165 17.7617C74.5346 17.1909 74.1737 16.6522 73.6509 16.3203C73.5329 16.2453 73.4978 16.0868 73.5728 15.9688C73.6478 15.8488 73.8063 15.8137 73.9253 15.8896C73.9383 15.8979 73.9505 15.9075 73.9634 15.916C73.6177 14.8712 73.3374 13.8101 73.1226 12.7363C72.9445 15.6892 72.7297 18.6613 72.478 21.5947C72.468 21.7266 72.355 21.828 72.2251 21.8281C72.2181 21.8281 72.2106 21.8281 72.2026 21.8271C72.0627 21.8141 71.9592 21.6917 71.9722 21.5518C72.2732 18.0129 72.5262 14.42 72.7231 10.8701C72.7268 10.8056 72.7536 10.7461 72.7954 10.7021C72.7712 10.5029 72.7488 10.3034 72.729 10.1035L72.4927 12.9922ZM76.8452 28.2188C76.9811 28.185 77.1189 28.2713 77.1509 28.4082L77.6753 30.6201C77.7082 30.758 77.6218 30.8938 77.4849 30.9268C77.467 30.9307 77.4461 30.9336 77.4272 30.9336C77.3114 30.9336 77.2073 30.8551 77.1792 30.7383L76.6548 28.5254C76.6228 28.3894 76.7082 28.2508 76.8452 28.2188ZM148.718 22.7686C148.863 22.7539 148.981 22.8621 148.993 23.002C148.993 23.0085 148.992 23.015 148.992 23.0215C149.069 22.9932 149.159 23.0026 149.229 23.0547C149.345 23.1377 149.369 23.2972 149.286 23.4102C148.884 23.9628 148.326 24.3138 147.743 24.5371C150.091 24.4454 152.453 24.5332 154.788 24.791C154.82 24.6788 154.929 24.6005 155.047 24.6074C155.641 24.6406 156.158 25.13 156.225 25.7207C156.232 25.7877 156.212 25.8552 156.171 25.9092C156.128 25.9622 156.066 25.995 155.999 26.002L154.636 26.1475C154.824 26.2269 154.999 26.334 155.145 26.4893C155.356 26.7153 155.459 27.0475 155.411 27.3564C155.372 27.6082 155.239 27.8099 155.035 27.9248C154.847 28.0297 154.638 28.041 154.471 28.041H154.401L153.167 28.0283C153.254 28.3375 153.065 28.6413 152.825 28.7793C152.6 28.9092 152.348 28.9216 152.147 28.9316L150.101 29.0352C150.193 29.1008 150.233 29.222 150.191 29.333C149.982 29.883 149.362 30.0413 148.912 30.1123C148.13 30.2363 147.334 30.2988 146.541 30.2988C146.242 30.2988 145.944 30.2895 145.646 30.2705C145.506 30.2635 145.399 30.1429 145.407 30.0029C145.416 29.8619 145.534 29.7557 145.677 29.7637C146.729 29.8246 147.791 29.7733 148.833 29.6084C149.34 29.5284 149.629 29.3793 149.715 29.1523C149.73 29.112 149.754 29.0775 149.785 29.0508L146.195 29.2344H146.181C146.048 29.2344 145.934 29.1291 145.928 28.9932C145.921 28.8513 146.029 28.7318 146.169 28.7246L152.121 28.4229C152.284 28.4149 152.452 28.4059 152.571 28.3379C152.647 28.294 152.694 28.2052 152.679 28.1631C152.677 28.1631 152.674 28.1621 152.674 28.1621C152.606 28.2639 152.475 28.3049 152.361 28.2539C152.264 28.2115 152.208 28.1179 152.208 28.0195L147.743 27.9775C147.602 27.9764 147.49 27.8616 147.491 27.7217C147.492 27.5809 147.606 27.4689 147.746 27.4688H147.748L154.406 27.5312C154.564 27.5352 154.696 27.5303 154.784 27.4805C154.868 27.4345 154.897 27.3463 154.907 27.2793C154.931 27.1263 154.877 26.9479 154.773 26.8379C154.556 26.6069 154.202 26.5232 153.826 26.4512C153.769 26.4405 153.722 26.4108 153.686 26.3711C153.713 26.4122 153.728 26.4613 153.727 26.5137C153.724 26.6537 153.618 26.7707 153.467 26.7637C151.573 26.7247 149.655 26.7752 147.764 26.9102H147.745C147.613 26.9101 147.501 26.8068 147.492 26.6738C147.481 26.5329 147.587 26.4113 147.727 26.4023C149.635 26.2664 151.569 26.2179 153.478 26.2549C153.551 26.256 153.616 26.2897 153.662 26.3408C153.627 26.2874 153.611 26.2209 153.624 26.1533C153.638 26.0814 153.681 26.0226 153.738 25.9863C153.731 25.9226 153.748 25.8619 153.783 25.8135C151.842 25.6207 149.885 25.5889 147.94 25.7168C147.124 27.0221 146.28 28.3301 145.422 29.6064C145.372 29.6801 145.292 29.7197 145.21 29.7197C145.162 29.7197 145.112 29.7047 145.069 29.6758C144.953 29.5968 144.921 29.4392 145 29.3223C145.815 28.1084 146.619 26.8672 147.396 25.626C147.371 25.5902 147.355 25.5478 147.351 25.502C147.341 25.3611 147.445 25.2377 147.585 25.2266C147.606 25.225 147.628 25.2242 147.649 25.2227C147.672 25.1854 147.696 25.1486 147.719 25.1113C147.735 25.0857 147.754 25.0636 147.777 25.0459C147.425 25.0594 147.073 25.0762 146.721 25.0977C146.581 25.1086 146.459 25.0012 146.45 24.8604C146.449 24.8569 146.45 24.8531 146.45 24.8496C146.35 24.8621 146.253 24.874 146.159 24.8818C145.66 24.9218 145.156 24.919 144.67 24.917C144.062 24.914 143.432 24.9101 142.83 24.9951C142.818 24.9971 142.805 24.9971 142.793 24.9971C142.67 24.9968 142.56 24.905 142.542 24.7783C142.522 24.6393 142.62 24.5102 142.759 24.4902C143.398 24.4003 144.046 24.4032 144.673 24.4072C145.148 24.4082 145.641 24.412 146.118 24.373C146.952 24.3047 148.058 24.0553 148.739 23.2783L146.458 23.4697C144.888 23.6007 143.264 23.7366 141.737 24.1855C140.052 24.6805 138.697 25.5212 137.819 26.6152C137.768 26.6771 137.695 26.71 137.62 26.71C137.563 26.7099 137.508 26.6913 137.459 26.6533C137.351 26.5654 137.334 26.4049 137.421 26.2949C138.365 25.1209 139.808 24.2222 141.593 23.6982C143.171 23.2344 144.82 23.0959 146.416 22.9629L148.718 22.7686ZM7.30615 26.4512C8.16313 26.1472 9.13713 26.1744 9.9751 26.5254C10.035 26.5508 10.0798 26.5962 10.106 26.6504L13.2231 26.6152C13.6761 26.6092 14.1431 26.6027 14.605 26.7217C14.9359 26.8057 15.2388 26.947 15.5317 27.084L19.8882 29.1182C20.014 29.1772 20.0701 29.3291 20.0122 29.457C19.9682 29.55 19.8758 29.6025 19.7788 29.6025C19.743 29.6025 19.7072 29.5959 19.6733 29.5801L15.3159 27.5459C15.045 27.4199 14.764 27.2878 14.478 27.2158C14.0821 27.1138 13.649 27.119 13.229 27.124L9.09717 27.1719H9.09424C8.95424 27.1719 8.84136 27.0599 8.83936 26.9209C8.83857 26.8642 8.85647 26.8121 8.88721 26.7695C8.41233 26.7192 7.92564 26.7714 7.4751 26.9307C7.3081 26.9907 6.9127 27.1611 6.8667 27.4531C6.84756 27.5767 6.89874 27.6961 6.98779 27.8018C7.34412 27.8454 7.70169 27.8803 8.06006 27.9072L8.31006 27.9053C8.35453 27.8999 8.39764 27.9114 8.43604 27.9336C9.01907 27.9679 9.60345 27.9798 10.187 27.9697C10.1945 27.9309 10.2107 27.8934 10.2368 27.8604C10.3258 27.7504 10.4872 27.7323 10.5972 27.8203L10.7612 27.9521C10.8941 27.9465 11.027 27.9415 11.1597 27.9336C11.2956 27.9276 11.4211 28.0329 11.4292 28.1738C11.4352 28.2666 11.3889 28.3497 11.3169 28.3984L12.8472 29.6279C12.958 29.716 12.9751 29.8764 12.8882 29.9854C12.8372 30.0483 12.7629 30.0819 12.688 30.082C12.6331 30.082 12.5758 30.0633 12.5288 30.0254L10.5913 28.4697C10.3264 28.4788 10.0614 28.4853 9.79639 28.4854C9.53327 28.4854 9.26954 28.4795 9.00635 28.4707C9.06724 28.5419 9.08767 28.6437 9.04932 28.7354C9.00728 28.8322 8.91291 28.8896 8.81299 28.8896C8.78012 28.8896 8.74624 28.884 8.71436 28.8711C8.49536 28.7781 8.24784 28.7478 7.98584 28.7158C7.78998 28.6918 7.58806 28.6682 7.38721 28.6143C7.23691 28.5751 7.08801 28.5112 6.95166 28.4287L6.46729 28.4346C4.92929 28.4516 3.2096 28.5651 2.2876 29.7031C2.23771 29.7639 2.16409 29.7967 2.09033 29.7969C2.03447 29.7969 1.97612 29.7781 1.93018 29.7393C1.82018 29.6513 1.80409 29.4909 1.89209 29.3809C2.93422 28.0976 4.7378 27.9489 6.36865 27.9277C6.37993 27.8952 6.39626 27.8648 6.41846 27.8398C6.36042 27.6961 6.3365 27.5394 6.36279 27.373C6.42779 26.972 6.76215 26.6432 7.30615 26.4512ZM42.0288 27.6436C42.1808 27.6536 42.2846 27.7575 42.2856 27.8975C42.2854 28.0383 42.1736 28.1533 42.0317 28.1543C34.9908 28.1953 27.8538 28.4025 20.8188 28.7695H20.8052C20.6703 28.7695 20.5584 28.6651 20.5513 28.5293C20.5443 28.3894 20.6507 28.2679 20.7915 28.2617C27.8355 27.8937 34.9798 27.6856 42.0288 27.6436ZM144.813 26.2266C144.899 26.116 145.058 26.0951 145.17 26.1807C145.281 26.2666 145.303 26.4281 145.217 26.5391L143.627 28.6006C143.578 28.6665 143.502 28.7001 143.426 28.7002C143.372 28.7002 143.316 28.6833 143.27 28.6475C143.159 28.5615 143.138 28.401 143.223 28.29L144.813 26.2266ZM143.557 25.6104C143.644 25.5004 143.805 25.4804 143.915 25.5674C144.026 25.6554 144.045 25.8138 143.958 25.9258C143.028 27.1046 141.581 27.8987 140.087 28.0488C140.078 28.0498 140.069 28.0498 140.061 28.0498C139.931 28.0498 139.821 27.9521 139.808 27.8203C139.794 27.6814 139.895 27.5561 140.036 27.542C141.395 27.406 142.712 26.6833 143.557 25.6104ZM95.2144 23.1465C95.2148 23.1255 95.2182 23.1042 95.2241 23.083C95.2642 22.9461 95.4016 22.8683 95.5396 22.9082L99.7437 24.1152C104.144 25.3812 108.694 26.6871 113.282 27.4561C113.421 27.4781 113.514 27.611 113.491 27.749C113.471 27.874 113.362 27.9619 113.24 27.9619C113.225 27.9619 113.212 27.961 113.198 27.958C108.582 27.185 104.017 25.8744 99.603 24.6055L95.7817 23.5068C95.746 23.606 95.6525 23.6758 95.5435 23.6758C95.5386 23.6757 95.5327 23.6748 95.5288 23.6748L84.7153 23.0381C84.5743 23.0301 84.4681 22.9086 84.4751 22.7686C84.4833 22.6279 84.6079 22.5224 84.7437 22.5303L95.2144 23.1465ZM155.533 25.3887C153.067 25.074 150.567 24.9579 148.08 25.0371C148.134 25.0745 148.17 25.1289 148.183 25.1895C150.567 25.0518 152.967 25.1494 155.33 25.4854C155.382 25.4924 155.428 25.5143 155.464 25.5469L155.639 25.5293C155.612 25.4793 155.577 25.4323 155.54 25.3887C155.537 25.3885 155.535 25.3889 155.533 25.3887ZM79.6831 0.134766C81.63 -0.212143 83.3773 1.1964 84.1763 2.65137C85.0241 4.19727 85.1856 5.96139 85.2896 7.78223C85.5555 12.5331 85.5201 17.3498 85.1821 22.0967C85.1731 22.2306 85.0611 22.3339 84.9302 22.334C84.9232 22.334 84.9156 22.334 84.9106 22.333C84.7698 22.3228 84.6643 22.2014 84.6743 22.0605C85.0113 17.3357 85.0468 12.5404 84.7798 7.81055C84.6808 6.04986 84.5258 4.34925 83.729 2.89746C83.014 1.59647 81.4719 0.335736 79.7729 0.636719C79.6329 0.661719 79.5031 0.568664 79.4771 0.430664C79.4532 0.291773 79.5452 0.159748 79.6831 0.134766ZM78.6362 0.511719C75.514 0.576978 72.573 2.76051 71.6187 5.73926C71.2648 6.84604 71.1677 8.03578 71.0737 9.18555L70.0161 22.1289C70.4573 22.0988 70.8978 22.0689 71.3374 22.04C71.261 21.9936 71.2103 21.909 71.2144 21.8125L71.4819 14.6543C71.4832 14.62 71.4911 14.5868 71.5044 14.5566L71.4995 13.3809C71.4885 10.97 71.4789 8.47516 72.2388 6.1123C73.0838 3.4863 74.8551 1.53272 76.9751 0.886719C77.1109 0.846909 77.2523 0.922013 77.2935 1.05566C77.3174 1.13656 77.2992 1.21933 77.2524 1.28223C77.6395 1.20938 78.0346 1.17806 78.4312 1.19141L78.6304 0.529297C78.6321 0.523357 78.6341 0.517422 78.6362 0.511719ZM76.8013 19.873C76.938 19.9012 77.0255 20.037 76.9976 20.1748C76.8836 20.7068 76.8603 21.251 76.9263 21.791C76.9422 21.931 76.8426 22.0572 76.7026 22.0742C76.6929 22.0761 76.6822 22.0762 76.6733 22.0762C76.5453 22.0762 76.4354 21.9816 76.4204 21.8516C76.3475 21.2568 76.3736 20.6561 76.4985 20.0684C76.5275 19.9314 76.6653 19.843 76.8013 19.873ZM77.6313 19.8828C77.7661 19.919 77.847 20.0585 77.811 20.1943C77.6841 20.6752 77.6457 21.1691 77.7007 21.665C77.7167 21.805 77.616 21.9312 77.4751 21.9463C77.4671 21.9473 77.4568 21.9473 77.4478 21.9473C77.3188 21.9472 77.2088 21.8497 77.1938 21.7197C77.1339 21.162 77.175 20.6042 77.3188 20.0635C77.3548 19.9275 77.4953 19.8468 77.6313 19.8828ZM83.4595 10.7412C83.2865 11.3841 83.099 12.0223 82.9106 12.6533C82.8394 12.8919 82.7696 13.1322 82.6987 13.373C82.8226 13.413 82.8979 13.5405 82.8687 13.6709C82.6045 14.8357 82.4274 16.0131 82.3364 17.1963C82.4048 18.648 82.5768 20.0998 82.853 21.5225C82.8647 21.5831 82.8521 21.642 82.8247 21.6924C82.9029 21.7423 82.9852 21.7856 83.0698 21.8232L83.4595 10.7412ZM78.479 13.4072C79.3509 13.3963 80.2463 13.5779 81.0513 13.9229C81.18 13.9779 81.2399 14.128 81.1841 14.2578C81.1431 14.3538 81.0497 14.4121 80.9497 14.4121C80.9158 14.4121 80.883 14.4046 80.8491 14.3906C80.1101 14.0736 79.2969 13.905 78.4849 13.918H78.4819C78.3429 13.918 78.2291 13.805 78.2271 13.665C78.2261 13.525 78.34 13.4092 78.479 13.4072ZM79.3589 12.7119C79.4808 12.712 79.5859 12.798 79.6099 12.917C79.6339 13.035 79.5695 13.1552 79.4575 13.2021C79.1806 13.3171 78.8766 13.376 78.5757 13.376C78.4428 13.376 78.309 13.3647 78.1802 13.3418C78.1052 13.3288 78.0433 13.2837 78.0063 13.2227H77.8257C77.8225 13.3583 77.7134 13.4697 77.5757 13.4717C76.5158 13.4867 75.4833 13.7964 74.5884 14.3643C74.5464 14.3903 74.4987 14.4033 74.4517 14.4033C74.3668 14.4032 74.2848 14.361 74.2358 14.2842C74.1608 14.1662 74.1959 14.0086 74.3149 13.9326C75.1813 13.383 76.1681 13.0579 77.187 12.9805C77.1869 12.9773 77.187 12.9739 77.187 12.9707C77.1872 12.8298 77.301 12.7158 77.4409 12.7158L79.3589 12.7119ZM77.605 6.0166C77.7449 6.02966 77.8484 6.15202 77.8374 6.29297L77.7407 7.44824C77.7031 7.89433 77.661 8.4175 77.7495 8.90039C77.7855 8.95294 77.8001 9.01701 77.7915 9.08008C78.0386 9.02554 78.2999 9.02839 78.5444 9.0918C78.6623 9.12213 78.738 9.23074 78.7329 9.34766C78.7347 9.35194 78.7381 9.35592 78.7397 9.36035L79.0376 10.1738C79.0558 10.1893 79.0722 10.2067 79.0854 10.2266C79.0904 10.2256 79.0951 10.2256 79.0981 10.2246C79.238 10.2059 79.3653 10.3065 79.3843 10.4453C79.4021 10.5852 79.3045 10.7135 79.1646 10.7314C78.9456 10.7604 78.7224 10.7744 78.5005 10.7744C78.0869 10.7744 77.672 10.7231 77.2729 10.625C77.2489 10.666 77.2151 10.6996 77.1733 10.7217C77.1904 10.8317 77.1351 10.9442 77.0288 10.9932C76.6995 11.1438 76.3942 11.3512 76.1226 11.5967C76.4613 11.4445 76.8394 11.3814 77.2095 11.4219C77.3358 11.4365 77.4308 11.5436 77.4331 11.6689C77.5775 11.659 77.7222 11.6537 77.8667 11.6543L77.9302 11.6455C77.9699 11.6396 78.0096 11.6463 78.0444 11.6602C78.3399 11.6747 78.635 11.7161 78.9253 11.7812C78.9534 11.7694 78.9835 11.7631 79.0142 11.7617C79.0146 11.7517 79.0154 11.7416 79.0171 11.7314C79.0411 11.5934 79.17 11.5005 79.311 11.5225C79.8228 11.6085 80.3025 11.8911 80.6255 12.2979C80.6795 12.3653 80.6921 12.4514 80.6694 12.5283C80.7867 12.5939 80.8359 12.7394 80.7759 12.8613C80.7318 12.9522 80.6403 13.0059 80.5464 13.0059C80.5097 13.0058 80.4718 12.9973 80.4351 12.9795L79.1255 12.3467L79.1245 12.3477C79.1007 12.3476 79.079 12.3448 79.0562 12.3389C78.6762 12.2309 78.284 12.1731 77.8921 12.165L76.5923 12.3164C76.4604 12.3334 76.3362 12.2411 76.311 12.1104C76.3086 12.0971 76.3075 12.0834 76.3071 12.0703C76.2061 12.1175 76.1099 12.1754 76.021 12.2432C75.975 12.2792 75.9207 12.2959 75.8667 12.2959C75.7897 12.2959 75.7145 12.2622 75.6646 12.1963C75.6495 12.177 75.639 12.1555 75.6304 12.1338C75.5031 12.3054 75.3907 12.4874 75.2974 12.6777C75.2534 12.7667 75.1628 12.8203 75.0679 12.8203C75.0309 12.8203 74.9925 12.811 74.9565 12.793C74.8298 12.731 74.7776 12.579 74.8403 12.4521C75.2543 11.6093 75.952 10.9291 76.8042 10.5352C76.8012 10.5153 76.7995 10.4945 76.8013 10.4736C76.8454 9.9674 77.0023 9.4693 77.2554 9.02637C77.1464 8.47125 77.1919 7.89586 77.2329 7.40527L77.3306 6.25098C77.3426 6.10999 77.469 6.0026 77.605 6.0166ZM72.4517 7.26562C72.048 9.02017 72.0061 10.849 72.0083 12.6465L72.4097 7.75098C72.4228 7.58998 72.4371 7.42811 72.4517 7.26562ZM78.27 9.55859C78.1675 9.54675 78.0626 9.54836 77.9604 9.56543C77.9677 9.66398 77.9169 9.7606 77.8237 9.80762C77.7867 9.82762 77.7465 9.83789 77.7075 9.83789C77.6211 9.8378 77.54 9.79271 77.4927 9.71582C77.4441 9.8448 77.4042 9.97696 77.3735 10.1113H78.4722L78.27 9.55859ZM79.1226 5.29492C79.2646 5.28292 79.3822 5.39804 79.3882 5.54004L79.4175 6.32227C79.5202 6.18171 79.6587 6.06664 79.8237 5.98242C79.9472 5.86957 80.0982 5.78683 80.2632 5.74902C80.3577 5.72711 80.4506 5.76208 80.5103 5.83008C80.7664 5.83315 81.0251 5.8947 81.2466 6.01367C81.5935 6.19846 81.8625 6.47819 82.0854 6.77539C82.4121 6.9561 82.7116 7.18614 82.9663 7.45996C83.0612 7.56197 83.0556 7.72438 82.9526 7.81934C82.9037 7.86612 82.8407 7.8877 82.7788 7.8877C82.7109 7.88766 82.6422 7.86063 82.5933 7.80566C82.5694 7.78005 82.5438 7.75617 82.519 7.73145C82.4992 7.76033 82.4739 7.78608 82.4419 7.80566C82.4009 7.82965 82.356 7.84178 82.311 7.8418C82.2392 7.8418 82.1702 7.81132 82.1216 7.75586L80.1958 7.75977C79.9291 7.75975 79.818 7.63619 79.7729 7.53125C79.7516 7.48301 79.7465 7.43187 79.7515 7.38184C79.6196 7.23372 79.5272 7.05052 79.4985 6.85449C79.4947 6.85377 79.4906 6.85442 79.4868 6.85352L79.438 6.83691L79.5435 9.57422C79.5483 9.71498 79.44 9.83363 79.3003 9.83887C79.2963 9.83987 79.2916 9.83984 79.2886 9.83984C79.1517 9.83969 79.0397 9.73063 79.0337 9.59473L78.8774 5.55859C78.8727 5.41887 78.9818 5.30106 79.1226 5.29492ZM74.1626 5.16309C75.2944 5.02711 76.4456 4.98703 77.5845 5.04199C77.7243 5.04999 77.8325 5.16876 77.8267 5.30859C77.8187 5.44955 77.696 5.55471 77.5591 5.55078C77.1714 5.53182 76.7822 5.52429 76.3931 5.52832C76.4501 5.55683 76.5051 5.58918 76.5552 5.62891C77.0109 5.99385 76.9683 6.62971 76.8804 7.14258C76.8564 7.28158 76.7264 7.37459 76.5864 7.35059C76.5535 7.34484 76.5235 7.33283 76.4966 7.31641C76.4679 7.32742 76.4375 7.33496 76.4058 7.33496C76.3908 7.33495 76.3768 7.33404 76.3618 7.33105C75.652 7.2071 74.9292 7.17815 74.2134 7.24609C74.1448 7.25479 74.0803 7.23384 74.0308 7.19434C74.0031 7.23822 73.9748 7.28189 73.9497 7.32715C73.9017 7.40997 73.8149 7.45791 73.7271 7.45801C73.6841 7.45801 73.641 7.44676 73.603 7.42578C73.4801 7.35683 73.4356 7.20206 73.5044 7.0791C73.6317 6.8501 73.7862 6.63863 73.9604 6.44629C73.9088 6.34835 73.9253 6.2251 74.0083 6.14453C74.3019 5.86079 74.6792 5.6903 75.0737 5.63086C75.1148 5.61211 75.1559 5.5933 75.1978 5.57617C74.9191 5.59575 74.6409 5.62218 74.3638 5.65332C74.3387 5.72013 74.2907 5.77962 74.2339 5.80859C74.191 5.83155 74.1431 5.84273 74.0962 5.84277C74.0192 5.84277 73.9433 5.81562 73.8813 5.76465C73.7805 5.68474 73.7411 5.56027 73.7749 5.44238C73.8059 5.33143 73.8989 5.19317 74.1626 5.16309ZM81.7437 7.16895C81.2143 6.89901 80.6084 6.77778 80.0161 6.83691C80.0455 6.94321 80.1121 7.04173 80.1997 7.11035C80.2202 7.12031 80.2399 7.13345 80.2583 7.14941C80.2894 7.16721 80.3218 7.18292 80.356 7.19238C80.3946 7.20321 80.4275 7.22318 80.4556 7.24805L81.2261 7.24902L81.7974 7.24707C81.7797 7.2209 81.7619 7.19477 81.7437 7.16895ZM76.3882 6.4873C76.0768 6.20098 75.6356 6.08147 75.2153 6.12695C74.9145 6.27527 74.6375 6.47714 74.4028 6.71875C75.073 6.67442 75.746 6.70978 76.4087 6.82227C76.4204 6.71806 76.4272 6.61337 76.4233 6.51367C76.4112 6.50583 76.3991 6.49746 76.3882 6.4873ZM79.6079 5.18945C80.6799 4.96846 81.8455 5.34537 82.5835 6.15234C82.6795 6.2563 82.6717 6.4167 82.5679 6.51172C82.5189 6.55669 82.458 6.58005 82.395 6.58008C82.327 6.58008 82.2575 6.55109 82.2075 6.49609C81.5896 5.82028 80.6092 5.50365 79.7124 5.68848C79.5725 5.71646 79.4378 5.62813 79.4087 5.49023C79.3817 5.35227 79.471 5.21849 79.6079 5.18945Z" fill="#231F20"/>
</svg>
